<svg xmlns="http://www.w3.org/2000/svg" width="67" height="888" fill="none" viewBox="0 0 67 888"><path fill="#896c68" d="M16.337 36.798c.207 4.698-.019 11.23-.327 15.874-.096 1.504-.52.741-.605 1.786-.166 2.033.04 4.052-.157 5.96-.068.651-.739-.16-.794.523-.3 3.704-.132 7.585-.278 11.308-.72 19.013-.993 37.769-1.321 57.059-.108 6.446-.727 14.037-.468 20.695.03.778.62.315.67.463.74 2.325-.45 1.558-.61 3.074-.63 5.769-.693 12.507-.472 18.204.095 2.392 1.27-.008.609 2.406-.045.168-.67-.442-.738.217-.152 1.492-.043 4.351-.094 5.528-.102 2.268-.096 2.645-.106 4.809-.019 3.039-.334 6.324-.196 9.472.031.666.674-.215.782.847s.05 3.893-.103 4.855c-.152.96-.656.551-.772.721-.978 1.385.37 4.749.403 5.123.56 7.478-.218 14.272-.224 21.367-.004 5.38.243 11.265.202 16.525-.051 6.079-.405 11.314-.352 17.405.004.643.76-.11.767.676.078 8.157-.013 16.354-.532 24.584-.053.81-.714-.235-.807.575-.55 4.947-1.867 12.923 1.015 15.958-.117 3.513-.238 7.489-.823 10.543-.376 1.954-1.096.053-.79 2.459.067.543.7-.163.755.652.227 3.432.018 7.212.34 10.661.068.702.634.511.736.71.824 1.646-.544 4.333-.644 4.93-.745 4.505-.457 7.825-.48 12.09-.005.991.757-.18.779.774.104 5.005.033 9.984-.31 14.775-.077 1.065-.725.085-.795.594-.303 2.247.92 2.747.654 4.913-.054.457-.609.199-.67.282-.958 1.304.396 2.443.426 2.78.404 4.268-1.013 7.012-.817 11.031.025.484.728-.608.755.754.185 9.037-.017 18.986-.587 27.875-.088 1.403-.614.4-.68.489-1.016 1.438.344 2.374.395 2.833.365 3.621-.78 7.028.84 9.518-.577 15.253.32 30.684-1.144 45.798-.017.194-.687-.154-.718.233-.38 4.667.662 3.773 1.934 6.877.32.782-1.221 3.167-1.334 3.379-.416.77-1.413-.03-1.493.228-.634 2.094 2.664 1.745 2.663 4.559-.005.088-.612-.282-.673-.046-.19.734.05 1.462-.159 2.181-.484 1.647-2.087 2.232-1.157 4.759.121.32 1.992-.169 1.902 2.365-.038 1.008-.009 5.496-.131 6.761-.122 1.261-.724.395-.75.485-.8 3.4-1.13 2.111-2.311 3.818-1.177 1.708 1.627 1.237 1.94 1.935.312.72-.348 3.15-.577 3.755-.23.601-.612-.149-.741.385-.849 3.549 1.39 1.559 1.834 2.73 1.052 2.763-1.029 4.921-1.234 7.467-.056.689.418.127.462.741.167 2.433-.482 3.898.11 6.681.097.455 1.346 2.709.427 4.171-.132.207-.65-.382-.767.665-.175 1.576-.29 4.363-.118 6.001.127 1.217.982-.177.716 1.355-.119.681-.618-.582-.8.698-.18 1.272-.161 4.538-.145 5.785.017 1.244.665.563.709.664.25.608.56 3 .56 3.212.072 10.739-1.026 20.527-.67 30.905.026.817.71.273.72.398.285 2.798-1.53.59-2.139 2.546 1.387-.281 1.135.873 1.286 2.851.074.954.61.435.666.522.814 1.415-.24 2.402-.455 2.656-.793.939.143 1.963-.387 2.603-.526.64-1.305-.834-1.296 1.074.496.535 1.794-.881 2.003.568.792 5.333-.23 15.375-.339 19.745-.107 4.352-.016 5.767-.197 8.317-.326 4.623.636 2.905 1.075 5.723.44 2.815-1.927 1.446-2.436 1.85-.509.398.014.832-.265 1.327-.28.494-.626-.575-.731.586-.105 1.16.798 4.345 1.33 4.759 1.127.875 2.31-.563 1.893 2.526-.025.178-.647-.399-.71.282-.482 5.408-.514 11.062-.94 16.533-.06.753-.751.08-.794.518-.445 4.462.723 2.866 2.02 5.316-1.726-.55-2.783.801-2.794 4.204-.008 2.047.746 1.695 1.277 3.021.16.398-.358 1.85-.004 2.114 1.159.87 2.456-.502 1.938 3.027-.024.155-.658-.339-.697.197-.253 3.462.96 3.877 1.105 7.637.067 1.746-.165 4.301-.391 6.802-.148 1.727-.293 3.408-.337 4.763-1.94-.045-1.484 3.021-.14 4.334-.045 2.198.041 4.529-.134 6.581-.06.712-.624.248-.684.337-.946 1.424.36 2.363.414 2.833.52 5.02-.444 9.174.548 14.008.036.172 1.385.448.409 1.743-.068.083-.69-1.503-.724.76-.035 2.201-.73 6.591-.084 9.698.156.776 1.263 2.714.42 4.248-.115.205-.504-.016-.717.28-.678.944.688 1.48-.46 2.633-1.15 1.181-2 3.431-1.175 6.684.024.102 1.11.852 1.101 1.845-.015 1.552-.22 3.888-.198 5.535.01.792.677.279.69.417.425 5.383-.136 9.174-.333 14.951-.037 1.027.912 4.095.213 6.112-.764 2.223-4.084.027-3.236 5.124.341 2.107 4.552 4.668 2.442 8.419.641 7.256-.355 13.926.552 21.209.04.33 1.226 1.318 1.225 2.096-.002 1.15-.534 1.783-.554 2.591-.093 3.425.441 6.523.444 9.811.002 1.251-.57.831-.567 2.318.003 1.478.769 2.467.46 4.485-.237 1.533-1.715 3.09-1.841 5.115 1.388.035 1.492 1.236 1.865 3.368q.042.25.091.518c.087.472.596-.048.664.175.288.908-.125 1.762.185 2.624.074.209.585.208.675.379.782 1.452-.318 3.891-.51 4.31-.729 1.605-.05 2.336-.327 3.561-.276 1.224-.684-.59-.839.836-.32 2.955-.172 6.741-.146 9.736.014 1.195.682.368.7.539.213 2.468-.472 4.978.907 6.327-3.484 1.768.364 1.484-.285 5.027-.053.279-1.708.658-1.968-.406s.235-2.692-.168-4.167c-.095-.35-1.682-2.335-1.78-2.607-.771-2.136 1.704-2.48 1.839-2.596 1.45-1.313-.267-3.742-.394-4.386-.581-2.949-.277-5.468-.702-7.935-.275-1.613-1.903-1.74-1.878-3.011.076-3.914 2.002-5.508.65-8.853v.012a10 10 0 0 0-.387-.827c-.44-.843-2.195.048-.875-3.045.083-.193 1.304-2.499.464-3.79-.106-.162-.623-.144-.672-.361-.317-1.46.072-2.424-.163-4.019-.235-1.572-.574-3.483-.439-5.299.08-1.112 1.014-2.509 1.239-3.045.647-1.514-.5-3.038.304-3.988.808-.943 2.102.824 2.588-1.586-1.347-.062-2.731-.239-4.087-.356-.06-5.303.28-10.536.132-15.858-.02-.666-.731.018-.77-.682-.163-2.958.312-5.586.062-8.68-.196-2.39-.997-4.982-1.223-7.522 1.52-1.515.95-5.26 1.06-7.943.038-.954.45-.896.576-1.582.468-2.507-.879-1.322-1.1-2.009-.947-2.991 2.129-3.257 2.017-6.782-.005-.195-1.668-2.461-1.773-2.761-.686-1.975.568-.331.677-1.578.2-2.317.578-3.848.074-6.539-.15-.801-1.188-2.639-.41-4.152.103-.199.646-.094.676-.254.506-2.916-1.199-3.002-1.788-4.626-.59-1.627.567-4.252.903-4.766.867-1.349.382 1.032.469 1.124 1.03.875.84-1.034.917-2.423 1.67-.213 1.555-2.203.072-1.471-.162.084.002 1.188-.072 1.471-1.648-1.212-1.874-3.466-.358-5.87.71-1.13 1.555-.051 1.226-3.503-.148-1.575-1.295-.973-1.617-2.352-.734-3.074.315-7.263.129-10.463-.068-1.182-.692-.026-.76-.836-.182-2.178.28-4.022.028-6.166-.024-.195-.68.284-.692-.384-.102-5.122.3-9.53.29-14.756-.002-1.225-.091-2.927-.176-4.684v-.021c-.084-1.879-.163-3.787-.125-5.17.124-4.623 1.085-10.275.854-14.18-.148-2.547-.808-1.988-1.257-3.078-.87-2.104.692-5.811.933-6.309.008-.016.163 2.164.502 1.001.706-.676-.498-.976-.502-1.001.157-.327.308-4.672.182-5.579-.068-.479-.693-.211-.717-.461-.557-5.931-.713-11.832-.418-17.765.013-.105.711.053.732-.193.313-3.433-.541-5.624-1.047-8.439-.506-2.785-.335-5.109.865-6.797-.15-2.164.382-5.259.705-7.035s-1.038-2.023-1.064-2.179c-.859-4.865-.079-7.664.045-12.664.061-2.356-.133-7.124-.28-9.753-.12-2.068.2-3.311-.002-5.208-.028-.257-.633.002-.657-.076-.723-2.117.757-1.099 1.022-1.536.962-1.581 1.475-2.559 1.024-5.256-.103-.622-2.234-2.432-2.358-3.562-.157-1.469.607-.914.422-2.45-.015-.131-.486-.105-.465-1.051.093-4.355.37-9.251.326-13.881-.004-.632-.753.178-.771-.735-.086-4.284-.055-8.951.297-13.075.09-1.015.613-.378.768-.599.942-1.352-.423-3.265-.45-3.581-.651-7.563.59-13.525.007-21.224-.035-.421-1.498-3.652-.24-5.086.084-.098 1.37-1.518.492-2.771-.055-.078-.717.804-.649-.736.069-1.507-.371-4.096.357-6.246.23-.684 1.514-2.3.493-4.333-.071-.133-2.38-3.269-.785-4.381.263-.18 1.95.008 1.087-2.404-.167-.46-.545.375-.779-.837-.36-1.858.093-4.311-.657-6.579-.132-.396-1.277-2.079-.406-3.424.136-.21.7.191.763-.52.305-3.455-.069-7.084.324-10.568.138-1.235 1.048-.603 1.293-1.889s.482-3.869.067-5.206-1.868.121-1.983-1.88c-.497-8.571.362-17.512.494-26.152.02-1.287-.5-.221-.508-2.116-.033-6.866-.509-19.32.6-25.303.89-4.847 1.557 1.252 1.92-2.45.173-1.783-1.513-3.71-1.565-4.168-.536-4.314.214-7.29-.011-11.124-.047-.791-.732-.016-.764-.689-.117-2.298.191-4.703.137-6.88-.025-.977-.548-.797-.507-1.694.093-2.138.314-4.051.806-6.203.045-.195.694 1.121.72-.504.04-2.628.526-5.873.03-8.862-.15-.887-1.343-.924-.517-2.823.173-.398 1.606.109.37-2.099-.206-.373-1.873-4.073-.794-5.874.284-.463 1.459-1.721 1.275-2.801-.029-.147-.67.44-.733-.456-.206-3.156-.134-6.441-.331-9.64-.054-.854-.72.417-.779-.855-.164-3.511.01-7.789.221-11.229.08-1.282.629-.395.689-.488.974-1.498-.338-2.382-.414-2.878-.456-3.081.164-5.411.004-8.218-.043-.774-.67-.226-.725-.38-.544-1.597.58-.407.704-1.417.354-2.837.308-5.924.23-8.81-.028-1.072-.756.131-.774-.83-.118-5.687-.042-11.518.364-16.919.078-1.017.637-.376.765-.588.895-1.446-.322-3.624-.437-4.139-.528-2.302-.032-3.191-.122-5.208-.448-9.757-.106-21.942.107-31.076.275-12.137.818-21.279.694-32.904-.007-.728-.752.005-.768-.622-.17-7.939.132-16.24-.073-24.19-.016-.655-.722.289-.77-.763-.105-2.198-.064-5.057.164-7.281.11-1.089.714.372.812-.723a60 60 0 0 0 .173-7.822c-.048-1.092-.771.554-.778-.864-.06-9.974-.172-19.522.774-29.474.065-.673 1.532-1.262 1.252-2.683-.406-.108-.885-.102-1.32-.15-.217-14.463.307-28.476.4-42.842.004-.591-.773.429-.77-.714.018-6.974-.19-13.324.588-20.383.076-.683 1.442-.338 1.237-2.336-.038-.353-.217-3.335-.513-4.186-.045-.11-.683.459-.701-.546-.092-5.788.057-11.75.45-17.435.065-.903.743.059.795-.584.363-4.67-.151-9.66.467-14.185.415-3.018 1.59-1.897 2.745-3.474.163-.226.19-2.033.862-2.122 1.69-.239 3.542.631 5.344.274.389-.08-.03-2.461.909-1.052.063.095.374 1.838.692 2.276.22.303.904-.243 1.186.375.28.62-.292 1.303.038 2.35.335 1.05 1.113.577 1.205 2.706M4.989 604.743c.655-1.634-1.738-1.876-1.166-.109.03.086 1.134.193 1.166.109m1.37 198.515c1.017-2.182-.559-3.595-1.348-2.089-.788 1.545 1.04 2.746 1.348 2.089m1.225 22.207c.774-2.521-2.627-2.835-1.88-.175.042.156 1.835.323 1.88.175M6.429 39.367c.032-.023.063-1.31.031-1.338-.76-.685-.821 1.885-.031 1.338M8.933 847.49c.443-.791-.132-3.031-.683-2.048-.443.791.131 3.033.683 2.048M7.596 519.212c.035-.026.068-.975-.133-.956-.65.064-.467 1.385.133.956m1.989 365.754c.047-5.54 2.8-8.939 2.572-2.904-.041 1.093-.928-2.34-1.16-.947-.424 2.551 1.36 4.214.455 6.823-.166.473-1.876-2.657-1.871-2.982zM7.864 603.803c.032-.032.062-1.342.031-1.373-.76-.71-.822 1.928-.031 1.373m1.253-140.054c.068-.074.133-3.119.071-3.217-1.24-1.59-1.377 4.566-.07 3.217m.48 228.791c.77 1.441.867 3.075-.087 4.275.045-1.472.046-2.833.088-4.275m14.322 130.344c-.247-4.695-.076-10.727.19-15.41.081-1.44.512-.715.588-1.713.148-1.949-.077-3.826.103-5.733.061-.64.74.151.789-.521.264-3.713.062-7.169.17-10.941.539-18.419.622-36.555.756-55.196.044-6.128.584-13.645.26-19.975-.039-.741-.624-.294-.674-.435-.764-2.209.433-1.483.578-2.936.572-5.723.568-12.109.291-17.63-.12-2.341-1.27.019-.633-2.348.043-.165.674.425.735-.219.137-1.458 0-4.247.04-5.367.08-2.177.07-2.538.059-4.604-.01-2.84.272-6.165.103-9.204-.038-.647-.672.216-.79-.816-.118-1.031-.088-3.75.056-4.673.143-.921.65-.534.765-.697.964-1.35-.415-4.498-.452-4.899-.633-7.396.083-13.755.023-20.695-.048-5.277-.348-10.916-.354-15.93-.005-5.984.303-11.053.198-16.857-.01-.613-.76.111-.774-.638a403 403 0 0 1-.067-11.508c.04-4.078.16-8.186.397-12.269.047-.794.716.225.802-.569.513-4.869 1.778-12.558-1.12-15.431.095-3.289.193-7.292.762-10.236.367-1.9 1.096-.059.779-2.39-.071-.526-.7.161-.759-.628-.244-3.322-.052-6.949-.389-10.234-.07-.669-.636-.484-.738-.673-.831-1.589.526-4.243.624-4.821.728-4.399.43-7.612.44-11.708.002-.95-.756.175-.781-.74-.118-4.748-.059-9.654.275-14.308.076-1.034.725-.084.794-.578.3-2.177-.925-2.657-.662-4.744.054-.441.61-.193.67-.274.956-1.259-.4-2.351-.43-2.675-.41-4.089 1.006-6.701.808-10.654-.025-.472-.728.592-.756-.735-.188-8.859.019-18.195.602-26.971.09-1.358.614-.387.68-.472 1.019-1.388-.34-2.299-.39-2.745-.36-3.523.792-6.756-.821-9.162.612-14.849-.227-29.606 1.321-44.325.018-.187.686.152.72-.22.406-4.463-.642-3.638-1.895-6.621-.314-.753 1.24-3.012 1.354-3.21.421-.726 1.413.038 1.495-.206.647-2.023-2.653-1.735-2.633-4.482.006-.086.61.279.672.049.195-.714-.04-1.425.174-2.12.496-1.586 2.103-2.152 1.19-4.62-.117-.31-1.992.143-1.883-2.303.045-.958.05-5.312.183-6.519.132-1.207.727-.372.754-.458.827-3.244 1.146-1.986 2.342-3.629 1.191-1.635-1.617-1.205-1.924-1.877-.305-.675.376-3.053.61-3.63.235-.58.61.15.745-.366.881-3.473-1.376-1.544-1.81-2.696-1.025-2.718 1.076-4.744 1.308-7.24.062-.668-.418-.128-.455-.723-.143-2.352.522-3.735-.041-6.442-.092-.444-1.316-2.608-.381-3.984.134-.2.645.377.774-.636.193-1.518.34-4.2.189-5.793-.112-1.206-.984.16-.699-1.348.128-.668.61.579.808-.675.136-.856.188-2.615.208-4.002a116 116 0 0 0 .01-1.609c-.002-1.211-.659-.556-.7-.655-.243-.597-.526-2.91-.522-3.111.053-10.293 1.27-19.825 1.04-29.867-.018-.787-.708-.272-.717-.392-.251-2.691 1.537-.55 2.169-2.415-1.39.258-1.124-.866-1.251-2.77-.062-.917-.606-.425-.66-.51-.797-1.367.268-2.29.487-2.529.804-.894-.12-1.891.418-2.497.533-.605 1.294.813 1.308-1.01-.49-.516-1.804.817-1.996-.566-.727-5.234.416-14.971.575-19.155.16-4.206.085-5.541.295-7.989.379-4.386-.603-2.806-1.01-5.545-.405-2.746 1.945-1.383 2.459-1.771.513-.377-.005-.81.28-1.291.286-.479.619.57.738-.563.119-1.138-.749-4.218-1.276-4.637-1.117-.863-2.316.515-1.864-2.472.026-.172.642.393.713-.264.542-5.232.635-10.651 1.118-15.883.068-.717.753-.068.8-.485.492-4.354-.693-2.811-1.963-5.209 1.72.556 2.79-.756 2.836-4.061.028-1.984-.73-1.653-1.247-2.945-.156-.388.376-1.789.025-2.047-1.15-.853-2.461.463-1.91-2.944.027-.149.656.334.7-.183.285-3.337-.923-3.75-1.034-7.361-.087-2.831.7-7.856.848-11.078 1.94.085 1.522-2.962.195-4.209.073-2.089.016-4.352.217-6.37.069-.694.627-.233.688-.32.963-1.337-.331-2.258-.379-2.71-.458-4.892.557-8.879-.376-13.549-.033-.166-1.38-.443-.387-1.687.067-.079.646 1.402.728-.594l.005-.132c.054-2.16.788-6.356.17-9.376-.148-.746-1.238-2.611-.38-4.105.117-.2.503.02.719-.269.687-.936-.674-1.456.485-2.536 1.16-1.088 2.031-3.365 1.238-6.45-.023-.1-1.101-.837-1.083-1.793.031-1.534.26-3.748.255-5.347-.003-.772-.674-.279-.686-.413-.369-5.187.234-8.903.499-14.45.05-1.042-.862-3.932-.137-5.93.793-2.163 4.083.083 3.303-4.92-.312-1.989-4.486-4.563-2.32-8.157-.532-7.004.578-13.48-.185-20.502-.033-.316-1.198-1.317-1.182-2.063.026-1.101.57-1.702.607-2.488.165-3.308-.3-6.314-.227-9.498.027-1.204.59-.782.622-2.222.03-1.44-.71-2.405-.352-4.349.273-1.468 1.79-2.956 1.967-4.9-1.496-.075-1.465-1.413-1.86-3.806-.076-.46-.596.033-.66-.185-.268-.881.164-1.696-.128-2.534-.07-.204-.58-.213-.667-.38-.752-1.418.397-3.758.597-4.156.76-1.535.096-2.255.395-3.436.299-1.18.673.584.854-.795.376-2.842.294-6.513.317-9.405.007-1.157-.675-.368-.69-.533-.173-2.395.552-4.802-.806-6.13 3.511-1.66-.34-1.438.363-4.854.057-.27 1.717-.612 1.96.421.244 1.034-.275 2.595.105 4.03.09.34 1.645 2.285 1.74 2.55.736 2.076-1.745 2.368-1.882 2.478-1.47 1.25.206 3.625.322 4.25.53 2.856.181 5.294.56 7.683.244 1.568 1.87 1.721 1.82 2.95-.165 4.08-2.433 5.51-.467 9.362.419.825 2.195.008.798 2.962-.088.181-1.366 2.383-.558 3.653.102.16.62.154.663.364.281 1.41-.132 2.339.066 3.881.197 1.542.491 3.37.315 5.13-.105 1.06-1.07 2.413-1.306 2.917-.681 1.418.434 2.96-.39 3.843-.828.89-2.085-.85-2.62 1.484 1.344.087 2.725.286 4.077.425-.049 5.135-.486 10.149-.43 15.306.01.635.733-.014.76.667.114 2.892-.403 5.385-.2 8.394.16 2.3.924 4.864 1.115 7.264-1.54 1.492-1.02 5.056-1.164 7.683-.05.913-.46.851-.595 1.497-.498 2.446.863 1.306 1.076 1.978.91 2.891-2.168 3.122-2.096 6.529.003.179 1.641 2.373 1.743 2.685.664 1.934-.572.321-.695 1.527-.224 2.174-.618 3.75-.141 6.301.14.763 1.16 2.582.367 4.026-.104.191-.646.085-.678.238-.534 2.827 1.17 2.886 1.744 4.483.574 1.635-.608 4.055-.948 4.584-.88 1.33-.372-1.03-.458-1.085-1.023-.836-.85.965-.94 2.353-1.671.2-1.575 2.112-.086 1.423.163-.078.01-1.145.086-1.423 1.637 1.201 1.842 3.35.304 5.661-.72 1.086-1.555.077-1.258 3.39.134 1.494 1.287.936 1.596 2.271.148.639.218 1.311.236 2v.014c.062 2.661-.601 5.642-.485 8.13.053 1.139.69.034.749.813.156 2.064-.33 3.891-.104 5.964.02.188.684-.267.687.379.039 4.898-.42 9.153-.476 14.263-.028 2.469.295 6.885.197 9.442-.165 4.428-1.18 9.879-.987 13.661.123 2.474.788 1.939 1.226 3 .849 2.049-.751 5.649-.998 6.131-.008.014-.14-2.109-.491-.981-.713.65.488.957.491.981-.16.318-.357 4.562-.24 5.404.063.459.69.21.712.449.494 5.68.586 11.375.223 17.127-.013.101-.71-.061-.734.179-.351 3.312.477 5.478.95 8.22.473 2.768.276 4.924-.944 6.545.125 2.092-.443 5.028-.787 6.756-.343 1.7 1.014 1.956 1.039 2.107.8 4.719-.013 7.43-.197 12.283-.09 2.335.047 6.911.163 9.43.094 1.973-.24 3.166-.06 5.01.024.245.633.006.655.081.698 2.033-.77 1.042-1.04 1.456-.98 1.506-1.505 2.453-1.087 5.072.096.598 2.205 2.373 2.315 3.477.14 1.433-.618.889-.452 2.388.013.127.485.105.453 1.022-.146 4.273-.482 8.949-.492 13.388-.003.606.755-.161.762.715.029 3.393-.023 6.981-.263 10.426a76 76 0 0 1-.191 2.217c-.102.983-.617.359-.776.571-.958 1.297.383 3.21.405 3.519.56 7.331-.742 12.925-.235 20.442.03.4 1.462 3.537.191 4.939-.084.093-1.384 1.489-.517 2.701.054.076.724-.774.642.721-.082 1.489.336 3.95-.41 6.003-.235.648-1.532 2.173-.527 4.145.07.127 2.355 3.187.751 4.231-.264.173-1.95-.029-1.104 2.312.164.448.547-.361.772.819.347 1.821-.124 4.181.611 6.398.13.387 1.263 2.04.384 3.362-.138.207-.698-.19-.767.507-.326 3.262.026 6.799-.386 10.114-.145 1.186-1.052.572-1.304 1.81-.252 1.235-.502 3.764-.094 5.044.409 1.295 1.869-.11 1.974 1.83.454 8.468-.44 16.827-.598 25.267-.024 1.252.5.215.502 2.063.01 6.791.463 18.568-.653 24.446-.895 4.736-1.555-1.23-1.922 2.392-.176 1.753 1.509 3.628 1.561 4.051.533 4.113-.219 6.974.007 10.672.046.765.731.016.764.667.116 2.227-.191 4.559-.136 6.68.026.953.548.777.508 1.654-.092 2.098-.312 3.958-.802 5.998-.044.186-.694-1.07-.718.481-.037 2.507-.52 5.637-.019 8.519.15.857 1.345.889.522 2.733-.172.387-1.607-.106-.366 2.041.206.364 1.882 3.964.807 5.735-.283.467-1.455 1.661-1.269 2.692.03.14.67-.421.734.433.215 3.013.152 6.164.36 9.259.057.826.718-.406.782.825.175 3.384.018 7.611-.179 10.922-.074 1.22-.626.379-.686.468-.968 1.431.348 2.271.426 2.745.469 2.945-.14 5.192.035 7.909.046.75.67.215.727.365.552 1.545-.578.397-.698 1.377-.34 2.744-.275 5.807-.181 8.582.035 1.019.756-.13.779.785.152 5.414.114 11.038-.252 16.333-.07.995-.634.373-.76.581-.885 1.435.348 3.517.467 3.999.546 2.193.057 3.048.163 4.983.065 1.159.118 2.352.162 3.567.311 8.71.116 18.666.001 26.497-.166 11.639-.623 20.67-.39 31.767.014.704.752-.012.774.594.246 7.861.023 15.575.307 23.445.022.643.72-.29.778.742.126 2.123.112 4.827-.094 6.97-.1 1.046-.717-.351-.804.702a57 57 0 0 0-.096 7.614c.059 1.07.766-.551.787.839.157 9.51.366 18.847-.48 28.462-.058.658-1.519 1.25-1.225 2.641.408.101.887.091 1.322.132.362 13.857-.02 27.521.03 41.426.002.585.77-.432.778.699.048 6.563.322 12.906-.39 19.637-.069.664-1.438.341-1.214 2.285.04.323.25 3.319.553 4.07.046.103.679-.44.706.51.146 5.522.052 11.332-.29 16.852-.056.895-.743-.052-.79.586-.322 4.457.237 9.403-.344 13.7-.392 2.856-1.575 1.833-2.718 3.372-.161.222-.173 1.999-.845 2.093-1.689.249-3.547-.593-5.346-.227-.388.081.05 2.429-.9 1.045-.064-.095-.389-1.808-.71-2.235-.223-.295-.902.246-1.189-.358-.286-.605.282-1.278-.058-2.295-.343-.994-1.117-.541-1.226-2.536m10.254-549.113c-.673 1.574 1.716 1.84 1.166.119-.03-.083-1.133-.201-1.166-.119m.92-191.773c-1.057 2.055.494 3.497 1.31 2.025.815-1.464-.99-2.653-1.31-2.025M34.33 60.51c-.833 2.415 2.56 2.794 1.875.21-.04-.151-1.827-.351-1.875-.21m-.524 759.782c-.031.023-.052 1.316-.02 1.345.766.682.806-1.902.02-1.345m-.312-781.106c-.459.75.07 2.936.642 1.994.459-.761-.07-2.934-.642-1.994m-2.936 317.209c-.036.024-.078.948.124.932.65-.057.48-1.343-.124-.932M33.457 2.947c-.128 5.351-2.93 8.604-2.614 2.768.057-1.056.894 2.278 1.146.933.46-2.46-1.3-4.09-.356-6.602.172-.454 1.838 2.596 1.828 2.91zM31.29 274.645c-.032.031-.079 1.305-.048 1.337.75.7.845-1.867.048-1.337m-2.668 135.366c-.068.077-.15 3.023-.088 3.117 1.233 1.546 1.4-4.415.088-3.117m1.893-221.029c-.752-1.394-.827-3.054.142-4.153-.063 1.379-.083 2.767-.142 4.153M66.758 17.6c.204 4.77-.027 10.992-.34 15.745-.098 1.463-.52.72-.607 1.743-.168 2.026.037 3.944-.163 5.86-.068.65-.739-.161-.795.522-.304 3.879-.139 7.256-.29 11.217-.74 18.658-1.03 37.502-1.372 56.408-.112 6.177-.736 13.93-.481 20.389.03.769.62.312.669.458.74 2.305-.45 1.537-.61 3.056-.635 5.835-.7 12.232-.483 18.069.094 2.325 1.27-.009.608 2.341-.044.164-.67-.432-.737.211-.153 1.454-.046 4.259-.098 5.422-.102 2.237-.096 2.611-.107 4.762-.02 3.025-.337 6.324-.2 9.375.03.652.674-.211.781.83.108 1.04.049 3.827-.104 4.78-.153.949-.657.544-.773.712-.978 1.377.369 4.687.401 5.12.558 7.478-.222 13.83-.231 21.213-.005 5.205.24 10.933.198 16.165-.053 6.443-.408 11.147-.357 17.18.005.629.76-.108.768.661.076 8.351-.017 16.167-.538 24.311-.053.818-.714-.237-.806.58-.552 5.047-1.87 12.992 1.01 15.819-.116 3.309-.238 7.387-.823 10.43-.377 1.963-1.096.052-.791 2.472.067.546.7-.164.755.657.227 3.469.016 7.27.339 10.497.067.67.634.488.735.678.824 1.594-.544 4.27-.644 4.857-.746 4.462-.459 7.768-.482 12.032-.005.991.757-.179.779.775.102 5.09.031 9.818-.312 14.556-.078 1.046-.725.083-.795.583-.303 2.208.92 2.702.653 4.837-.054.451-.609.196-.67.278-.958 1.286.396 2.413.425 2.746.404 4.216-1.014 6.939-.818 11.097.025.49.728-.597.755.751.184 8.787-.02 18.333-.59 27.507-.089 1.427-.615.407-.68.497-1.017 1.463.343 2.417.393 2.884.366 3.483-.78 6.766.84 9.173-.58 15.083.316 30.334-1.151 45.288-.017.193-.687-.153-.718.231-.381 4.635.661 3.749 1.933 6.839.319.779-1.222 3.157-1.335 3.369-.416.768-1.412-.03-1.493.227-.634 2.108 2.664 1.868 2.663 4.603-.006.085-.613-.274-.673-.045-.19.713.05 1.422-.16 2.123-.485 1.604-2.087 2.173-1.157 4.638.12.314 1.992-.165 1.9 2.31-.037.984-.009 5.376-.131 6.618-.123 1.236-.724.387-.75.475-.8 3.336-1.13 2.071-2.312 3.747-1.177 1.678 1.627 1.216 1.94 1.902.311.687-.349 3.157-.578 3.767-.23.608-.611-.151-.741.39-.85 3.594 1.39 1.579 1.834 2.766 1.051 2.796-1.03 5.014-1.236 7.567-.056.663.418.122.462.714.167 2.345-.483 3.759.11 6.449.096.439 1.344 2.619.425 4.035-.132.201-.65-.37-.767.644-.175 1.514-.29 4.256-.12 5.9.128 1.214.983-.177.716 1.352-.119.679-.617-.581-.799.696-.182 1.269-.163 4.533-.146 5.782.016 1.245.664.564.708.665.25.608.56 3.006.559 3.219.07 10.975-1.03 20.111-.677 30.479.026.807.71.27.721.393.284 2.766-1.53.583-2.14 2.517 1.387-.278 1.135.863 1.285 2.823.074.944.61.43.666.516.814 1.403-.24 2.381-.456 2.633-.792.93.143 1.947-.387 2.582-.526.635-1.304-.829-1.296 1.066.496.532 1.793-.875 2.002.565.79 5.585-.234 15.273-.343 19.54-.109 4.242-.019 5.625-.2 8.117-.328 4.51.636 2.858 1.074 5.67.438 2.827-1.928 1.452-2.437 1.858-.509.399.014.835-.266 1.333-.28.495-.625-.579-.73.588-.106 1.166.796 4.371 1.328 4.789 1.126.882 2.31-.568 1.893 2.546-.025.179-.647-.403-.71.283-.484 5.552-.518 10.928-.945 16.205-.06.725-.752.076-.795.498-.446 4.401.723 2.83 2.018 5.251-1.725-.544-2.782.79-2.795 4.16-.008 2.028.746 1.68 1.276 2.995.16.394-.358 1.834-.004 2.096 1.158.864 2.456-.498 1.937 3.005-.025.154-.658-.336-.697.195-.254 3.441.958 3.854 1.102 7.596.1 2.608-.475 7.043-.69 10.379q-.043.63-.063 1.192c-1.94-.067-1.5 3.093-.163 4.344-.057 2.137.016 4.365-.172 6.505-.064.72-.625.246-.686.337-.954 1.39.347 2.317.397 2.776.49 4.858-.503 9.11.454 13.841.034.171 1.382.457.396 1.741-.068.082-.679-1.502-.73.753-.05 2.207-.78 6.501-.162 9.591.15.741 1.24 2.623.382 4.2-.116.206-.502-.021-.718.277-.687.96.674 1.484-.486 2.591-1.16 1.076-2.03 3.455-1.239 6.596.023.099 1.101.842 1.082 1.807-.032 1.56-.262 3.885-.259 5.491.002.775.674.28.686.415.362 5.353-.245 9.093-.522 14.79-.053 1.056.852 4.012.122 6.059-.799 2.211-4.082-.145-3.317 5.018.306 1.987 4.472 4.63 2.291 8.357.503 7.086-.641 13.79.065 20.953.031.339 1.188 1.332 1.165 2.107-.036 1.159-.586 1.71-.63 2.551-.198 3.375.232 6.451.115 9.705-.043 1.226-.6.799-.652 2.263-.035.99.281 1.758.376 2.76a5.8 5.8 0 0 1-.088 1.691c-.295 1.502-1.832 2.985-2.038 4.982 1.495.098 1.444 1.471 1.804 3.917.07.469.598-.025.658.197.256.905-.187 1.735.093 2.598.067.21.577.228.661.398.732 1.46-.449 3.831-.654 4.24-.78 1.562-.126 2.303-.441 3.509-.315 1.198-.665-.601-.865.797-.413 2.914-.377 6.656-.435 9.622-.02 1.181.67.383.684.553.144 2.445-.608 4.909.735 6.275-3.53 1.664.324 1.479-.416 4.964-.06.278-1.724.612-1.956-.454-.233-1.057.303-2.652-.06-4.125-.086-.348-1.62-2.354-1.71-2.625-.714-2.136 1.771-2.403 1.909-2.514 1.485-1.269-.163-3.7-.27-4.352-.496-2.934-.116-5.414-.463-7.866-.224-1.61-1.847-1.783-1.78-3.041.22-4.18 2.508-5.605.597-9.571-.407-.85-2.195-.037-.755-3.043.09-.188 1.4-2.417.611-3.726-.1-.165-.617-.167-.657-.382-.143-.791-.08-1.435-.022-2.114.048-.56.092-1.148.012-1.856-.175-1.575-.443-3.456-.244-5.238.119-1.083 1.1-2.467 1.342-2.959.697-1.456-.402-3.043.431-3.915.837-.903 2.077.909 2.635-1.505-1.344-.098-2.722-.309-4.074-.462.097-5.262.567-10.344.538-15.646-.005-.631-.732.012-.756-.669-.098-2.934.43-5.579.239-8.559-.15-2.443-.906-4.978-1.09-7.441 1.546-1.505 1.037-5.135 1.186-7.865.052-.954.463-.858.599-1.516.504-2.477-.86-1.325-1.072-2.011-.904-3.047 2.175-3.139 2.109-6.684-.003-.212-1.638-2.436-1.739-2.739-.661-1.955.572-.318.697-1.549.227-2.292.623-3.814.148-6.455-.14-.756-1.159-2.707-.364-4.128.104-.193.646-.085.678-.241.536-2.835-1.169-2.935-1.742-4.607-.574-1.644.607-4.111.948-4.644.88-1.353.372 1.038.458 1.106 1.023.853.85-.974.94-2.409 1.67-.2 1.574-2.223.085-1.493-.162.085-.009 1.207-.086 1.493-1.637-1.299-1.843-3.39-.306-5.784.72-1.13 1.555-.034 1.255-3.513-.136-1.529-1.288-.931-1.6-2.276-.71-3.072.37-7.202.205-10.356-.06-1.168-.691-.031-.753-.83-.168-2.133.307-4.04.067-6.107-.022-.191-.682.274-.69-.38-.07-5.041.358-9.298.375-14.616q.001-.504-.013-1.103c-.065-2.654-.33-6.441-.265-8.752.127-4.607 1.09-10.222.86-14.094-.148-2.525-.808-1.971-1.257-3.051-.869-2.085.694-5.751.936-6.242.008-.015.162 2.139.5.99.707-.668-.497-.966-.5-.99.156-.326.309-4.614.183-5.459-.068-.462-.693-.204-.717-.444a119 119 0 0 1-.413-17.533c.013-.105.712.054.733-.193.313-3.457-.54-5.658-1.046-8.483-.505-2.824-.333-5.05.868-6.707-.15-2.115.383-5.133.706-6.863s-1.037-1.97-1.063-2.122c-.858-4.781-.077-7.301.048-12.437.062-2.428-.131-7.211-.278-9.801-.118-2.05.202-3.28 0-5.157-.028-.254-.633.002-.657-.076-.723-2.093.757-1.086 1.022-1.517.963-1.563 1.476-2.53 1.026-5.19-.103-.614-2.234-2.4-2.358-3.512-.157-1.446.607-.901.423-2.412-.015-.129-.486-.103-.465-1.034.094-4.383.372-8.79.329-13.588-.004-.635-.753.178-.77-.74-.086-4.306-.054-8.982.3-13.101.089-1.014.612-.378.768-.598.941-1.35-.424-3.259-.45-3.573-.65-7.548.592-12.979.01-20.746-.034-.429-1.496-3.709-.238-5.16.083-.1 1.37-1.538.492-2.807-.054-.078-.717.814-.648-.744s-.371-4.057.358-6.177c.23-.671 1.514-2.257.493-4.248-.071-.132-2.38-3.201-.784-4.288.263-.175 1.95.008 1.087-2.347-.167-.449-.544.366-.778-.818-.36-1.813.093-4.203-.656-6.409-.133-.371-1.277-2.052-.406-3.447.136-.216.7.195.763-.534.306-3.467-.068-7.068.326-10.53.138-1.226 1.048-.599 1.294-1.874.245-1.275.482-3.833.067-5.155s-1.868.119-1.983-1.859c-.496-8.517.365-17.062.498-25.853.02-1.289-.5-.222-.508-2.118-.032-7.088-.506-18.526.604-24.935.89-4.914 1.556 1.268 1.92-2.483.174-1.808-1.512-3.752-1.565-4.184-.535-4.227.216-7.131-.01-10.861-.046-.77-.73-.016-.763-.671-.116-2.239.192-4.555.138-6.687-.025-1.004-.548-.82-.506-1.741.093-2.204.314-4.14.806-6.261.045-.193.694 1.111.72-.498.04-2.605.527-5.81.032-8.751-.15-.872-1.344-.91-.517-2.775.173-.391 1.606.107.37-2.06-.206-.367-1.873-3.991-.793-5.747.284-.466 1.459-1.635 1.275-2.745-.029-.147-.67.441-.732-.458-.206-3.167-.133-6.451-.33-9.635-.054-.85-.72.414-.779-.852-.163-3.481.011-7.768.223-11.081.08-1.222.628-.377.688-.466.975-1.427-.338-2.268-.413-2.74-.455-2.957.165-5.423.005-8.221-.042-.779-.67-.228-.725-.383-.544-1.606.58-.409.705-1.423.355-2.84.308-5.972.232-8.781-.029-1.031-.757.127-.774-.798-.119-5.385-.041-11.236.366-16.727.079-1.027.637-.38.765-.594.896-1.474-.32-3.617-.436-4.108-.527-2.232-.031-3.092-.12-5.04-.447-9.452-.102-21.746.113-30.696.279-12.169.824-21.137.704-32.574-.007-.711-.752.004-.768-.608-.167-7.637.138-16.224-.064-23.841-.016-.682-.723.301-.77-.796-.104-2.252-.061-5.058.168-7.259.11-1.074.713.367.812-.713.23-2.512.285-5.159.177-7.65-.048-1.064-.772.549-.778-.851-.054-10.009-.162-19.465.79-29.139.066-.65 1.533-1.207 1.254-2.705-.406-.112-.885-.107-1.32-.157-.208-14.093.328-28.263.435-42.41.004-.59-.775.428-.77-.713.024-6.637-.178-13.238.607-20.037.077-.682 1.443-.243 1.24-2.317-.037-.379-.213-3.447-.508-4.205-.045-.104-.684.437-.7-.522-.087-5.602.07-11.647.467-17.179.066-.94.744.061.796-.606.368-4.652-.143-9.496.477-14.013.417-2.872 1.59-1.83 2.747-3.408.163-.23.19-2.046.862-2.134 1.69-.238 3.542.633 5.344.276.389-.084-.03-2.457.909-1.052.063.094.374 1.838.692 2.282.22.306.904-.245 1.185.38.281.612-.292 1.362.038 2.348.335 1.006 1.113.546 1.203 2.6M55.211 579.222c.654-1.586-1.738-1.822-1.167-.106.03.083 1.135.188 1.167.106m.02 196.27c1.07-2.131-.474-3.555-1.297-2.105-.824 1.541.973 2.733 1.297 2.105m.554 21.949c.865-2.459-2.522-2.897-1.872-.242.037.157 1.822.388 1.872.242m1.062-777.265c.032-.001.064-1.34.032-1.375-.759-.708-.823 1.946-.032 1.375m-.532 799.081c.47-.765-.03-2.998-.614-2.046-.47.764.03 3.001.614 2.046m1.52-324.521c.036-.015.07-.966-.132-.951-.65.078-.467 1.369.133.951m-1.9 361.589c.179-5.473 3.015-8.766 2.64-2.809-.067 1.076-.87-2.326-1.137-.96-.484 2.511 1.26 4.189.293 6.757-.177.455-1.813-2.662-1.8-2.998zm2.15-278.015c.032-.031.063-1.303.032-1.333-.76-.69-.822 1.872-.031 1.333m1.282-138.66c.067-.073.133-3.087.071-3.183-1.24-1.573-1.377 4.518-.071 3.183m.404 226.4c.763 1.451.85 3.16-.11 4.285.053-1.406.062-2.837.11-4.285"/></svg>