<svg xmlns="http://www.w3.org/2000/svg" width="109" height="67" fill="none" viewBox="0 0 109 67"><path fill="#896c68" d="M92.918 16.337c-2.055.208-4.911-.018-6.942-.327-.657-.096-.323-.52-.78-.604-.889-.167-1.771.04-2.605-.158-.285-.067.071-.738-.228-.794-1.619-.3-3.315-.131-4.942-.277-8.31-.72-16.506-.993-24.935-1.322-2.817-.108-6.132-.726-9.043-.468-.34.031-.139.621-.203.67-1.018.74-.68-.449-1.342-.609-2.52-.631-5.465-.694-7.954-.473-1.046.096 0 1.27-1.053.61-.073-.045.195-.67-.093-.738-.652-.152-1.902-.044-2.416-.095-.99-.101-1.155-.096-2.101-.105-1.328-.02-2.763-.335-4.139-.197-.29.032.093.675-.372.783s-1.701.05-2.12-.103-.24-.657-.314-.773c-.603-.977-2.077.37-2.24.403-3.268.56-6.236-.217-9.336-.224-2.351-.003-4.924.244-7.222.203-2.656-.052-4.943-.406-7.605-.353-.28.005.047.76-.297.768-3.563.078-7.146-.014-10.74-.533-.355-.053.103-.714-.25-.806-2.161-.55-5.644-1.867-6.976 1.014-1.536-.117-3.272-.238-4.605-.822-.854-.377-.021-1.097-1.073-.791-.238.068.07.7-.287.755-1.5.228-3.151.018-4.66.34-.306.068-.224.635-.311.736-.72.825-1.892-.544-2.153-.644-1.967-.744-3.418-.457-5.282-.48-.433-.005.077.757-.34.78-2.187.103-4.362.033-6.455-.31-.466-.078-.036-.725-.258-.796-.981-.302-1.203.921-2.149.655-.2-.055-.085-.61-.122-.67-.568-.958-1.068.396-1.215.425-1.866.405-3.061-1.013-4.818-.816-.212.025.264.728-.332.755-3.95.185-8.295-.018-12.179-.588-.613-.087-.174-.614-.212-.679-.627-1.017-1.039.343-1.24.394-1.582.366-3.07-.779-4.16.84-6.664-.576-13.408.32-20.01-1.144-.086-.017.068-.687-.101-.718-2.04-.38-1.65.663-3.009 1.934-.342.32-1.382-1.22-1.474-1.334-.336-.416.015-1.412-.098-1.493-.913-.633-.766 2.665-1.995 2.664-.039-.006.124-.613.021-.673-.321-.19-.639.05-.953-.16-.719-.484-.973-2.087-2.078-1.156-.14.12.071 1.992-1.036 1.901-.441-.037-2.402-.009-2.955-.13-.551-.123-.171-.725-.21-.751-1.485-.8-.921-1.13-1.666-2.31-.745-1.178-.543 1.627-.848 1.94-.316.311-1.375-.348-1.64-.578-.262-.229.066-.611-.167-.741-1.55-.848-.683 1.39-1.195 1.835-1.209 1.052-2.15-1.03-3.262-1.235-.301-.055-.056.419-.324.462-1.063.168-1.703-.482-2.92.111-.199.097-1.185 1.345-1.823.427-.091-.133.167-.65-.29-.767-.689-.175-1.905-.29-2.622-.118-.532.127.077.982-.592.715-.298-.118.255-.617-.305-.799-.555-.181-1.982-.162-2.527-.145-.544.017-.248.665-.291.708-.266.25-1.312.56-1.405.56-4.693.072-8.968-1.026-13.504-.67-.357.027-.12.71-.175.721-1.223.285-.256-1.53-1.11-2.14.122 1.387-.382 1.136-1.247 1.286-.417.074-.191.611-.229.666-.619.814-1.05-.239-1.16-.454-.41-.793-.858.142-1.137-.388-.279-.526.366-1.304-.468-1.295-.235.496.383 1.793-.251 2.002-2.329.792-6.718-.23-8.627-.338-1.902-.108-2.52-.017-3.635-.198-2.02-.326-1.268.637-2.501 1.076-1.23.439-.63-1.928-.806-2.437-.173-.508-.364.015-.58-.265s.252-.625-.255-.73c-.507-.106-1.9.797-2.081 1.33-.383 1.126.244 2.31-1.106 1.893-.077-.025.176-.647-.122-.71-2.363-.482-4.834-.514-7.225-.94-.328-.06-.034-.752-.225-.794-1.948-.445-1.253.723-2.324 2.019.242-1.726-.348-2.782-1.835-2.794-.895-.007-.742.747-1.321 1.277-.174.16-.809-.358-.924-.003-.381 1.158.217 2.456-1.324 1.938-.068-.025.148-.659-.086-.697-1.513-.253-1.695.959-3.338 1.104-.756.067-1.859-.16-2.941-.384h.02c-.77-.15-1.517-.3-2.117-.343.005-1.94-1.33-1.484-1.895-.14-.96-.045-1.977.04-2.875-.135-.314-.06-.114-.623-.154-.683-.631-.946-1.029.36-1.234.413-2.187.521-4.011-.443-6.114.549-.074.036-.18 1.385-.756.408-.037-.067.648-.69-.34-.724-.961-.034-2.887-.729-4.238-.083-.337.155-1.169 1.263-1.849.419-.091-.115 0-.503-.132-.716-.421-.678-.639.688-1.158-.46-.531-1.15-1.527-2-2.938-1.174-.044.024-.355 1.11-.789 1.1-.678-.015-1.704-.22-2.422-.198-.346.01-.111.677-.171.69-2.346.425-4.009-.136-6.539-.332-.45-.038-1.771.91-2.667.212-.99-.764-.103-4.083-2.316-3.234-.918.34-1.93 4.55-3.624 2.44-3.157.642-6.105-.353-9.262.553-.143.04-.531 1.225-.872 1.224-.502-.003-.799-.534-1.153-.553-1.502-.093-2.836.44-4.272.443-.548.003-.389-.57-1.039-.567-.647.004-1.045.768-1.942.46-.681-.236-1.43-1.712-2.323-1.838.048 1.38-.468 1.49-1.377 1.858l-.233.095c-.203.087.045.596-.05.664-.386.287-.777-.126-1.141.184-.089.074-.069.585-.141.674-.606.782-1.716-.317-1.906-.51-.729-.727-1.024-.05-1.57-.325-.545-.276.234-.684-.394-.839-1.303-.32-2.952-.172-4.26-.146-.522.014-.141.681-.215.7-1.073.213-2.19-.472-2.74.906-.873-3.482-.638.364-2.206-.285-.124-.053-.335-1.707.122-1.966.458-.26 1.183.234 1.816-.169.15-.094.971-1.68 1.087-1.78.908-.77 1.133 1.705 1.188 1.84.617 1.448 1.626-.268 1.903-.395 1.269-.58 2.378-.276 3.44-.7.695-.275.693-1.902 1.247-1.877 1.709.077 2.479 2.01 3.889.641l-.027.002q.162-.158.334-.377c.349-.44-.124-2.193 1.294-.875.089.083 1.156 1.302 1.684.463.066-.105.035-.622.128-.671.627-.317 1.067.072 1.758-.163.68-.235 1.506-.573 2.309-.439.492.08 1.145 1.013 1.389 1.237.69.647 1.314-.5 1.762.303.444.808-.279 2.1.794 2.586-.024-1.346.002-2.729.002-4.083 2.33-.06 4.64.278 6.972.13.292-.02-.031-.73.277-.77 1.294-.163 2.462.312 3.814.062 1.043-.197 2.162-.998 3.272-1.223.703 1.518 2.331.95 3.51 1.059.419.037.402.45.705.575 1.111.468.562-.878.859-1.1 1.292-.946 1.472 2.129 3.011 2.017.084-.005 1.049-1.668 1.178-1.773.853-.685.155.568.703.677 1.017.2 1.696.578 2.865.074.348-.15 1.139-1.188 1.813-.41.089.102.051.646.121.676 1.283.506 1.298-1.199 2-1.789.705-.59 1.868.568 2.1.903.603.867-.448.382-.487.47-.369 1.03.466.84 1.074.916.115 1.67.984 1.555.645.073-.039-.162-.52.001-.645-.073.509-1.648 1.491-1.874 2.564-.358.503.711.042 1.555 1.547 1.227.687-.149.409-1.295 1.011-1.617 1.336-.735 3.182.314 4.579.128.516-.068.004-.692.357-.76.951-.182 1.765.28 2.699.028.085-.024-.13-.68.162-.692 2.242-.102 4.17.3 6.458.29.543-.002 1.3-.094 2.078-.18h.048c.812-.083 1.632-.16 2.229-.122 2.021.125 4.49 1.086 6.197.854 1.113-.148.869-.807 1.346-1.256.92-.87 2.539.691 2.756.933.007.008-.945.163-.438.501.295.706.427-.498.438-.501.143.156 2.041.308 2.438.182.209-.069.093-.694.202-.718 2.592-.556 5.171-.712 7.764-.418.046.013-.024.712.083.733 1.501.312 2.459-.542 3.689-1.048 1.218-.506 2.233-.335 2.969.866.947-.15 2.298.382 3.074.704.776.323.885-1.037.954-1.064 2.126-.858 3.349-.078 5.534.046 1.03.06 3.113-.134 4.262-.281.904-.119 1.447.2 2.276-.002.112-.027 0-.633.034-.656.926-.724.479.756.67 1.021.69.963 1.117 1.476 2.296 1.025.272-.104 1.065-2.235 1.559-2.359.642-.157.399.607 1.071.423.057-.015.046-.487.459-.465 1.904.092 4.042.37 6.066.325.276-.004-.077-.752.322-.77 1.872-.086 3.912-.056 5.714.297.443.09.164.612.26.768.59.941 1.428-.424 1.566-.45 3.305-.652 5.91.59 9.275.006.184-.034 1.598-1.497 2.223-.24.043.084.661 1.37 1.21.493.034-.055-.35-.718.323-.65.659.07 1.79-.37 2.728.358.299.23 1.003 1.513 1.893.492.059-.07 1.432-2.38 1.916-.784.079.262-.006 1.95 1.049 1.086.202-.167-.163-.544.367-.778.813-.361 1.884.093 2.876-.657.174-.133.911-1.277 1.497-.407.092.137-.084.7.226.763 1.509.306 3.096-.068 4.618.324.54.138.262 1.049.824 1.294s1.69.482 2.275.067c.585-.416-.05-1.869.824-1.983 3.747-.498 7.652.362 11.428.494.563.02.098-.5.926-.509 3-.033 8.444-.508 11.057.601 2.116.889-.55 1.556 1.067 1.92.78.173 1.623-1.513 1.824-1.566 1.886-.536 3.185.215 4.861-.01.346-.048.008-.732.303-.765 1.004-.116 2.055.192 3.006.138.427-.026.35-.548.742-.507a7.1 7.1 0 0 1 2.709.806c.085.045-.492.693.218.72 1.149.039 2.566.525 3.873.03.388-.15.407-1.344 1.235-.517.173.172-.051 1.606.917.37.163-.206 1.783-1.874 2.568-.795.202.284.749 1.46 1.221 1.276.065-.03-.19-.671.2-.733 1.38-.206 2.816-.134 4.214-.332.374-.054-.18-.719.376-.778 1.534-.164 3.404.01 4.906.22.56.08.172.629.212.689.653.975 1.042-.338 1.259-.414 1.347-.455 2.364.164 3.591.004.339-.042.1-.67.168-.725.699-.544.176.58.617.705 1.24.354 2.59.307 3.85.23.468-.029-.056-.756.364-.774 2.486-.119 5.034-.043 7.393.364.445.078.164.636.256.764.63.895 1.584-.321 1.81-.437 1.006-.527 1.394-.032 2.275-.121 4.266-.449 9.589-.107 13.58.107 5.304.275 9.297.818 14.378.694.318-.007 0-.752.274-.768 3.47-.17 7.096.131 10.57-.074.287-.015-.124-.722.336-.77.96-.105 2.21-.063 3.18.165.476.11-.164.713.315.811 1.113.23 2.296.284 3.418.174.477-.048-.24-.772.38-.778 4.357-.06 8.53-.172 12.876.774.294.065.549 1.531 1.17 1.252.048-.407.047-.885.068-1.32 6.32-.217 12.442.307 18.719.4.258.004-.186-.774.313-.77 3.047.018 5.821-.191 8.904.587.298.076.146 1.442 1.019 1.237.154-.037 1.457-.217 1.83-.513.047-.044-.2-.683.239-.7a40 40 0 0 1 7.615.45c.395.064-.026.743.254.795 2.04.363 4.22-.152 6.196.466 1.317.416.828 1.59 1.516 2.746.099.163.888.189.927.861.104 1.691-.276 3.543-.12 5.345.035.388 1.076-.03.46.908-.042.063-.804.374-.996.692-.132.22.107.904-.164 1.186-.27.281-.57-.292-1.027.039-.46.335-.253 1.113-1.184 1.204M-155.258 4.99c.713.654.821-1.739.048-1.167-.037.03-.085 1.135-.048 1.167m-86.823 1.372c.988 1.016 1.559-.558.873-1.347-.705-.787-1.171 1.039-.873 1.347m-9.688 1.225c1.137.774 1.133-2.624-.003-1.877-.067.042-.063 1.832.003 1.877M91.8 6.429c.01.032.572.063.584.032.3-.76-.823-.822-.585-.032m-353.14 2.505c.362.444 1.319-.131.869-.682-.362-.442-1.319.131-.869.682m143.455-1.338c.011.036.426.069.418-.133-.027-.65-.605-.467-.418.133m-159.813 1.99c2.423.047 3.985 2.798 1.339 2.57-.479-.04.998-.927.382-1.16-1.126-.422-1.805 1.361-2.97.456-.211-.165 1.111-1.875 1.253-1.87zm122.848-1.722c.014.032.586.063.6.031.311-.759-.842-.821-.6-.03m61.2 1.254c.031.067 1.362.133 1.405.07.696-1.24-1.993-1.376-1.406-.07m-99.963.48c-.623.77-1.338.867-1.869-.087.645.044 1.238.046 1.869.087m-57.055 14.324c2.045-.247 4.682-.076 6.732.189.63.082.32.513.758.588.853.148 1.669-.076 2.505.103.281.062-.053.74.241.79 1.627.263 3.133.061 4.783.17 8.057.538 15.986.621 24.136.755 2.679.044 5.974.584 8.735.26.324-.038.118-.624.179-.674.953-.764.656.433 1.293.578 2.511.572 5.303.569 7.711.291 1.022-.12-.029-1.269 1.016-.633.073.043-.174.674.108.735.64.137 1.857 0 2.347.04.953.08 1.111.07 2.013.059 1.242-.01 2.7.272 4.026.103.282-.038-.106-.672.344-.79.448-.118 1.637-.087 2.043.056.405.143.244.65.317.765.606.964 1.96-.415 2.134-.452 3.224-.633 6.015.083 9.048.023 2.306-.048 4.766-.348 6.958-.354 2.616-.005 4.837.303 7.373.198.267-.01-.06-.76.267-.774a77 77 0 0 1 5.034-.067c1.784.04 3.583.16 5.371.397.348.047-.09.716.259.802 2.137.512 5.51 1.778 6.739-1.12 1.44.095 3.193.193 4.485.762.834.367.035 1.096 1.052.778.229-.07-.076-.7.269-.758 1.451-.245 3.039-.052 4.474-.39.292-.07.208-.635.29-.738.691-.83 1.86.527 2.113.625 1.928.727 3.331.429 5.123.44.416.002-.079-.757.321-.782 2.077-.117 4.224-.058 6.26.275.452.077.038.725.254.795.952.299 1.161-.926 2.074-.662.193.054.085.609.12.67.552.956 1.028-.4 1.17-.43 1.788-.41 2.931 1.006 4.659.807.207-.025-.258-.727.322-.755a60.3 60.3 0 0 1 11.794.601c.593.09.166.615.203.68.602 1.02 1.007-.34 1.202-.39 1.543-.359 2.95.793 4.011-.82 6.49.611 12.954-.227 19.373 1.321.082.018-.075.686.088.72 1.946.405 1.598-.642 2.92-1.895.333-.315 1.3 1.24 1.385 1.354.312.42-.035 1.412.07 1.495.875.646.795-2.653 1.997-2.633.037.006-.131.61-.032.672.31.195.624-.04.925.174.687.496.91 2.103 2.003 1.19.137-.118-.032-1.992 1.036-1.883.419.045 2.324.05 2.85.183.525.132.15.727.187.754 1.405.827.85 1.146 1.546 2.341.694 1.191.555-1.616.855-1.923.3-.305 1.328.376 1.577.61.248.235-.077.61.146.745 1.501.88.7-1.376 1.213-1.81 1.209-1.025 2.054 1.076 3.14 1.307.291.063.065-.417.326-.454 1.032-.143 1.622.521 2.819-.041.195-.092 1.17-1.316 1.751-.381.084.134-.18.645.26.774.66.193 1.83.34 2.53.189.53-.112-.046-.984.607-.699.289.128-.268.61.275.808.37.135 1.137.188 1.743.208.284.008.537.01.704.01.53-.003.259-.659.303-.7.267-.243 1.284-.526 1.372-.522 4.499.054 8.636 1.27 13.032 1.04.345-.018.136-.707.189-.717 1.182-.251.203 1.536 1.003 2.168-.079-1.389.406-1.123 1.241-1.25.402-.063.2-.606.239-.66.617-.797.995.268 1.094.486.371.804.83-.119 1.081.419.252.533-.386 1.294.41 1.307.238-.489-.314-1.803.296-1.995 2.305-.726 6.534.416 8.359.575 1.835.16 2.42.084 3.485.294 1.908.38 1.24-.602 2.447-1.008 1.209-.406.56 1.943.717 2.457.154.513.355-.005.558.28s-.263.619.23.738c.495.118 1.86-.749 2.056-1.275.402-1.117-.173-2.316 1.122-1.865.074.027-.186.643.1.713 2.274.543 4.64.636 6.917 1.119.311.067.014.752.195.8 1.893.49 1.243-.694 2.317-1.964-.278 1.72.273 2.79 1.718 2.836.866.028.737-.73 1.312-1.247.172-.156.774.377.894.025.395-1.15-.154-2.46 1.323-1.909.065.026-.158.656.067.7 1.452.285 1.655-.923 3.234-1.034 1.238-.087 3.42.699 4.824.848-.07 1.939 1.27 1.522 1.836.195.911.072 1.9.015 2.779.216.302.07.092.627.13.689.57.962.99-.332 1.189-.38 2.143-.457 3.872.558 5.923-.375.074-.034.21-1.38.742-.388.034.067-.625.65.26.73h-.01l.05.003c.943.054 2.773.788 4.095.171.326-.148 1.146-1.238 1.795-.38.087.116-.01.502.114.718.406.688.64-.674 1.106.486.471 1.16 1.464 2.03 2.815 1.238.044-.023.37-1.102.787-1.083.67.03 1.637.259 2.336.254.337-.002.123-.674.182-.686 2.268-.368 3.89.234 6.313.5.455.05 1.72-.862 2.592-.138.944.794-.043 4.084 2.145 3.303.87-.312 2-4.486 3.568-2.32 3.062-.532 5.89.579 8.96-.184.138-.034.576-1.199.902-1.183.481.026.743.571 1.087.607 1.445.166 2.76-.3 4.15-.227.527.027.342.59.972.622.63.031 1.05-.71 1.9-.352.641.274 1.291 1.79 2.14 1.967.034-1.495.618-1.464 1.665-1.859.2-.076-.015-.597.08-.66.386-.268.741.163 1.108-.129.089-.07.093-.58.166-.667.62-.751 1.642.397 1.816.598.67.76.985.095 1.502.394.515.3-.256.673.347.855 1.242.375 2.846.293 4.11.317.505.006.16-.676.233-.69 1.046-.173 2.098.552 2.679-.806.725 3.51.628-.34 2.121.362.117.057.267 1.717-.184 1.961-.452.244-1.135-.275-1.761.105-.149.089-.999 1.645-1.115 1.739-.907.736-1.035-1.745-1.083-1.881-.546-1.47-1.584.205-1.857.321-1.248.53-2.313.181-3.358.56-.685.245-.752 1.87-1.289 1.82-1.783-.165-2.407-2.432-4.091-.467-.361.42-.005 2.196-1.295.799-.08-.088-1.041-1.367-1.596-.559-.07.102-.068.62-.16.664-.616.28-1.022-.132-1.696.065s-1.473.492-2.243.316c-.463-.106-1.054-1.07-1.274-1.307-.619-.68-1.294.434-1.68-.39-.388-.828.374-2.085-.646-2.62-.039 1.345-.127 2.725-.188 4.078-2.245-.05-4.436-.486-6.69-.43-.278.009.005.732-.292.76-1.265.113-2.354-.404-3.67-.2-1.005.16-2.127.924-3.176 1.114-.651-1.54-2.21-1.02-3.358-1.163-.399-.05-.371-.46-.653-.596-1.069-.498-.573.863-.867 1.077-1.266.91-1.361-2.169-2.85-2.096-.079.002-1.042 1.64-1.178 1.742-.847.664-.14-.571-.666-.694-.95-.225-1.639-.619-2.755-.142-.334.141-1.133 1.161-1.762.368-.083-.104-.035-.646-.102-.679-1.234-.534-1.266 1.17-1.966 1.744-.718.574-1.772-.607-2.002-.947-.579-.88.452-.373.476-.459.37-1.023-.419-.85-1.025-.94-.08-1.671-.917-1.575-.622-.086.033.163.5.01.622.086-.532 1.637-1.474 1.842-2.477.305-.473-.721-.027-1.556-1.477-1.258-.655.134-.416 1.286-1.002 1.596-.278.146-.57.215-.868.235h-.032c-1.168.066-2.468-.602-3.561-.485-.5.053-.024.69-.366.749-.906.155-1.7-.33-2.61-.105-.082.022.108.684-.175.688-2.146.038-4.002-.42-6.238-.477-1.08-.027-3.019.295-4.137.197-1.935-.165-4.302-1.18-5.96-.987-1.086.123-.864.788-1.338 1.226-.913.848-2.457-.751-2.662-.998-.006-.008.925-.14.439-.49-.27-.713-.429.487-.44.49-.135-.16-1.988-.357-2.36-.24-.201.063-.106.69-.21.712-2.497.494-4.99.585-7.5.223-.043-.014.043-.71-.061-.734-1.441-.351-2.407.477-3.618.95-1.222.473-2.16.276-2.84-.944-.918.124-2.19-.443-2.937-.787-.735-.343-.879 1.013-.945 1.038-2.083.8-3.25-.013-5.367-.197-1.019-.09-3.023.048-4.127.164-.865.094-1.378-.24-2.189-.06-.108.023-.018.632-.05.654-.906.698-.438-.77-.613-1.039-.634-.981-1.035-1.505-2.19-1.087-.264.096-1.091 2.204-1.576 2.314-.63.14-.374-.617-1.033-.452-.056.014-.058.485-.458.453-1.864-.146-3.9-.481-5.84-.492-.265-.003.053.755-.33.762-1.485.029-3.052-.023-4.553-.263h-.02q-.483-.082-.954-.191c-.425-.102-.14-.617-.229-.776-.54-.958-1.408.383-1.543.405-3.205.561-5.613-.742-8.9-.234-.176.03-1.57 1.462-2.157.191-.038-.084-.623-1.384-1.168-.517-.034.054.325.725-.325.642-.648-.082-1.728.336-2.61-.41-.278-.235-.921-1.531-1.798-.526-.057.07-1.427 2.354-1.857.75-.071-.263.044-1.95-.99-1.104-.198.164.148.547-.37.773-.799.347-1.821-.124-2.798.61-.17.13-.907 1.264-1.471.384-.088-.137.093-.698-.21-.766-1.418-.327-2.965.026-4.405-.386-.516-.145-.237-1.051-.775-1.304-.535-.252-1.636-.502-2.199-.094-.57.409.027 1.869-.82 1.974-3.697.454-7.332-.439-11.013-.598-.546-.024-.097.5-.903.502-2.962.011-8.099.463-10.657-.653-2.063-.894.543-1.554-1.036-1.922-.765-.175-1.589 1.51-1.773 1.562-1.796.532-3.042-.22-4.656.006-.333.047-.008.732-.292.764-.971.116-1.988-.19-2.913-.136-.415.026-.339.549-.721.508a6.5 6.5 0 0 1-2.615-.801c-.082-.045.466-.695-.21-.719-1.094-.037-2.46-.52-3.716-.018-.374.15-.386 1.344-1.192.521-.169-.172.044-1.606-.891-.365-.158.206-1.724 1.88-2.499.806-.205-.282-.728-1.454-1.178-1.268-.061.03.186.67-.187.734-1.313.214-2.687.152-4.036.36-.36.057.18.718-.357.781-1.474.176-3.317.019-4.762-.179-.533-.074-.169-.626-.208-.686-.63-.968-.988.348-1.194.427-1.281.468-2.265-.14-3.449.034-.326.046-.088.67-.153.727-.669.552-.177-.578-.606-.697-1.199-.34-2.534-.276-3.743-.182-.444.035.064.756-.335.78-2.358.151-4.809.113-7.121-.254-.435-.07-.17-.633-.262-.76-.637-.884-1.53.349-1.738.468-.949.545-1.328.057-2.17.163q-.756.097-1.549.161c-3.801.312-8.154.116-11.577.002-5.087-.166-9.04-.623-13.885-.39-.307.014.018.752-.247.773-3.43.247-6.804.023-10.238.308-.281.022.139.718-.311.778-.926.126-2.107.111-3.047-.095-.459-.099.141-.717-.32-.804a10.9 10.9 0 0 0-3.329-.096c-.466.06.254.766-.354.787-4.152.157-8.228.366-12.445-.48-.289-.058-.572-1.518-1.175-1.224-.037.408-.024.886-.035 1.321-6.05.362-12.028-.02-18.106.03-.255.002.202.77-.292.778-2.868.049-5.636.322-8.591-.389-.292-.07-.173-1.439-1.019-1.215-.141.041-1.448.25-1.771.554-.044.045.204.678-.211.705a37.3 37.3 0 0 1-7.374-.29c-.392-.056.011-.743-.269-.789-1.954-.322-4.109.236-5.997-.345-1.255-.391-.826-1.574-1.516-2.717-.099-.161-.876-.173-.927-.844-.134-1.689.206-3.547.019-5.346-.041-.388-1.06.05-.469-.9.04-.064.783-.389.965-.71.125-.223-.121-.902.138-1.189.26-.286.563.282 1.001-.057.429-.343.22-1.118 1.089-1.226m239.977 10.252c-.673-.674-.846 1.715-.08 1.165.037-.03.114-1.132.08-1.166m83.858.92c-.897-1.057-1.529.494-.886 1.31.64.815 1.16-.99.886-1.31m9.392-.764c-1.055-.833-1.223 2.56-.093 1.875.066-.039.154-1.827.093-1.875m-331.942-.524c-.011-.031-.576-.051-.589-.02-.286.766.844.806.589.02m341.26-.312c-.327-.459-1.283.071-.87.642.332.46 1.281-.07.87-.642m-138.6-2.935c-.01-.036-.413-.078-.41.123.012.65.577.48.41-.123m154.437 2.898c-2.338-.128-3.76-2.93-1.21-2.615.462.058-.995.894-.407 1.147 1.075.46 1.787-1.3 2.885-.357.198.173-1.135 1.838-1.272 1.829zM-11.007 31.29c-.013-.032-.568-.078-.583-.047-.324.75.796.844.583.047m-59.124-2.668c-.033-.068-1.32-.149-1.362-.087-.69 1.232 1.914 1.4 1.362.087m96.577 1.894c.622-.752 1.348-.827 1.812.141-.601-.062-1.207-.082-1.812-.141m74.852 36.242c-2.09.205-4.813-.026-6.89-.34-.64-.097-.314-.52-.76-.606-.886-.168-1.725.036-2.563-.164-.284-.068.073-.738-.225-.794-1.695-.304-3.172-.14-4.902-.29-8.151-.74-16.383-1.03-24.643-1.372-2.698-.113-6.084-.737-8.907-.482-.336.03-.138.621-.202.67-1.01.74-.67-.45-1.333-.61-2.547-.636-5.342-.701-7.893-.484-1.016.095 0 1.27-1.025.609-.072-.045.19-.67-.09-.738-.635-.153-1.86-.046-2.369-.097-.977-.103-1.14-.097-2.08-.108-1.322-.02-2.762-.337-4.095-.2-.285.031.09.674-.366.782-.454.107-1.672.048-2.088-.105-.414-.153-.236-.656-.309-.772-.599-.978-2.049.368-2.238.4-3.268.558-6.042-.222-9.268-.23-2.274-.005-4.777.24-7.064.198-2.815-.054-4.869-.408-7.505-.357-.275.004.045.76-.291.767-3.65.076-7.064-.017-10.621-.537-.357-.053.106-.714-.251-.807-2.204-.551-5.672-1.87-6.915 1.011-1.445-.117-3.227-.238-4.555-.824-.857-.377-.02-1.096-1.078-.79-.24.067.07.7-.289.754-1.516.227-3.177.017-4.588.34-.292.066-.214.633-.297.735-.699.824-1.865-.545-2.121-.645-1.948-.745-3.393-.458-5.256-.481-.433-.006.076.756-.34.778-2.225.103-4.29.032-6.36-.311-.457-.078-.035-.725-.253-.796-.964-.303-1.182.92-2.115.654-.197-.055-.084-.61-.12-.67-.56-.958-1.055.395-1.2.425-1.844.404-3.03-1.014-4.848-.818-.214.024.259.728-.33.755-3.84.184-8.01-.02-12.017-.591-.623-.088-.177-.614-.216-.68-.637-1.017-1.057.343-1.261.394-1.522.365-2.955-.78-4.01.839-6.59-.579-13.254.316-19.786-1.15-.084-.018.068-.688-.1-.719-2.024-.38-1.639.662-2.992 1.933-.34.32-1.377-1.221-1.47-1.334-.334-.416.017-1.413-.096-1.494-.92-.633-.82 2.665-2.015 2.663-.038-.006.12-.612.02-.673-.31-.19-.621.05-.927-.16-.7-.484-.946-2.087-2.025-1.157-.137.121.07 1.992-1.012 1.901-.43-.037-2.35-.01-2.892-.132-.54-.122-.167-.724-.206-.75-1.456-.8-.903-1.13-1.633-2.311-.732-1.178-.534 1.627-.835 1.94-.3.31-1.379-.35-1.645-.578-.265-.23.067-.612-.169-.742-1.569-.849-.692 1.39-1.212 1.835-1.223 1.05-2.189-1.03-3.303-1.237-.29-.056-.055.419-.313.462-1.025.168-1.642-.483-2.818.11-.193.096-1.147 1.345-1.764.426-.088-.133.162-.65-.281-.767-.661-.176-1.859-.291-2.578-.12-.53.127.076.983-.591.716-.297-.119.255-.617-.303-.8-.555-.181-1.981-.162-2.527-.146-.544.017-.247.665-.291.708-.266.25-1.314.56-1.408.56-4.796.069-8.785-1.03-13.316-.678-.353.027-.119.71-.173.722-1.209.283-.252-1.53-1.097-2.14.12 1.386-.378 1.134-1.235 1.285-.413.073-.189.61-.227.665-.614.814-1.04-.24-1.149-.455-.406-.793-.851.142-1.128-.388-.277-.526.364-1.304-.464-1.296-.233.496.38 1.794-.25 2.003-2.442.79-6.672-.235-8.537-.344-1.853-.109-2.458-.018-3.546-.2-1.971-.327-1.25.636-2.48 1.075-1.236.438-.631-1.928-.808-2.437-.174-.51-.365.014-.582-.266s.254-.625-.256-.731c-.509-.106-1.911.797-2.095 1.328-.386 1.127.245 2.311-1.115 1.893-.078-.025.177-.647-.122-.71-2.426-.483-4.774-.517-7.08-.945-.316-.06-.032-.751-.216-.794-1.923-.446-1.238.722-2.297 2.017.24-1.725-.342-2.782-1.814-2.794-.886-.009-.735.745-1.311 1.276-.172.16-.801-.359-.916-.005-.379 1.158.215 2.457-1.315 1.938-.068-.025.148-.659-.085-.698-1.503-.254-1.685.958-3.32 1.102-1.138.1-3.069-.472-4.525-.689a9 9 0 0 0-.532-.063c.034-1.94-1.348-1.5-1.897-.164-.934-.057-1.908.016-2.842-.172-.315-.063-.107-.625-.146-.685-.605-.954-1.013.346-1.214.396-2.125.49-3.979-.502-6.05.454-.075.035-.204 1.382-.762.396-.036-.068.658-.678-.327-.73-.964-.05-2.839-.78-4.191-.161-.324.149-1.151 1.24-1.836.382-.09-.117.01-.503-.119-.719-.417-.687-.651.674-1.13-.485-.466-1.16-1.503-2.031-2.878-1.24-.043.024-.372 1.102-.793 1.082-.683-.031-1.697-.261-2.399-.258-.338.002-.125.673-.184.685-2.342.363-3.973-.245-6.461-.522-.46-.052-1.759.853-2.648.123-.96-.8.089-4.082-2.17-3.318-.868.306-2.055 4.472-3.667 2.291-3.1.504-6.016-.64-9.153.065-.149.032-.6 1.188-.94 1.166-.506-.037-.738-.587-1.104-.63-1.471-.198-2.826.231-4.246.114-.536-.043-.334-.6-.973-.652-.429-.035-.772.278-1.209.374a1.14 1.14 0 0 1-.744-.086c-.649-.294-1.256-1.831-2.124-2.036-.082 1.493-.682 1.443-1.76 1.803-.207.07-.005.597-.103.657-.403.255-.754-.187-1.138.093-.093.067-.114.577-.191.66-.656.733-1.662-.448-1.836-.653-.663-.78-1.003-.126-1.523-.44-.515-.315.279-.666-.327-.866-1.264-.413-2.901-.376-4.197-.434-.516-.02-.182.67-.257.683-1.071.145-2.133-.608-2.757.735-.656-3.529-.653.324-2.161-.415-.12-.06-.234-1.724.236-1.956.467-.233 1.154.303 1.806-.06.153-.086 1.063-1.62 1.184-1.71.95-.713 1.014 1.771 1.059 1.909.524 1.484 1.622-.163 1.91-.27 1.295-.496 2.372-.116 3.453-.462.709-.224.825-1.847 1.374-1.78 1.826.22 2.39 2.507 4.175.597.383-.407.074-2.194 1.351-.755.081.09 1.021 1.4 1.614.611.075-.1.089-.617.185-.657.352-.144.634-.078.931-.02.242.047.495.09.803.01.692-.174 1.515-.442 2.283-.244.467.119 1.043 1.1 1.253 1.341.618.697 1.329-.401 1.692.431.378.837-.436 2.076.608 2.635.067-1.344.183-2.723.273-4.074 2.281.097 4.487.567 6.799.538.274-.005.002-.732.299-.756 1.278-.099 2.426.43 3.728.238 1.066-.15 2.177-.905 3.253-1.089.644 1.545 2.233 1.036 3.423 1.186.417.051.371.462.658.599 1.078.503.583-.86.883-1.072 1.334-.904 1.359 2.174 2.907 2.108.092-.002 1.073-1.637 1.205-1.738.856-.662.136.572.672.696 1 .227 1.664.623 2.818.149.331-.14 1.188-1.16 1.805-.365.084.104.034.646.102.678 1.236.536 1.287-1.168 2.019-1.742.721-.573 1.793.608 2.024.948.588.88-.454.373-.484.459-.376 1.022.422.85 1.048.939.082 1.671.966 1.575.652.086-.036-.163-.527-.01-.652-.086.573-1.637 1.488-1.843 2.528-.307.491.72.01 1.556 1.531 1.255.669-.136.41-1.287.999-1.599 1.343-.71 3.145.37 4.523.205.51-.06.015-.692.364-.754.932-.168 1.765.307 2.668.068.083-.023-.118-.683.167-.69 2.202-.07 4.061.357 6.384.375q.225 0 .491-.014c1.156-.066 2.805-.33 3.812-.264 2.013.126 4.465 1.089 6.158.859 1.103-.148.862-.807 1.334-1.256.913-.87 2.512.693 2.727.935.006.008-.935.162-.433.501.291.706.422-.498.433-.5.142.155 2.015.308 2.385.183.202-.069.09-.694.195-.718a23 23 0 0 1 7.661-.412c.046.012-.024.711.084.732 1.51.314 2.473-.54 3.708-1.045s2.207-.334 2.93.867c.924-.15 2.242.384 2.997.707.756.323.863-1.037.93-1.064 2.089-.857 3.19-.076 5.434.049 1.061.062 3.151-.132 4.283-.278.896-.119 1.433.201 2.253-.001.111-.027 0-.633.034-.656.916-.723.474.757.662 1.022.681.962 1.103 1.475 2.266 1.025.269-.103 1.052-2.233 1.538-2.357.633-.157.393.606 1.054.423.056-.015.046-.487.452-.465 1.915.094 3.841.372 5.937.328.278-.004-.077-.752.324-.77 1.882-.085 3.926-.054 5.725.3.443.09.164.612.26.768.588.942 1.425-.423 1.562-.449 3.299-.65 5.671.592 9.065.01.188-.035 1.623-1.497 2.256-.239.043.084.669 1.37 1.225.493.035-.055-.354-.718.327-.649.68.069 1.773-.37 2.698.358.293.23.984 1.514 1.856.494.057-.072 1.403-2.38 1.874-.784.077.262-.006 1.95 1.024 1.087.197-.167-.158-.545.36-.779.792-.36 1.836.094 2.801-.656.162-.133.898-1.276 1.507-.406.094.137-.087.7.232.764 1.514.305 3.088-.068 4.6.325.536.138.26 1.049.817 1.294s1.674.483 2.252.068c.58-.416-.048-1.869.816-1.983 3.724-.496 7.455.364 11.296.498.564.02.099-.5.927-.509 3.098-.031 8.097-.506 10.895.605 2.145.89-.557 1.556 1.081 1.92.79.173 1.642-1.513 1.832-1.565 1.848-.535 3.115.216 4.746-.01.336-.046.008-.731.294-.764.98-.116 1.99.192 2.922.139.439-.026.36-.548.762-.507.963.093 1.808.315 2.734.807.084.045-.487.693.217.72 1.137.04 2.537.526 3.823.031.382-.15.4-1.343 1.214-.516.17.172-.05 1.606.9.37.16-.206 1.747-1.873 2.512-.794.204.284.711 1.46 1.197 1.276.064-.03-.191-.671.202-.733 1.384-.205 2.819-.133 4.211-.33.372-.054-.18-.72.374-.778 1.522-.164 3.395.01 4.842.223.534.079.163.628.202.688.621.975.992-.338 1.198-.414 1.293-.455 2.37.165 3.593.006.34-.043.1-.67.169-.725.703-.544.177.58.62.704 1.24.355 2.609.309 3.836.233.451-.03-.053-.757.351-.775 2.354-.118 4.91-.04 7.309.367.448.078.164.636.257.764.642.896 1.582-.32 1.796-.435.977-.527 1.352-.032 2.203-.121 4.131-.447 9.503-.102 13.414.114 5.317.278 9.234.824 14.233.703.31-.007 0-.752.268-.767 3.337-.167 7.09.137 10.418-.065.298-.015-.13-.722.35-.77.985-.104 2.21-.06 3.172.168.47.11-.163.713.31.812 1.096.231 2.253.286 3.342.177.465-.048-.238-.772.374-.778 4.374-.054 8.507-.161 12.731.79.284.066.523 1.533 1.178 1.255.05-.407.05-.885.073-1.32 6.16-.208 12.35.328 18.531.434.258.005-.183-.774.315-.77 2.9.025 5.785-.177 8.752.608.298.077.101 1.442 1.008 1.24.166-.037 1.507-.214 1.839-.509.046-.044-.188-.683.23-.7 2.448-.087 5.087.07 7.501.468.41.065-.029.743.262.796 2.03.367 4.145-.143 6.114.477 1.253.416.797 1.59 1.485 2.746.1.164.893.19.931.862.104 1.691-.278 3.543-.122 5.345.037.388 1.076-.03.461.908-.042.063-.806.374-1 .692-.134.22.107.904-.167 1.186-.269.28-.597-.293-1.029.038-.441.334-.241 1.112-1.141 1.203m-245.385-11.546c.692.655.799-1.738.048-1.167-.036.03-.084 1.135-.048 1.167m-85.732.021c.915 1.07 1.555-.474.933-1.298-.663-.824-1.203.974-.933 1.298m-9.576.554c1.052.865 1.323-2.521.153-1.871-.069.036-.215 1.82-.153 1.87m339.583 1.062c0 .031.585.064.6.032.31-.76-.848-.823-.6-.032m-349.133-.532c.322.47 1.311-.03.91-.614-.323-.47-1.314.03-.91.614m141.771 1.52c.007.036.421.069.415-.133-.033-.649-.597-.467-.415.133m-157.971-1.901c2.39.18 3.775 3.015 1.181 2.64-.469-.067 1.031-.87.439-1.136-1.088-.485-1.852 1.259-2.957.292-.196-.176 1.194-1.813 1.341-1.8zm121.452 2.151c.014.032.57.063.583.031.302-.759-.817-.822-.583-.03m60.586 1.281c.032.068 1.348.134 1.39.072.69-1.24-1.971-1.378-1.39-.072m-98.928.405c-.635.762-1.382.85-1.872-.11.615.052 1.24.061 1.872.11"/></svg>