<svg xmlns="http://www.w3.org/2000/svg" width="109" height="67" fill="none" viewBox="0 0 109 67"><path fill="#096087" d="M92.918 16.337c-2.055.207-4.911-.018-6.942-.327-.657-.096-.323-.52-.78-.605-.889-.166-1.771.04-2.605-.157-.285-.067.071-.739-.228-.794-1.619-.3-3.315-.132-4.942-.277-8.31-.72-16.506-.994-24.935-1.322-2.817-.108-6.132-.727-9.043-.468-.34.03-.139.62-.203.67-1.018.74-.68-.449-1.342-.609-2.52-.631-5.465-.694-7.954-.473-1.046.095 0 1.27-1.053.61-.073-.046.195-.67-.093-.738-.652-.152-1.902-.044-2.416-.095-.99-.102-1.155-.096-2.101-.106-1.328-.019-2.763-.334-4.139-.196-.29.032.093.674-.372.782s-1.701.05-2.12-.102c-.42-.153-.24-.657-.314-.773-.603-.977-2.077.37-2.24.403-3.268.56-6.236-.218-9.336-.224-2.351-.003-4.924.244-7.222.203-2.656-.052-4.943-.406-7.605-.353-.28.005.047.76-.297.767-3.563.079-7.146-.013-10.74-.532-.355-.053.103-.714-.25-.806-2.161-.55-5.644-1.868-6.976 1.014-1.536-.117-3.272-.238-4.605-.823-.854-.376-.021-1.096-1.073-.79-.238.068.07.7-.287.755-1.5.227-3.151.018-4.66.34-.306.068-.224.634-.311.736-.72.824-1.892-.544-2.153-.644-1.967-.745-3.418-.457-5.282-.48-.433-.005.077.757-.34.779-2.187.104-4.362.033-6.455-.31-.466-.077-.036-.724-.258-.795-.981-.303-1.203.921-2.149.654-.2-.054-.085-.609-.122-.67-.568-.958-1.068.396-1.215.426-1.866.405-3.061-1.013-4.818-.817-.212.025.264.728-.332.755-3.95.185-8.295-.017-12.179-.587-.613-.087-.174-.614-.212-.679-.627-1.017-1.039.343-1.24.394-1.582.365-3.07-.779-4.16.84-6.664-.577-13.408.32-20.01-1.144-.086-.017.068-.687-.101-.718-2.04-.38-1.65.662-3.009 1.934-.342.32-1.382-1.22-1.474-1.334-.336-.416.015-1.412-.098-1.493-.913-.634-.766 2.664-1.995 2.663-.039-.005.124-.612.021-.672-.321-.19-.639.05-.953-.16-.719-.484-.973-2.087-2.078-1.156-.14.12.071 1.991-1.036 1.901-.441-.037-2.402-.009-2.955-.131-.551-.122-.171-.724-.21-.75-1.485-.8-.921-1.13-1.666-2.31-.745-1.178-.543 1.627-.848 1.94-.316.31-1.375-.349-1.64-.578-.262-.229.066-.611-.167-.741-1.55-.849-.683 1.39-1.195 1.835-1.209 1.051-2.15-1.03-3.262-1.235-.301-.056-.056.418-.324.462-1.063.168-1.703-.482-2.92.11-.199.097-1.185 1.346-1.823.428-.091-.133.167-.65-.29-.767-.689-.176-1.905-.29-2.622-.119-.532.128.077.982-.592.716-.298-.119.255-.617-.305-.8-.555-.18-1.982-.16-2.527-.144-.544.016-.248.665-.291.708-.266.25-1.312.56-1.405.56-4.693.072-8.968-1.026-13.504-.67-.357.026-.12.71-.175.72-1.223.285-.256-1.53-1.11-2.138.122 1.386-.382 1.134-1.247 1.285-.417.074-.191.611-.229.666-.619.814-1.05-.24-1.16-.455-.41-.793-.858.143-1.137-.387-.279-.526.366-1.304-.468-1.295-.235.495.383 1.793-.251 2.002-2.329.792-6.718-.23-8.627-.338-1.902-.108-2.52-.017-3.635-.198-2.02-.326-1.268.637-2.501 1.076-1.23.438-.63-1.928-.806-2.437-.173-.509-.364.015-.58-.265s.252-.625-.255-.73c-.507-.106-1.9.797-2.081 1.329-.383 1.127.244 2.31-1.106 1.893-.077-.024.176-.647-.122-.71-2.363-.481-4.834-.513-7.225-.94-.328-.06-.034-.751-.225-.794-1.948-.444-1.253.724-2.324 2.02.242-1.726-.348-2.783-1.835-2.794-.895-.008-.742.746-1.321 1.277-.174.16-.809-.358-.924-.004-.381 1.159.217 2.457-1.324 1.939-.068-.025.148-.66-.086-.698-1.513-.252-1.695.96-3.338 1.105-.756.067-1.859-.16-2.941-.384h.02c-.77-.15-1.517-.3-2.117-.343.005-1.941-1.33-1.484-1.895-.14-.96-.046-1.977.04-2.875-.135-.314-.06-.114-.623-.154-.684-.631-.945-1.029.36-1.234.414-2.187.52-4.011-.444-6.114.549-.074.035-.18 1.385-.756.408-.037-.067.648-.69-.34-.724-.961-.034-2.887-.73-4.238-.083-.337.155-1.169 1.263-1.849.419-.091-.115 0-.503-.132-.716-.421-.679-.639.688-1.158-.461-.531-1.149-1.527-1.998-2.938-1.174-.044.024-.355 1.11-.789 1.101-.678-.015-1.704-.22-2.422-.198-.346.01-.111.676-.171.69-2.346.424-4.009-.136-6.539-.333-.45-.037-1.771.911-2.667.213-.99-.764-.103-4.083-2.316-3.234-.918.34-1.93 4.549-3.624 2.44-3.157.642-6.105-.354-9.262.553-.143.04-.531 1.224-.872 1.224-.502-.003-.799-.534-1.153-.553-1.502-.094-2.836.44-4.272.443-.548.002-.389-.57-1.039-.567-.647.004-1.045.768-1.942.46-.681-.236-1.43-1.713-2.323-1.839.048 1.382-.468 1.49-1.377 1.859q-.112.044-.233.095c-.203.087.045.595-.05.663-.386.288-.777-.125-1.141.185-.089.074-.069.585-.141.674-.606.782-1.716-.317-1.906-.51-.729-.727-1.024-.05-1.57-.325-.545-.277.234-.684-.394-.839-1.303-.32-2.952-.172-4.26-.146-.522.014-.141.681-.215.699-1.073.214-2.19-.472-2.74.907-.873-3.482-.638.364-2.206-.285-.124-.053-.335-1.707.122-1.967.458-.26 1.183.235 1.816-.168.15-.094.971-1.68 1.087-1.78.908-.77 1.133 1.705 1.188 1.839.617 1.449 1.626-.267 1.903-.394 1.269-.58 2.378-.276 3.44-.7.695-.276.693-1.902 1.247-1.877 1.709.076 2.479 2.01 3.889.64l-.027.002q.162-.157.334-.377c.349-.44-.124-2.192 1.294-.874.089.083 1.156 1.302 1.684.463.066-.106.035-.622.128-.671.627-.317 1.067.072 1.758-.163.68-.235 1.506-.574 2.309-.44.492.08 1.145 1.014 1.389 1.238.69.646 1.314-.5 1.762.303.444.808-.279 2.1.794 2.586-.024-1.346.002-2.729.002-4.083 2.33-.061 4.64.277 6.972.13.292-.02-.031-.73.277-.77 1.294-.164 2.462.311 3.814.061 1.043-.196 2.162-.997 3.272-1.223.703 1.519 2.331.95 3.51 1.06.419.037.402.449.705.575 1.111.468.562-.879.859-1.1 1.292-.946 1.472 2.129 3.011 2.017.084-.005 1.049-1.668 1.178-1.773.853-.686.155.568.703.677 1.017.2 1.696.577 2.865.073.348-.149 1.139-1.187 1.813-.409.089.102.051.645.121.676 1.283.505 1.298-1.2 2-1.789.705-.59 1.868.568 2.1.903.603.867-.448.382-.487.469-.369 1.03.466.84 1.074.917.115 1.67.984 1.555.645.072-.039-.161-.52.002-.645-.072.509-1.648 1.491-1.874 2.564-.358.503.71.042 1.555 1.547 1.226.687-.148.409-1.294 1.011-1.617 1.336-.734 3.182.315 4.579.128.516-.067.004-.69.357-.759.951-.182 1.765.28 2.699.028.085-.024-.13-.68.162-.692 2.242-.102 4.17.3 6.458.29.543-.002 1.3-.094 2.078-.18h.048c.812-.083 1.632-.16 2.229-.122 2.021.125 4.49 1.085 6.197.854 1.113-.148.869-.808 1.346-1.257.92-.87 2.539.692 2.756.934.007.008-.945.162-.438.501.295.706.427-.498.438-.501.143.156 2.041.307 2.438.182.209-.069.093-.694.202-.718 2.592-.557 5.171-.713 7.764-.418.046.013-.024.712.083.733 1.501.312 2.459-.542 3.689-1.048 1.218-.506 2.233-.335 2.969.865.947-.15 2.298.382 3.074.705s.885-1.037.954-1.064c2.126-.858 3.349-.078 5.534.045 1.03.062 3.113-.133 4.262-.28.904-.119 1.447.2 2.276-.002.112-.027 0-.633.034-.656.926-.724.479.756.67 1.02.69.964 1.117 1.476 2.296 1.025.272-.103 1.065-2.234 1.559-2.358.642-.157.399.607 1.071.423.057-.016.046-.487.459-.466 1.904.093 4.042.37 6.066.326.276-.004-.077-.752.322-.77 1.872-.087 3.912-.056 5.714.297.443.089.164.612.26.768.59.941 1.428-.424 1.566-.45 3.305-.652 5.91.59 9.275.006.184-.035 1.598-1.497 2.223-.24.043.084.661 1.37 1.21.492.034-.054-.35-.717.323-.648.659.068 1.79-.372 2.728.357.299.23 1.003 1.513 1.893.492.059-.071 1.432-2.38 1.916-.785.079.263-.006 1.95 1.049 1.087.202-.167-.163-.544.367-.778.813-.361 1.884.093 2.876-.657.174-.133.911-1.277 1.497-.407.092.136-.084.7.226.763 1.509.305 3.096-.069 4.618.324.54.138.262 1.048.824 1.294.561.245 1.69.481 2.275.066s-.05-1.868.824-1.982c3.747-.498 7.652.361 11.428.494.563.02.098-.501.926-.51 3-.032 8.444-.508 11.057.602 2.116.889-.55 1.556 1.067 1.92.78.173 1.623-1.513 1.824-1.566 1.886-.536 3.185.215 4.861-.011.346-.047.008-.732.303-.764 1.004-.116 2.055.191 3.006.138.427-.026.35-.549.742-.507a7.1 7.1 0 0 1 2.709.806c.085.044-.492.693.218.719 1.149.04 2.566.526 3.873.03.388-.149.407-1.343 1.235-.516.173.172-.051 1.606.917.369.163-.206 1.783-1.873 2.568-.794.202.284.749 1.459 1.221 1.276.065-.03-.19-.672.2-.733 1.38-.206 2.816-.134 4.214-.332.374-.054-.18-.719.376-.778 1.534-.164 3.404.01 4.906.22.56.08.172.629.212.689.653.975 1.042-.338 1.259-.414 1.347-.455 2.364.164 3.591.004.339-.043.1-.67.168-.725.699-.544.176.58.617.705 1.24.354 2.59.307 3.85.23.468-.03-.056-.757.364-.774 2.486-.12 5.034-.043 7.393.363.445.078.164.637.256.765.63.895 1.584-.321 1.81-.437 1.006-.527 1.394-.032 2.275-.122 4.266-.448 9.589-.106 13.58.107 5.304.275 9.297.818 14.378.695.318-.008 0-.753.274-.768 3.47-.17 7.096.131 10.57-.074.287-.016-.124-.722.336-.77.96-.105 2.21-.063 3.18.165.476.11-.164.713.315.811 1.113.23 2.296.284 3.418.174.477-.049-.24-.772.38-.779 4.357-.059 8.53-.171 12.876.774.294.065.549 1.532 1.17 1.253.048-.407.047-.886.068-1.32 6.32-.218 12.442.307 18.719.4.258.004-.186-.774.313-.77 3.047.018 5.821-.191 8.904.587.298.076.146 1.442 1.019 1.237.154-.037 1.457-.217 1.83-.513.047-.045-.2-.683.239-.7a40 40 0 0 1 7.615.45c.395.064-.026.743.254.795 2.04.363 4.22-.152 6.196.466 1.317.416.828 1.59 1.516 2.746.099.163.888.189.927.861.104 1.69-.276 3.542-.12 5.345.035.388 1.076-.03.46.908-.042.063-.804.374-.996.692-.132.22.107.904-.164 1.186-.27.281-.57-.292-1.027.039-.46.334-.253 1.112-1.184 1.204M-155.258 4.99c.713.654.821-1.739.048-1.167-.037.03-.085 1.135-.048 1.167m-86.823 1.372c.988 1.016 1.559-.559.873-1.348-.705-.787-1.171 1.04-.873 1.348m-9.688 1.225c1.137.773 1.133-2.624-.003-1.878-.067.043-.063 1.833.003 1.878M91.8 6.429c.01.032.572.063.584.032.3-.76-.823-.822-.585-.032m-353.14 2.505c.362.443 1.319-.131.869-.682-.362-.443-1.319.13-.869.682m143.455-1.338c.011.036.426.068.418-.133-.027-.65-.605-.467-.418.133m-159.813 1.99c2.423.047 3.985 2.798 1.339 2.57-.479-.04.998-.927.382-1.16-1.126-.422-1.805 1.36-2.97.456-.211-.166 1.111-1.876 1.253-1.87zm122.848-1.722c.014.032.586.063.6.031.311-.76-.842-.821-.6-.03m61.2 1.254c.031.067 1.362.133 1.405.07.696-1.24-1.993-1.377-1.406-.07m-99.963.48c-.623.77-1.338.867-1.869-.087.645.044 1.238.046 1.869.087m-57.055 14.324c2.045-.248 4.682-.076 6.732.189.63.082.32.512.758.588.853.148 1.669-.076 2.505.103.281.061-.053.74.241.79 1.627.263 3.133.061 4.783.17 8.057.538 15.986.62 24.136.755 2.679.044 5.974.584 8.735.26.324-.039.118-.624.179-.674.953-.764.656.433 1.293.578 2.511.572 5.303.568 7.711.291 1.022-.12-.029-1.27 1.016-.633.073.043-.174.674.108.735.64.137 1.857 0 2.347.04.953.08 1.111.07 2.013.059 1.242-.01 2.7.271 4.026.103.282-.038-.106-.672.344-.79.448-.118 1.637-.088 2.043.056.405.143.244.65.317.765.606.964 1.96-.415 2.134-.452 3.224-.633 6.015.083 9.048.022 2.306-.047 4.766-.348 6.958-.353 2.616-.005 4.837.303 7.373.198.267-.01-.06-.76.267-.774a77 77 0 0 1 5.034-.067c1.784.04 3.583.16 5.371.397.348.046-.09.715.259.802 2.137.512 5.51 1.778 6.739-1.121 1.44.096 3.193.194 4.485.763.834.366.035 1.096 1.052.778.229-.07-.076-.7.269-.758 1.451-.245 3.039-.052 4.474-.39.292-.07.208-.635.29-.738.691-.831 1.86.527 2.113.624 1.928.728 3.331.43 5.123.44.416.003-.079-.756.321-.78 2.077-.119 4.224-.06 6.26.274.452.076.038.725.254.795.952.298 1.161-.926 2.074-.662.193.054.085.608.12.67.552.955 1.028-.4 1.17-.43 1.788-.41 2.931 1.006 4.659.807.207-.025-.258-.728.322-.755a60.3 60.3 0 0 1 11.794.601c.593.09.166.615.203.68.602 1.019 1.007-.34 1.202-.39 1.543-.36 2.95.792 4.011-.82 6.49.61 12.954-.228 19.373 1.32.082.019-.075.687.088.72 1.946.406 1.598-.641 2.92-1.894.333-.315 1.3 1.24 1.385 1.354.312.42-.035 1.412.07 1.494.875.647.795-2.652 1.997-2.633.037.007-.131.61-.032.673.31.195.624-.04.925.174.687.496.91 2.103 2.003 1.19.137-.118-.032-1.992 1.036-1.883.419.044 2.324.05 2.85.183.525.132.15.727.187.754 1.405.827.85 1.146 1.546 2.341.694 1.191.555-1.617.855-1.923s1.328.375 1.577.61-.077.61.146.744c1.501.881.7-1.375 1.213-1.809 1.209-1.025 2.054 1.076 3.14 1.307.291.063.065-.417.326-.455 1.032-.142 1.622.522 2.819-.04.195-.092 1.17-1.316 1.751-.381.084.134-.18.645.26.774.66.193 1.83.34 2.53.189.53-.113-.046-.984.607-.699.289.127-.268.61.275.808.37.135 1.137.188 1.743.208.284.008.537.01.704.01.53-.003.259-.659.303-.701.267-.242 1.284-.525 1.372-.521 4.499.053 8.636 1.27 13.032 1.039.345-.017.136-.707.189-.716 1.182-.251.203 1.536 1.003 2.168-.079-1.389.406-1.123 1.241-1.25.402-.063.2-.606.239-.66.617-.797.995.268 1.094.486.371.804.83-.119 1.081.418.252.534-.386 1.294.41 1.308.238-.49-.314-1.803.296-1.995 2.305-.727 6.534.416 8.359.575 1.835.159 2.42.084 3.485.294 1.908.38 1.24-.602 2.447-1.008 1.209-.407.56 1.943.717 2.457.154.513.355-.005.558.28s-.263.618.23.737c.495.12 1.86-.748 2.056-1.275.402-1.116-.173-2.315 1.122-1.864.074.027-.186.642.1.713 2.274.542 4.64.636 6.917 1.119.311.067.014.752.195.799 1.893.492 1.243-.693 2.317-1.963-.278 1.72.273 2.79 1.718 2.836.866.028.737-.73 1.312-1.247.172-.156.774.376.894.025.395-1.15-.154-2.46 1.323-1.909.065.026-.158.655.067.7 1.452.285 1.655-.923 3.234-1.034 1.238-.088 3.42.698 4.824.847-.07 1.94 1.27 1.522 1.836.195.911.073 1.9.016 2.779.217.302.069.092.627.13.688.57.963.99-.331 1.189-.379 2.143-.457 3.872.557 5.923-.376.074-.033.21-1.379.742-.387.034.067-.625.65.26.73h-.01l.05.003c.943.054 2.773.788 4.095.17.326-.148 1.146-1.238 1.795-.38.087.117-.01.503.114.719.406.687.64-.674 1.106.486.471 1.16 1.464 2.03 2.815 1.237.044-.023.37-1.101.787-1.083.67.031 1.637.26 2.336.255.337-.003.123-.674.182-.686 2.268-.368 3.89.234 6.313.5.455.05 1.72-.862 2.592-.138.944.793-.043 4.083 2.145 3.303.87-.312 2-4.486 3.568-2.32 3.062-.532 5.89.579 8.96-.184.138-.034.576-1.2.902-1.183.481.026.743.571 1.087.607 1.445.165 2.76-.3 4.15-.227.527.027.342.59.972.622.63.031 1.05-.71 1.9-.352.641.273 1.291 1.79 2.14 1.967.034-1.496.618-1.465 1.665-1.86.2-.076-.015-.596.08-.66.386-.267.741.164 1.108-.128.089-.07.093-.58.166-.667.62-.752 1.642.397 1.816.597.67.76.985.096 1.502.395.515.3-.256.673.347.855 1.242.375 2.846.293 4.11.316.505.007.16-.675.233-.69 1.046-.173 2.098.552 2.679-.805.725 3.51.628-.34 2.121.362.117.057.267 1.717-.184 1.96-.452.244-1.135-.275-1.761.105-.149.09-.999 1.645-1.115 1.74-.907.736-1.035-1.745-1.083-1.881-.546-1.471-1.584.205-1.857.32-1.248.531-2.313.182-3.358.56-.685.245-.752 1.87-1.289 1.82-1.783-.164-2.407-2.431-4.091-.466-.361.42-.005 2.196-1.295.798-.08-.088-1.041-1.366-1.596-.558-.07.102-.068.62-.16.663-.616.281-1.022-.131-1.696.066s-1.473.491-2.243.315c-.463-.105-1.054-1.07-1.274-1.306-.619-.68-1.294.434-1.68-.39-.388-.828.374-2.085-.646-2.62-.039 1.344-.127 2.725-.188 4.077-2.245-.049-4.436-.486-6.69-.429-.278.008.005.732-.292.76-1.265.113-2.354-.404-3.67-.2-1.005.16-2.127.923-3.176 1.114-.651-1.54-2.21-1.02-3.358-1.164-.399-.05-.371-.46-.653-.595-1.069-.498-.573.863-.867 1.076-1.266.91-1.361-2.168-2.85-2.096-.079.003-1.042 1.641-1.178 1.743-.847.664-.14-.572-.666-.694-.95-.225-1.639-.619-2.755-.142-.334.141-1.133 1.16-1.762.367-.083-.104-.035-.646-.102-.678-1.234-.534-1.266 1.17-1.966 1.744-.718.574-1.772-.607-2.002-.948-.579-.88.452-.372.476-.458.37-1.023-.419-.85-1.025-.94-.08-1.671-.917-1.575-.622-.086.033.163.5.01.622.086-.532 1.637-1.474 1.842-2.477.304-.473-.72-.027-1.555-1.477-1.258-.655.134-.416 1.287-1.002 1.596a2.1 2.1 0 0 1-.868.236h-.032c-1.168.065-2.468-.602-3.561-.486-.5.053-.024.691-.366.75-.906.155-1.7-.33-2.61-.105-.082.021.108.684-.175.688-2.146.038-4.002-.42-6.238-.477-1.08-.027-3.019.295-4.137.197-1.935-.165-4.302-1.18-5.96-.987-1.086.123-.864.788-1.338 1.226-.913.848-2.457-.751-2.662-.998-.006-.008.925-.14.439-.491-.27-.712-.429.488-.44.49-.135-.159-1.988-.356-2.36-.24-.201.064-.106.691-.21.713-2.497.494-4.99.585-7.5.223-.043-.014.043-.71-.061-.735-1.441-.35-2.407.477-3.618.95-1.222.473-2.16.276-2.84-.944-.918.125-2.19-.442-2.937-.786-.735-.344-.879 1.013-.945 1.038-2.083.8-3.25-.013-5.367-.197-1.019-.09-3.023.047-4.127.163-.865.094-1.378-.24-2.189-.06-.108.024-.018.633-.05.655-.906.698-.438-.77-.613-1.04-.634-.98-1.035-1.505-2.19-1.087-.264.096-1.091 2.205-1.576 2.315-.63.14-.374-.618-1.033-.452-.056.013-.058.485-.458.452-1.864-.146-3.9-.48-5.84-.49-.265-.004.053.753-.33.761-1.485.029-3.052-.023-4.553-.263l-.02-.001q-.483-.08-.954-.19c-.425-.103-.14-.617-.229-.776-.54-.958-1.408.383-1.543.405-3.205.56-5.613-.742-8.9-.234-.176.03-1.57 1.462-2.157.191-.038-.084-.623-1.384-1.168-.517-.034.054.325.724-.325.642-.648-.082-1.728.336-2.61-.41-.278-.235-.921-1.531-1.798-.527-.057.07-1.427 2.355-1.857.751-.071-.264.044-1.95-.99-1.104-.198.164.148.547-.37.773-.799.347-1.821-.124-2.798.61-.17.13-.907 1.263-1.471.384-.088-.138.093-.698-.21-.766-1.418-.327-2.965.025-4.405-.386-.516-.145-.237-1.052-.775-1.304-.535-.252-1.636-.502-2.199-.094-.57.409.027 1.869-.82 1.973-3.697.455-7.332-.438-11.013-.597-.546-.024-.097.5-.903.502-2.962.011-8.099.463-10.657-.653-2.063-.894.543-1.555-1.036-1.922-.765-.175-1.589 1.509-1.773 1.561-1.796.533-3.042-.219-4.656.007-.333.047-.008.732-.292.764-.971.116-1.988-.191-2.913-.136-.415.026-.339.549-.721.508-.915-.092-1.726-.312-2.615-.801-.082-.045.466-.695-.21-.719-1.094-.037-2.46-.52-3.716-.019-.374.151-.386 1.345-1.192.522-.169-.172.044-1.606-.891-.365-.158.206-1.724 1.88-2.499.806-.205-.283-.728-1.454-1.178-1.268-.061.03.186.67-.187.734-1.313.214-2.687.152-4.036.36-.36.056.18.717-.357.78-1.474.176-3.317.02-4.762-.178-.533-.074-.169-.626-.208-.686-.63-.968-.988.348-1.194.426-1.281.469-2.265-.14-3.449.035-.326.046-.088.67-.153.727-.669.552-.177-.578-.606-.698-1.199-.34-2.534-.275-3.743-.181-.444.035.064.755-.335.779-2.358.152-4.809.114-7.121-.253-.435-.07-.17-.633-.262-.76-.637-.884-1.53.349-1.738.468-.949.545-1.328.057-2.17.163q-.756.096-1.549.161c-3.801.312-8.154.116-11.577.002-5.087-.167-9.04-.623-13.885-.39-.307.014.018.751-.247.773-3.43.246-6.804.023-10.238.307-.281.022.139.72-.311.778-.926.126-2.107.112-3.047-.094-.459-.1.141-.717-.32-.804a10.9 10.9 0 0 0-3.329-.096c-.466.06.254.766-.354.787-4.152.157-8.228.366-12.445-.48-.289-.058-.572-1.518-1.175-1.224-.037.407-.024.886-.035 1.321-6.05.362-12.028-.02-18.106.03-.255.002.202.77-.292.778-2.868.049-5.636.322-8.591-.39-.292-.069-.173-1.438-1.019-1.214-.141.04-1.448.25-1.771.553-.044.046.204.679-.211.706a37.3 37.3 0 0 1-7.374-.29c-.392-.056.011-.743-.269-.79-1.954-.321-4.109.237-5.997-.344-1.255-.392-.826-1.574-1.516-2.717-.099-.161-.876-.173-.927-.845-.134-1.688.206-3.546.019-5.346-.041-.387-1.06.05-.469-.9.04-.063.783-.388.965-.71.125-.222-.121-.901.138-1.188.26-.286.563.282 1.001-.058.429-.343.22-1.117 1.089-1.225m239.977 10.251c-.673-.673-.846 1.716-.08 1.165.037-.029.114-1.132.08-1.165m83.858.92c-.897-1.056-1.529.495-.886 1.311.64.815 1.16-.99.886-1.31m9.392-.763c-1.055-.833-1.223 2.56-.093 1.875.066-.039.154-1.827.093-1.875m-331.942-.524c-.011-.032-.576-.052-.589-.02-.286.766.844.806.589.02m341.26-.312c-.327-.459-1.283.07-.87.642.332.459 1.281-.07.87-.642m-138.6-2.935c-.01-.036-.413-.079-.41.123.012.65.577.48.41-.123m154.437 2.897c-2.338-.127-3.76-2.93-1.21-2.614.462.057-.995.894-.407 1.147 1.075.46 1.787-1.3 2.885-.357.198.173-1.135 1.838-1.272 1.828zM-11.007 31.29c-.013-.032-.568-.079-.583-.048-.324.75.796.845.583.048m-59.124-2.668c-.033-.068-1.32-.15-1.362-.087-.69 1.232 1.914 1.4 1.362.087m96.577 1.893c.622-.751 1.348-.827 1.812.142-.601-.063-1.207-.082-1.812-.142m74.852 36.243c-2.09.205-4.813-.027-6.89-.34-.64-.097-.314-.52-.76-.607-.886-.168-1.725.037-2.563-.163-.284-.068.073-.738-.225-.795-1.695-.303-3.172-.139-4.902-.29-8.151-.74-16.383-1.03-24.643-1.372-2.698-.112-6.084-.736-8.907-.48-.336.03-.138.62-.202.668-1.01.74-.67-.449-1.333-.61-2.547-.635-5.342-.7-7.893-.483-1.016.095 0 1.27-1.025.608-.072-.044.19-.67-.09-.737-.635-.153-1.86-.046-2.369-.097-.977-.103-1.14-.097-2.08-.108-1.322-.02-2.762-.337-4.095-.2-.285.03.09.674-.366.782-.454.107-1.672.048-2.088-.105-.414-.153-.236-.657-.309-.773-.599-.978-2.049.369-2.238.401-3.268.558-6.042-.222-9.268-.231-2.274-.005-4.777.24-7.064.198-2.815-.053-4.869-.408-7.505-.357-.275.005.045.76-.291.768-3.65.076-7.064-.017-10.621-.538-.357-.053.106-.714-.251-.806-2.204-.551-5.672-1.87-6.915 1.011-1.445-.117-3.227-.238-4.555-.824-.857-.377-.02-1.096-1.078-.791-.24.068.07.7-.289.755-1.516.227-3.177.017-4.588.34-.292.066-.214.633-.297.735-.699.824-1.865-.545-2.121-.645-1.948-.745-3.393-.458-5.256-.482-.433-.005.076.757-.34.779-2.225.103-4.29.032-6.36-.312-.457-.078-.035-.725-.253-.795-.964-.303-1.182.92-2.115.653-.197-.054-.084-.609-.12-.67-.56-.958-1.055.396-1.2.426-1.844.404-3.03-1.014-4.848-.819-.214.025.259.728-.33.755-3.84.184-8.01-.02-12.017-.59-.623-.088-.177-.615-.216-.68-.637-1.017-1.057.343-1.261.394-1.522.365-2.955-.78-4.01.838-6.59-.578-13.254.317-19.786-1.15-.084-.017.068-.687-.1-.718-2.024-.38-1.639.662-2.992 1.933-.34.319-1.377-1.221-1.47-1.334-.334-.417.017-1.413-.096-1.494-.92-.634-.82 2.664-2.015 2.663-.038-.006.12-.613.02-.673-.31-.19-.621.05-.927-.16-.7-.484-.946-2.087-2.025-1.157-.137.12.07 1.992-1.012 1.901-.43-.038-2.35-.01-2.892-.132-.54-.122-.167-.724-.206-.75-1.456-.8-.903-1.13-1.633-2.312-.732-1.177-.534 1.628-.835 1.94s-1.379-.348-1.645-.578c-.265-.229.067-.611-.169-.741-1.569-.85-.692 1.39-1.212 1.834-1.223 1.051-2.189-1.03-3.303-1.236-.29-.056-.055.418-.313.462-1.025.167-1.642-.483-2.818.11-.193.096-1.147 1.345-1.764.426-.088-.133.162-.65-.281-.767-.661-.176-1.859-.292-2.578-.12-.53.127.076.982-.591.716-.297-.12.255-.618-.303-.8-.555-.182-1.981-.162-2.527-.146-.544.016-.247.665-.291.708-.266.25-1.314.56-1.408.559-4.796.07-8.785-1.03-13.316-.677-.353.027-.119.71-.173.721-1.209.284-.252-1.53-1.097-2.14.12 1.387-.378 1.135-1.235 1.285-.413.074-.189.611-.227.666-.614.814-1.04-.24-1.149-.455-.406-.793-.851.142-1.128-.388-.277-.526.364-1.304-.464-1.296-.233.496.38 1.794-.25 2.003-2.442.79-6.672-.235-8.537-.344-1.853-.109-2.458-.018-3.546-.2-1.971-.327-1.25.636-2.48 1.074-1.236.438-.631-1.928-.808-2.437-.174-.509-.365.015-.582-.265s.254-.626-.256-.731c-.509-.106-1.911.796-2.095 1.328-.386 1.127.245 2.31-1.115 1.893-.078-.025.177-.647-.122-.71-2.426-.484-4.774-.517-7.08-.945-.316-.06-.032-.752-.216-.794-1.923-.446-1.238.722-2.297 2.017.24-1.725-.342-2.782-1.814-2.795-.886-.008-.735.746-1.311 1.276-.172.16-.801-.358-.916-.004-.379 1.158.215 2.456-1.315 1.937-.068-.024.148-.658-.085-.697-1.503-.254-1.685.958-3.32 1.102-1.138.1-3.069-.473-4.525-.689a9 9 0 0 0-.532-.064c.034-1.94-1.348-1.5-1.897-.163-.934-.057-1.908.016-2.842-.172-.315-.064-.107-.625-.146-.686-.605-.954-1.013.347-1.214.397-2.125.49-3.979-.503-6.05.454-.075.035-.204 1.382-.762.396-.036-.068.658-.679-.327-.73-.964-.05-2.839-.78-4.191-.162-.324.15-1.151 1.24-1.836.382-.09-.116.01-.502-.119-.718-.417-.687-.651.674-1.13-.485-.466-1.16-1.503-2.031-2.878-1.24-.043.023-.372 1.102-.793 1.082-.683-.031-1.697-.262-2.399-.259-.338.002-.125.674-.184.686-2.342.362-3.973-.245-6.461-.522-.46-.052-1.759.852-2.648.122-.96-.799.089-4.082-2.17-3.317-.868.306-2.055 4.472-3.667 2.291-3.1.503-6.016-.641-9.153.065-.149.031-.6 1.188-.94 1.165-.506-.036-.738-.586-1.104-.63-1.471-.197-2.826.232-4.246.115-.536-.043-.334-.6-.973-.652-.429-.035-.772.278-1.209.374a1.14 1.14 0 0 1-.744-.086c-.649-.294-1.256-1.831-2.124-2.037-.082 1.494-.682 1.443-1.76 1.803-.207.07-.005.598-.103.658-.403.255-.754-.188-1.138.092-.093.068-.114.578-.191.662-.656.731-1.662-.45-1.836-.654-.663-.78-1.003-.126-1.523-.441-.515-.315.279-.665-.327-.865-1.264-.413-2.901-.377-4.197-.435-.516-.02-.182.671-.257.684-1.071.144-2.133-.608-2.757.735-.656-3.529-.653.324-2.161-.416-.12-.06-.234-1.723.236-1.956.467-.232 1.154.304 1.806-.06.153-.085 1.063-1.619 1.184-1.71.95-.712 1.014 1.772 1.059 1.91.524 1.484 1.622-.163 1.91-.27 1.295-.496 2.372-.116 3.453-.463.709-.224.825-1.846 1.374-1.78 1.826.22 2.39 2.507 4.175.598.383-.407.074-2.194 1.351-.755.081.09 1.021 1.4 1.614.61.075-.099.089-.616.185-.656.352-.144.634-.079.931-.02.242.047.495.089.803.01.692-.174 1.515-.443 2.283-.244.467.118 1.043 1.1 1.253 1.34.618.698 1.329-.4 1.692.432.378.837-.436 2.076.608 2.634.067-1.343.183-2.722.273-4.073 2.281.097 4.487.566 6.799.537.274-.005.002-.731.299-.756 1.278-.098 2.426.43 3.728.239 1.066-.15 2.177-.906 3.253-1.089.644 1.545 2.233 1.036 3.423 1.185.417.052.371.463.658.6 1.078.503.583-.86.883-1.072 1.334-.905 1.359 2.174 2.907 2.108.092-.002 1.073-1.637 1.205-1.739.856-.66.136.572.672.697 1 .227 1.664.623 2.818.148.331-.14 1.188-1.158 1.805-.364.084.104.034.646.102.678 1.236.536 1.287-1.168 2.019-1.742.721-.574 1.793.608 2.024.948.588.88-.454.373-.484.459-.376 1.022.422.85 1.048.939.082 1.671.966 1.575.652.085-.036-.162-.527-.008-.652-.085.573-1.637 1.488-1.843 2.528-.307.491.72.01 1.555 1.531 1.255.669-.136.41-1.287.999-1.599 1.343-.71 3.145.369 4.523.204.51-.06.015-.69.364-.753.932-.168 1.765.307 2.668.068.083-.023-.118-.683.167-.69 2.202-.07 4.061.357 6.384.375q.225 0 .491-.015c1.156-.066 2.805-.328 3.812-.263 2.013.126 4.465 1.089 6.158.858 1.103-.147.862-.807 1.334-1.255.913-.87 2.512.693 2.727.935.006.008-.935.162-.433.501.291.706.422-.498.433-.501.142.156 2.015.309 2.385.184.202-.069.09-.694.195-.718a23 23 0 0 1 7.661-.413c.046.013-.024.712.084.733 1.51.313 2.473-.54 3.708-1.045 1.235-.506 2.207-.334 2.93.867.924-.15 2.242.383 2.997.707.756.323.863-1.037.93-1.064 2.089-.857 3.19-.077 5.434.049 1.061.062 3.151-.132 4.283-.279.896-.118 1.433.202 2.253 0 .111-.027 0-.633.034-.656.916-.724.474.756.662 1.021.681.963 1.103 1.476 2.266 1.026.269-.103 1.052-2.234 1.538-2.358.633-.157.393.607 1.054.423.056-.015.046-.486.452-.465 1.915.094 3.841.372 5.937.33.278-.005-.077-.753.324-.772 1.882-.085 3.926-.053 5.725.3.443.09.164.613.26.769.588.942 1.425-.423 1.562-.45 3.299-.65 5.671.592 9.065.01.188-.034 1.623-1.496 2.256-.238.043.084.669 1.37 1.225.493.035-.055-.354-.718.327-.649.68.069 1.773-.37 2.698.358.293.23.984 1.514 1.856.493.057-.07 1.403-2.38 1.874-.784.077.263-.006 1.95 1.024 1.087.197-.167-.158-.544.36-.778.792-.36 1.836.094 2.801-.656.162-.133.898-1.277 1.507-.406.094.136-.087.7.232.763 1.514.306 3.088-.067 4.6.326.536.138.26 1.048.817 1.294.557.245 1.674.482 2.252.067.58-.415-.048-1.868.816-1.982 3.724-.496 7.455.364 11.296.498.564.02.099-.501.927-.509 3.098-.031 8.097-.506 10.895.605 2.145.89-.557 1.556 1.081 1.92.79.173 1.642-1.513 1.832-1.565 1.848-.535 3.115.215 4.746-.01.336-.047.008-.732.294-.764.98-.116 1.99.192 2.922.139.439-.026.36-.549.762-.507.963.093 1.808.315 2.734.807.084.045-.487.693.217.72 1.137.04 2.537.526 3.823.03.382-.148.4-1.342 1.214-.516.17.173-.05 1.606.9.37.16-.205 1.747-1.872 2.512-.793.204.284.711 1.459 1.197 1.276.064-.03-.191-.672.202-.733 1.384-.206 2.819-.133 4.211-.33.372-.054-.18-.72.374-.778 1.522-.164 3.395.01 4.842.222.534.08.163.628.202.688.621.975.992-.337 1.198-.413 1.293-.455 2.37.165 3.593.005.34-.042.1-.67.169-.725.703-.543.177.58.62.705 1.24.355 2.609.309 3.836.232.451-.029-.053-.756.351-.774 2.354-.118 4.91-.041 7.309.367.448.078.164.636.257.764.642.896 1.582-.32 1.796-.436.977-.527 1.352-.031 2.203-.12 4.131-.447 9.503-.102 13.414.113 5.317.279 9.234.824 14.233.704.31-.007 0-.752.268-.767 3.337-.168 7.09.137 10.418-.065.298-.015-.13-.722.35-.77.985-.104 2.21-.06 3.172.168.47.11-.163.713.31.812 1.096.231 2.253.286 3.342.177.465-.048-.238-.772.374-.778 4.374-.054 8.507-.161 12.731.79.284.066.523 1.533 1.178 1.255.05-.407.05-.886.073-1.32 6.16-.209 12.35.327 18.531.434.258.004-.183-.774.315-.77 2.9.024 5.785-.178 8.752.608.298.076.101 1.442 1.008 1.24.166-.038 1.507-.214 1.839-.51.046-.044-.188-.683.23-.7 2.448-.086 5.087.07 7.501.469.41.065-.029.743.262.795 2.03.368 4.145-.142 6.114.477 1.253.417.797 1.59 1.485 2.747.1.163.893.19.931.862.104 1.691-.278 3.542-.122 5.345.037.388 1.076-.03.461.908-.042.063-.806.374-1 .692-.134.22.107.904-.167 1.185-.269.282-.597-.292-1.029.038-.441.335-.241 1.113-1.141 1.204m-245.385-11.546c.692.655.799-1.738.048-1.167-.036.03-.084 1.135-.048 1.167m-85.732.02c.915 1.07 1.555-.473.933-1.297-.663-.824-1.203.974-.933 1.298m-9.576.555c1.052.865 1.323-2.522.153-1.871-.069.036-.215 1.82-.153 1.87m339.583 1.061c0 .032.585.064.6.033.31-.76-.848-.823-.6-.033m-349.133-.531c.322.469 1.311-.03.91-.614-.323-.47-1.314.03-.91.614m141.771 1.52c.007.036.421.069.415-.133-.033-.65-.597-.467-.415.133m-157.971-1.901c2.39.18 3.775 3.015 1.181 2.64-.469-.067 1.031-.87.439-1.137-1.088-.484-1.852 1.26-2.957.293-.196-.177 1.194-1.813 1.341-1.8zm121.452 2.15c.014.032.57.064.583.032.302-.759-.817-.822-.583-.031m60.586 1.282c.032.068 1.348.134 1.39.072.69-1.241-1.971-1.378-1.39-.072m-98.928.404c-.635.763-1.382.851-1.872-.11.615.053 1.24.062 1.872.11"/></svg>