<svg xmlns="http://www.w3.org/2000/svg" width="284" height="70" fill="none" viewBox="0 0 284 70"><path stroke="#fff" stroke-width="6" d="M4 4h62v62H4z"/><path stroke="#fff" stroke-width="3" d="M12 12h46v46H12z"/><path fill="#fff" d="m23.08 22.92 1.16.08-.44 18.92q-.04 2.16.84 3.4.92 1.2 2.56 1.2.12 0 .12.24t-.12.24q-1.08 0-1.68-.04l-2.2-.04-2.52.04q-.64.04-1.72.04-.12 0-.12-.24t.12-.24q1.64 0 2.6-1.24t1-3.36zm28.24 23.6q.08 0 .08.24t-.08.24a46 46 0 0 1-2.16-.04l-2.96-.04-3 .04q-.76.04-2.08.04-.12 0-.12-.24t.12-.24q1.28 0 1.88-.2.64-.24.84-.8t.12-1.76L43.04 26l2.04-3.2-10.2 23.92q-.08.16-.32.16t-.32-.16L23 25.32q-.8-1.48-1.68-2.16a3.02 3.02 0 0 0-1.96-.68q-.12 0-.12-.24t.12-.24l1.88.04q.56.04 1.44.04l2.12-.04q.36-.04.92-.04.52 0 .8.36t1.04 1.72l8.96 16.8-2 3.6L43.88 23q.24-.56.48-.76.28-.24.72-.24.36 0 .8.04.48.04 1.08.04l2.36-.04q.56-.04 1.6-.04.12 0 .12.24t-.12.24q-1.88 0-2.72.76t-.76 2.36l.96 18.16q.08 1.24.28 1.8.24.56.8.76.6.2 1.84.2M77.64 32q-.12 0-.12-.24t.12-.24q1.28 0 1.84-.2.6-.2.8-.76.2-.6.2-1.8V10.24q0-1.2-.2-1.76t-.8-.76q-.6-.24-1.84-.24-.12 0-.12-.24t.12-.24H94.6q.4 0 .4.36l.08 5.32q0 .08-.24.12-.2.04-.24-.08-.64-2.32-2.16-3.44t-4-1.12h-1.2q-1.2 0-1.76.52t-.56 1.6V28.6q0 1.16.44 1.72t1.4.56h1.32q3.12 0 5-1.28t2.76-3.96q0-.08.16-.08.12 0 .2.08.12.04.12.08-.4 3.12-.4 5.68 0 .32-.12.48-.12.12-.48.12zm15.44-8.92q0-1.64-1.28-2.56-1.24-.96-3.6-.96h-5.4v-1.12h5.44q2.32 0 3.56-.8t1.24-2.24q0-.12.2-.12.24 0 .24.12l-.04 3.6.04 1.92q.08 1.36.08 2.16 0 .08-.24.08t-.24-.08M97.83 32q-.2 0-.2-.24t.2-.24q.72 0 1.52-1 .84-1.04 2.04-3.8l4.64-10.76q.081-.16.24-.16.16 0 .24.16l4.96 10.56q1.04 2.28 1.6 3.28.56.96 1.12 1.36.56.36 1.48.36.2 0 .2.24t-.2.24q-.72 0-2.24-.08a52 52 0 0 0-2.32-.08q-.64 0-2.08.08a38 38 0 0 1-1.92.08q-.16 0-.16-.24t.16-.24q.88 0 1.28-.2.4-.24.4-.68 0-.32-.24-.84-.2-.56-.48-1.16l-3.6-7.64 1.76-3.08-3.92 9.16q-.72 1.68-.72 2.72 0 1.72 1.92 1.72.2 0 .2.24t-.2.24q-.44 0-1.24-.08t-1.52-.08q-.84 0-1.64.08-.72.08-1.28.08m25.498.48q-2.199 0-3.48-1.36-1.24-1.4-1.24-3.64V21.6q0-2.6-1.24-2.6-.44 0-1 .28h-.04q-.159 0-.24-.2-.08-.24.04-.28l5.36-2.56.2-.04q.2 0 .4.2.24.16.24.32v8.84q0 4.32 3.32 4.32 1.12 0 2.28-.64 1.2-.64 1.88-1.68l.24.48q-1.44 2.08-3.12 3.28-1.68 1.16-3.6 1.16m9.44-5.12q0 1.36.24 1.92.28.56.88.56.56 0 1.64-.44h.08q.12 0 .2.2.12.2 0 .24l-5.52 2.68a.44.44 0 0 1-.2.04q-.44 0-.76-1.04-.28-1.04-.28-2.8V21.6q0-2.6-1.24-2.6-.44 0-1.04.28h-.04q-.12 0-.2-.2-.08-.24.04-.28l5.36-2.56a.45.45 0 0 1 .2-.04q.2 0 .4.2.24.16.24.32zm9.327 15.88q-2.84 0-4.64-.8-1.8-.76-1.8-2.24 0-1.04.56-1.56.6-.48 1.44-.48 1.16 0 1.68.52.56.52 1.08 1.6t1.08 1.64q.6.56 1.84.56 1.6 0 2.36-1.96t.76-4.88q0-7-6.84-7-.12 0-.16-.24t.16-.24q2.96 0 4.16-1.52 1.2-1.56 1.2-4.4 0-2.64-.6-4t-2.04-1.36q-.84 0-1.96.72-1.08.68-2.12 2-1.04 1.28-1.76 2.96-.04.04-.16.04-.36 0-.32-.16l1.28-6.72q0-.08.16-.08.12 0 .24.08.12.04.08.08a2 2 0 0 0-.04.44q0 .4.16.6.2.16.48.16.48 0 1.32-.32.88-.28 1.72-.44.84-.2 2-.2 2.88 0 4.44 1.56 1.56 1.52 1.56 3.8 0 2.44-1.8 4.48-1.8 2-4.76 2.6l.08-.32.72-.04q2.28 0 3.92 1 1.64.96 2.48 2.6.88 1.6.88 3.4 0 2.32-1.12 4.16-1.08 1.84-3.12 2.88-2 1.08-4.6 1.08m16.576-10.72a6 6 0 0 1-3.04-.8q-1.36-.84-2.16-2.44t-.8-3.84q0-2.84 1.32-4.96 1.32-2.16 3.48-3.28a9.9 9.9 0 0 1 4.64-1.12q2.92 0 5 1.84l-2.92 2.56q0-1.56-.88-2.56-.84-1-2.24-1-2 0-3.16 2-1.12 2-1.12 5.16 0 3 1 4.68 1.04 1.64 2.92 1.64t4.16-1.76l.32.28q-1.68 1.72-3.16 2.68-1.44.92-3.36.92m6.6.04q-.44 0-.76-1.04t-.32-2.8V17.64q1.32-.32 2-.6a4.5 4.5 0 0 0 1.36-.96q.039-.04.12-.04t.16.08q.12.04.12.12v11.4q0 1.2.24 1.72.28.48.88.48.52 0 1.64-.44h.08q.12 0 .2.2.12.2 0 .24l-5.52 2.68a.45.45 0 0 1-.2.04m16.649-16q2.04 0 3.8.96 1.8.92 2.88 2.72t1.08 4.32q0 3.64-2.16 5.8t-6.4 2.16q-2.84 0-4.72-1.08t-2.92-4-1.04-8.32q0-9 2.48-12.56t7-3.56q2.88 0 4.36 1.24t1.48 3.68q0 2.08-1.04 4.08a11.4 11.4 0 0 1-2.68 3.48q-1.64 1.44-3.48 1.92zm.04 15.24q1.76 0 2.52-1.24.8-1.28.8-4.28 0-4.32-1.76-6.44-1.72-2.16-5-2.16-1.36 0-2.24.32v-1.28q.88.12 2.2.12 1.44 0 2.64-1.12t1.88-3q.72-1.92.72-4.12 0-2.4-.76-3.64-.76-1.28-2.04-1.28-2.12 0-3.08 3.32t-.96 10.68q0 5.68.6 8.8.64 3.08 1.72 4.2 1.12 1.12 2.76 1.12m18.362.68q-2.52 0-4.36-1.04-1.84-1.08-2.8-2.84a8.1 8.1 0 0 1-.96-3.88q0-2.32 1.16-4.28a8.26 8.26 0 0 1 3.2-3.08q2.08-1.16 4.68-1.16 2.48 0 3.84 1.12t1.36 3.48q0 1.24-.44 1.24h-3.84q.08-2.44-.48-3.72-.56-1.32-1.96-1.32-1.6 0-2.56 1.64-.92 1.64-.92 4.36 0 3.52 1.6 5.52 1.64 2 4.68 2 1.08 0 1.84-.24.76-.28 2-.88l.08-.04q.08 0 .16.16.12.16.04.24-1.48 1.44-3 2.08t-3.32.64m-5.52-11.16 8.76-.16v.88l-8.72.04zM229.961 32q-.12 0-.12-.24t.12-.24q1.239 0 1.68-.56.48-.6.48-2.2V23q0-2.16-.76-3.2-.72-1.04-2.24-1.04-1.24 0-2.4.6t-1.88 1.64l-.2-.48q3.04-4.44 6.76-4.44 2.16 0 3.28 1.24 1.16 1.24 1.16 3.76v7.68q0 1.6.44 2.2.48.56 1.72.56.16 0 .16.24t-.16.24q-1.04 0-1.64-.04l-2.4-.04-2.32.04q-.64.04-1.68.04m-10.48 0q-.12 0-.12-.24t.12-.24q1.239 0 1.68-.56.48-.6.48-2.2V23q0-2.16-.76-3.2-.72-1.04-2.24-1.04-1.24 0-2.4.6t-1.88 1.64l-.2-.48q3.04-4.44 6.76-4.44 2.12 0 3.28 1.2 1.16 1.16 1.16 3.36v8.12q0 1.6.44 2.2.48.56 1.72.56.16 0 .16.24t-.16.24q-1.04 0-1.64-.04l-2.4-.04-2.32.04q-.64.04-1.68.04m-10.28 0q-.12 0-.12-.24t.12-.24q1.239 0 1.68-.56.44-.6.44-2.2v-7.52q0-1.24-.32-1.8-.28-.6-.92-.6-.681 0-1.92.56h-.08q-.12 0-.2-.2-.04-.2.04-.24l5.56-2.72q.24-.08.28-.08.48 0 .88 1.04.44 1 .44 2.68v8.88q0 1.6.44 2.2.48.56 1.72.56.12 0 .12.24t-.12.24q-1.04 0-1.64-.04l-2.4-.04-2.36.04q-.6.04-1.64.04m36.813.52a6 6 0 0 1-3.04-.8q-1.359-.84-2.16-2.44-.8-1.6-.8-3.84 0-2.84 1.32-4.96 1.32-2.16 3.48-3.28a9.9 9.9 0 0 1 4.64-1.12q2.92 0 5 1.84l-2.92 2.56q0-1.56-.88-2.56-.84-1-2.24-1-2 0-3.16 2-1.12 2-1.12 5.16 0 3 1 4.68 1.04 1.64 2.92 1.64t4.16-1.76l.32.28q-1.68 1.72-3.16 2.68-1.44.92-3.36.92m6.6.04q-.44 0-.76-1.04t-.32-2.8V17.64q1.32-.32 2-.6.72-.32 1.36-.96.04-.04.12-.04t.16.08q.12.04.12.12v11.4q0 1.2.24 1.72.28.48.88.48.52 0 1.64-.44h.08q.12 0 .2.2.12.2 0 .24l-5.52 2.68a.44.44 0 0 1-.2.04M81.08 42.92l1.16.08-.44 18.92q-.04 2.16.84 3.4.92 1.2 2.56 1.2.12 0 .12.24t-.12.24q-1.08 0-1.68-.04l-2.2-.04-2.52.04q-.64.04-1.72.04-.12 0-.12-.24t.12-.24q1.64 0 2.6-1.24t1-3.36zm28.24 23.6q.08 0 .08.24t-.08.24q-1.36 0-2.16-.04l-2.96-.04-3 .04q-.76.04-2.08.04-.12 0-.12-.24t.12-.24q1.28 0 1.88-.2.64-.24.84-.8t.12-1.76L101.04 46l2.04-3.2-10.2 23.92q-.08.16-.32.16t-.32-.16L81 45.32q-.8-1.48-1.68-2.16a3.02 3.02 0 0 0-1.96-.68q-.12 0-.12-.24t.12-.24l1.88.04q.56.04 1.44.04l2.12-.04q.36-.04.92-.04.52 0 .8.36t1.04 1.72l8.96 16.8-2 3.6L101.88 43q.24-.56.48-.76.28-.24.72-.24.36 0 .8.04.48.04 1.08.04l2.36-.04q.56-.04 1.6-.04.12 0 .12.24t-.12.24q-1.88 0-2.72.76t-.76 2.36l.96 18.16q.08 1.24.28 1.8.24.56.8.76.6.2 1.84.2m8.257 1a6 6 0 0 1-3.04-.8q-1.36-.84-2.16-2.44t-.8-3.84q0-2.84 1.32-4.96 1.32-2.16 3.48-3.28a9.9 9.9 0 0 1 4.64-1.12q2.92 0 5 1.84l-2.92 2.56q0-1.56-.88-2.56-.84-1-2.24-1-2 0-3.16 2-1.12 2-1.12 5.16 0 3 1 4.68 1.04 1.64 2.92 1.64t4.16-1.76l.32.28q-1.68 1.72-3.16 2.68-1.44.92-3.36.92m6.6.04q-.44 0-.76-1.04t-.32-2.8V52.64q1.32-.32 2-.6a4.5 4.5 0 0 0 1.36-.96q.04-.04.12-.04t.16.08q.12.04.12.12v11.4q0 1.2.24 1.72.28.48.88.48.52 0 1.64-.44h.08q.12 0 .2.2.12.2 0 .24l-5.52 2.68a.44.44 0 0 1-.2.04m27.889-1.04q.12 0 .12.24t-.12.24q-1.16 0-1.8-.04l-2.2-.04-2.12.04q-.52.04-1.48.04-.12 0-.12-.24t.12-.24q.96 0 1.36-.28.4-.32.4-1.32 0-.2-.08-1l-.88-7.44 1.64-2.36-6.2 12.88q-.04.16-.28.16-.28 0-.32-.16l-6.12-10.4.6-2.84-.72 9.08q-.24 3.68 2.72 3.68.12 0 .12.24t-.12.24a20 20 0 0 1-1.44-.04l-1.72-.04-1.68.04q-.48.04-1.36.04-.12 0-.12-.24t.12-.24q1.24 0 1.88-.92t.76-2.76l.84-11.4q0-.12.24-.2.24-.12.52-.12.4 0 .52.2l6.96 11.76-.88.88 6.08-12.64q.081-.12.36-.12.24 0 .48.12.28.08.28.16l1.44 12.28q.16 1.32.32 1.84t.56.72 1.32.2m10.016 1q-2.48 0-4.36-1.12a7.9 7.9 0 0 1-2.84-3.08q-1-1.96-1-4.24 0-2.6 1.32-4.4 1.32-1.84 3.36-2.72 2.04-.92 4.2-.92 2.48 0 4.32 1.16a7.6 7.6 0 0 1 2.8 3.08q1 1.88 1 4.04 0 2.4-1.2 4.28-1.2 1.84-3.24 2.88-2 1.04-4.36 1.04m1.2-.84q1.56 0 2.36-1.52.84-1.56.84-4.44 0-2.8-.72-4.8t-1.88-3q-1.16-1.04-2.48-1.04-3.2 0-3.2 5.72 0 2.68.68 4.76.68 2.04 1.84 3.2 1.16 1.12 2.56 1.12m20.93.32q-.12 0-.12-.24t.12-.24q.96 0 1.4-.2.48-.2.64-.76.16-.6.16-1.8V56.6q0-2.6-1.24-2.6-.44 0-1.04.28h-.04q-.12 0-.2-.2-.08-.24.04-.28l5.36-2.56a.44.44 0 0 1 .2-.04q.2 0 .4.2.24.16.24.32v12.04q0 1.2.16 1.8.16.56.6.76t1.4.2q.08 0 .08.24t-.08.24q-1.12 0-1.72-.04l-2.24-.04-2.36.04a30 30 0 0 1-1.76.04m-10.76 0q-.12 0-.12-.24t.12-.24q.96 0 1.4-.2.48-.2.64-.76.16-.6.16-1.8V56.6q0-2.6-1.24-2.6-.44 0-1.04.28h-.04q-.12 0-.2-.2-.08-.24.04-.28l5.36-2.56a.44.44 0 0 1 .2-.04q.2 0 .4.2.24.16.24.32v12.04q0 1.2.16 1.8.16.56.6.76t1.4.2q.08 0 .08.24t-.08.24q-1.12 0-1.72-.04l-2.24-.04-2.32.04q-.64.04-1.8.04m4-8.2h10.76v.96h-10.76zm38.212 8.2q-.12 0-.12-.24t.12-.24q1.239 0 1.68-.56.48-.6.48-2.2V58q0-2.16-.76-3.2-.72-1.04-2.24-1.04-1.24 0-2.4.6t-1.88 1.64l-.2-.48q3.04-4.44 6.76-4.44 2.16 0 3.28 1.24 1.16 1.24 1.16 3.76v7.68q0 1.6.44 2.2.48.56 1.72.56.16 0 .16.24t-.16.24q-1.04 0-1.64-.04l-2.4-.04-2.32.04q-.64.04-1.68.04m-10.48 0q-.12 0-.12-.24t.12-.24q1.239 0 1.68-.56.48-.6.48-2.2V58q0-2.16-.76-3.2-.72-1.04-2.24-1.04-1.24 0-2.4.6t-1.88 1.64l-.2-.48q3.04-4.44 6.76-4.44 2.12 0 3.28 1.2 1.16 1.16 1.16 3.36v8.12q0 1.6.44 2.2.48.56 1.72.56.16 0 .16.24t-.16.24q-1.04 0-1.64-.04l-2.4-.04-2.32.04q-.64.04-1.68.04m-10.28 0q-.12 0-.12-.24t.12-.24q1.239 0 1.68-.56.44-.6.44-2.2v-7.52q0-1.24-.32-1.8-.28-.6-.92-.6-.681 0-1.92.56h-.08q-.12 0-.2-.2-.04-.2.04-.24l5.56-2.72q.24-.08.28-.08.48 0 .88 1.04.44 1 .44 2.68v8.88q0 1.6.44 2.2.48.56 1.72.56.12 0 .12.24t-.12.24q-1.04 0-1.64-.04l-2.4-.04-2.36.04q-.6.04-1.64.04m39.014.52q-2.48 0-4.36-1.12a7.9 7.9 0 0 1-2.84-3.08q-1-1.96-1-4.24 0-2.6 1.32-4.4 1.32-1.84 3.36-2.72 2.04-.92 4.2-.92 2.48 0 4.32 1.16a7.6 7.6 0 0 1 2.8 3.08q1 1.88 1 4.04 0 2.4-1.2 4.28-1.2 1.84-3.24 2.88-2 1.04-4.36 1.04m1.2-.84q1.56 0 2.36-1.52.84-1.56.84-4.44 0-2.8-.72-4.8t-1.88-3q-1.16-1.04-2.48-1.04-3.2 0-3.2 5.72 0 2.68.68 4.76.68 2.04 1.84 3.2 1.16 1.12 2.56 1.12m19.81-15.12q2.04 0 3.8.96 1.8.92 2.88 2.72t1.08 4.32q0 3.64-2.16 5.8t-6.4 2.16q-2.84 0-4.72-1.08t-2.92-4-1.04-8.32q0-9 2.48-12.56t7-3.56q2.88 0 4.36 1.24t1.48 3.68q0 2.08-1.04 4.08a11.4 11.4 0 0 1-2.68 3.48q-1.641 1.44-3.48 1.92zm.04 15.24q1.76 0 2.52-1.24.8-1.28.8-4.28 0-4.32-1.76-6.44-1.72-2.16-5-2.16-1.36 0-2.24.32v-1.28q.88.12 2.2.12 1.44 0 2.64-1.12t1.88-3q.72-1.92.72-4.12 0-2.4-.76-3.64-.76-1.28-2.04-1.28-2.12 0-3.08 3.32t-.96 10.68q0 5.68.6 8.8.64 3.08 1.72 4.2 1.119 1.12 2.76 1.12m16.242.72a6 6 0 0 1-3.04-.8q-1.36-.84-2.16-2.44t-.8-3.84q0-2.84 1.32-4.96 1.32-2.16 3.48-3.28a9.9 9.9 0 0 1 4.64-1.12q2.92 0 5 1.84l-2.92 2.56q0-1.56-.88-2.56-.84-1-2.24-1-2 0-3.16 2-1.12 2-1.12 5.16 0 3 1 4.68 1.04 1.64 2.92 1.64t4.16-1.76l.32.28q-1.68 1.72-3.16 2.68-1.44.92-3.36.92m6.6.04q-.44 0-.76-1.04t-.32-2.8V52.64q1.32-.32 2-.6a4.5 4.5 0 0 0 1.36-.96q.039-.04.12-.04t.16.08q.12.04.12.12v11.4q0 1.2.24 1.72.28.48.88.48.52 0 1.64-.44h.08q.12 0 .2.2.12.2 0 .24l-5.52 2.68a.45.45 0 0 1-.2.04"/></svg>