<svg xmlns="http://www.w3.org/2000/svg" width="40" height="40" fill="none" viewBox="0 0 40 40"><path stroke="#fff" stroke-width="4" d="M2 2h36v36H2z"/><path stroke="#fff" stroke-width="2" d="M7 7h26v26H7z"/><path fill="#fff" d="m12.808 23.952.24-11.4.696.048-.264 11.352q-.024 1.272.504 2.016.552.744 1.536.744.072 0 .072.144T15.52 27q-.528 0-1.08-.024a37 37 0 0 0-2.64 0q-.624.024-1.152.024-.072 0-.072-.144t.072-.144q.984 0 1.56-.744t.6-2.016m17.184 2.76q.048 0 .048.144t-.048.144q-.624 0-1.416-.024a55 55 0 0 0-3.312 0q-.768.024-1.392.024-.072 0-.072-.144t.072-.144q1.128 0 1.44-.312.336-.312.264-1.344L25.024 14.4l1.224-1.92-6.12 14.352q-.024.096-.192.096-.144 0-.192-.096L13 13.992q-.912-1.704-2.184-1.704-.072 0-.072-.144t.072-.144q.504 0 1.056.024a22 22 0 0 0 2.016 0q.48-.024.744-.024.336 0 .504.24.192.24.6 1.008l5.376 10.08-1.2 2.16L25.528 12.6q.144-.336.288-.456a.64.64 0 0 1 .432-.144q.24 0 .504.024t.624.024q.768 0 1.296-.024a25 25 0 0 1 1.08-.024q.072 0 .072.144t-.072.144q-1.104 0-1.632.456-.504.456-.456 1.416l.576 10.896q.048.696.168 1.056.144.36.504.48t1.08.12"/></svg>