<svg xmlns="http://www.w3.org/2000/svg" width="42" height="42" fill="none" viewBox="0 0 42 42"><g fill="#fff" clip-path="url(#a)"><path d="M18.933 29.584c-3.256-.34-6.192-1.142-8.705-3.108-.312-.244-.634-.48-.919-.753-1.1-1.057-1.21-2.267-.34-3.514.744-1.067 1.994-1.353 3.294-.74.251.119.491.267.72.426 4.685 3.219 11.12 3.308 15.822.145.466-.357.964-.648 1.54-.797 1.123-.288 2.17.124 2.772 1.106.688 1.121.679 2.216-.169 3.086-1.3 1.335-2.864 2.3-4.602 2.974-1.642.637-3.442.958-5.223 1.17.269.293.395.437.563.606 2.419 2.43 4.848 4.85 7.259 7.287.82.83.992 1.86.54 2.826-.494 1.056-1.601 1.75-2.686 1.676-.688-.047-1.224-.39-1.7-.87-1.825-1.836-3.685-3.639-5.473-5.51-.52-.544-.77-.441-1.23.031a366 366 0 0 1-5.579 5.602c-.843.831-1.845.98-2.823.506-1.039-.504-1.7-1.564-1.649-2.63.035-.721.39-1.272.885-1.766q3.588-3.587 7.167-7.18c.158-.159.306-.328.536-.573"/><path d="M20.916 21.259c-5.808-.02-10.571-4.835-10.538-10.653C10.412 4.724 15.178-.016 21.044 0 26.92.016 31.639 4.824 31.61 10.767c-.03 5.806-4.826 10.512-10.694 10.492m5.279-10.639a5.177 5.177 0 0 0-5.194-5.191 5.185 5.185 0 0 0-5.206 5.253c.022 2.878 2.342 5.162 5.233 5.151a5.166 5.166 0 0 0 5.167-5.213"/></g><defs><clipPath id="a"><path fill="#fff" d="M0 0h42v42H0z"/></clipPath></defs></svg>