<svg xmlns="http://www.w3.org/2000/svg" width="39" height="35" fill="none" viewBox="0 0 39 35"><g clip-path="url(#a)"><path fill="#fff" d="m.684 16.283 8.966 3.334 3.496 11.214c.151.757 1.063.909 1.671.454l5.015-4.091c.456-.455 1.216-.455 1.824 0l8.966 6.516c.608.454 1.52.151 1.672-.606L38.98 1.28c.151-.758-.608-1.516-1.368-1.213L.683 14.313c-.911.303-.911 1.667 0 1.97M12.69 17.95 30.318 7.19c.304-.15.608.304.304.455L16.185 21.132c-.456.455-.912 1.06-.912 1.819l-.456 3.637c0 .454-.76.606-.912 0l-1.823-6.668c-.456-.758-.152-1.667.608-1.97"/></g><defs><clipPath id="a"><path fill="#fff" d="M0 0h39v35H0z"/></clipPath></defs></svg>