<svg xmlns="http://www.w3.org/2000/svg" width="54" height="54" fill="none" viewBox="0 0 54 54"><path fill="#fff" d="M27 16.5a10.4 10.4 0 0 0-2.929.469 5.2 5.2 0 0 1 .679 2.531 5.25 5.25 0 0 1-5.25 5.25 5.2 5.2 0 0 1-2.531-.679 10.472 10.472 0 1 0 10.03-7.571m26.674 9.131C48.59 15.711 38.524 9 27 9 15.475 9 5.407 15.716.326 25.632a3.03 3.03 0 0 0 0 2.737C5.41 38.289 15.476 45 27 45c11.525 0 21.592-6.716 26.674-16.632a3.03 3.03 0 0 0 0-2.737M27 40.5c-9.248 0-17.727-5.156-22.306-13.5C9.273 18.656 17.751 13.5 27 13.5S44.727 18.656 49.306 27C44.728 35.344 36.249 40.5 27 40.5"/></svg>