<svg xmlns="http://www.w3.org/2000/svg" width="42" height="26" fill="none" viewBox="0 0 42 26"><path fill="#fff" d="M41.345 21.752c0-.166-.166-.166-.166-.332-.664-1.328-2.158-2.989-4.15-4.815-.997-.83-1.495-1.495-1.827-1.827-.498-.664-.498-1.162-.332-1.826.166-.499.83-1.329 1.992-2.823.664-.83.996-1.329 1.495-1.827 2.49-3.32 3.653-5.48 3.32-6.476l-.166-.166c-.166-.166-.332-.332-.664-.332-.332-.166-.83-.166-1.328 0h-7.472l-.166.166c-.166.166-.166.166-.166.332-.664 1.827-1.495 3.321-2.325 4.982-.498.83-.996 1.66-1.494 2.325-.498.664-.83 1.162-1.163 1.494-.332.332-.664.498-.83.83-.166.166-.498.332-.498.166-.166 0-.332 0-.332-.166l-.498-.498c-.166-.166-.166-.498-.332-.83V1.826c0-.166-.166-.498-.166-.664l-.498-.498c-.167-.166-.499-.166-.665-.332C22.084.166 21.088 0 19.925 0c-2.656 0-4.483.166-5.147.498-.332.166-.664.332-.83.664-.332.332-.332.498-.166.498.83.167 1.494.499 1.826.997l.166.332c.166.166.166.498.332.996s.166.996.166 1.66v2.657c0 .83-.166 1.329-.166 1.827s-.166.83-.332.996c-.166.332-.166.498-.332.498 0 0 0 .166-.166.166s-.332.166-.664.166c-.166 0-.498-.166-.664-.332a2 2 0 0 1-.83-.83q-.499-.498-.997-1.494c-.332-.665-.83-1.329-1.162-2.325l-.332-.664a24 24 0 0 1-.83-1.827c-.332-.83-.664-1.494-.997-2.324a2.3 2.3 0 0 0-.498-.665h-.166s-.166-.166-.332-.166-.332-.166-.498-.166H1.328c-.664 0-.996.166-1.162.332L0 1.66v.333c0 .166 0 .332.166.664.83 1.992 1.827 3.985 2.823 5.977.996 1.827 1.992 3.487 2.657 4.65.83 1.162 1.494 2.324 2.324 3.32q1.246 1.495 1.495 1.993l.664.664.498.498c.332.333.83.83 1.494 1.329.665.498 1.495.996 2.325 1.494s1.827.83 2.823 1.163c1.162.332 2.158.498 3.155.332h2.49c.498 0 .83-.166 1.163-.498l.166-.167c0-.166.166-.166.166-.332v-.664c0-.664 0-1.162.166-1.66s.166-.83.332-1.163c.166-.332.332-.498.498-.664l.332-.332h.166c.332-.166.83 0 1.162.332.499.332.997.83 1.329 1.329.332.498.83.996 1.494 1.66s1.163 1.162 1.495 1.328l.498.333a8 8 0 0 0 1.162.498c.498.166.83.166 1.162.166l5.646-.166c.498 0 .996-.166 1.328-.332s.498-.333.498-.665v-.664c-.332-.332-.332-.498-.332-.664"/></svg>