<svg xmlns="http://www.w3.org/2000/svg" width="361" height="361" fill="none" viewBox="0 0 361 361"><path fill="#096087" stroke="#096087" d="M187.642 43.527c2.811-7.015 13.06-5.938 14.351 1.508l10.767 62.078c.937 5.406 6.673 8.52 11.717 6.363l57.927-24.78c6.949-2.973 13.434 5.035 9.082 11.213l-36.283 51.51c-3.159 4.485-1.305 10.744 3.787 12.785l58.483 23.438c7.015 2.811 5.938 13.06-1.508 14.351l-62.079 10.767c-5.405.937-8.519 6.673-6.362 11.717l24.781 57.927c2.972 6.949-5.036 13.434-11.215 9.082l-51.509-36.283c-4.485-3.159-10.743-1.305-12.784 3.787l-23.438 58.483c-2.812 7.015-13.06 5.938-14.352-1.508l-10.766-62.079c-.938-5.405-6.675-8.52-11.719-6.362l-57.927 24.781c-6.948 2.972-13.433-5.036-9.08-11.215l36.282-51.509c3.159-4.485 1.305-10.743-3.787-12.784l-58.483-23.438c-7.015-2.812-5.938-13.06 1.508-14.352l62.078-10.766c5.406-.938 8.52-6.675 6.363-11.719l-24.78-57.927c-2.973-6.948 5.035-13.432 11.213-9.08l51.51 36.282c4.485 3.159 10.744 1.305 12.785-3.787z"/><path fill="#fff6e6" d="M190.399 47.564c1.874-4.677 8.707-3.959 9.568 1.006l11.806 68.076c.552 3.179 3.926 5.012 6.893 3.742l63.524-27.175c4.633-1.981 8.956 3.358 6.055 7.477l-39.789 56.486c-1.858 2.638-.768 6.32 2.228 7.52l64.134 25.703c4.676 1.874 3.958 8.706-1.006 9.567l-68.076 11.807c-3.18.552-5.012 3.926-3.743 6.893l27.175 63.524c1.982 4.632-3.357 8.956-7.476 6.054l-56.486-39.788c-2.638-1.859-6.32-.768-7.52 2.228l-25.703 64.133c-1.874 4.677-8.707 3.959-9.568-1.005l-11.807-68.076c-.551-3.18-3.925-5.012-6.893-3.743l-63.523 27.175c-4.633 1.981-8.956-3.358-6.055-7.477l39.789-56.485c1.858-2.639.768-6.32-2.228-7.521l-64.134-25.702c-4.676-1.875-3.958-8.707 1.006-9.568l68.076-11.807c3.18-.551 5.012-3.926 3.743-6.893L93.214 80.191c-1.982-4.632 3.357-8.955 7.476-6.054l56.486 39.788c2.638 1.859 6.32.768 7.52-2.227z"/><path fill="#096087" stroke="#096087" d="M183.418 102.538c1.401-4.683 8.214-4.087 8.781.768l4.475 38.301c.45 3.86 4.653 6.048 8.073 4.203l33.941-18.303c4.302-2.32 8.697 2.918 5.666 6.752l-23.92 30.248c-2.41 3.048-.985 7.565 2.737 8.679l36.943 11.058c4.683 1.402 4.087 8.214-.768 8.781l-38.302 4.475c-3.859.451-6.047 4.653-4.203 8.073l18.304 33.942c2.32 4.302-2.918 8.697-6.752 5.665l-30.247-23.919c-3.048-2.411-7.566-.986-8.681 2.737l-11.057 36.942c-1.402 4.683-8.214 4.087-8.781-.768l-4.475-38.301c-.451-3.86-4.653-6.047-8.073-4.203l-33.942 18.303c-4.302 2.32-8.697-2.918-5.665-6.751l23.919-30.248c2.411-3.048.986-7.566-2.737-8.68l-36.942-11.058c-4.683-1.402-4.087-8.214.768-8.781l38.301-4.475c3.86-.451 6.047-4.652 4.203-8.072l-18.304-33.943c-2.319-4.302 2.918-8.696 6.752-5.665l30.248 23.92c3.048 2.41 7.566.985 8.68-2.738z"/><path fill="#fff6e6" d="M184.872 105.997c.935-3.122 5.476-2.725 5.854.512l4.938 42.274c.246 2.105 2.539 3.298 4.404 2.292l37.461-20.202c2.869-1.546 5.799 1.946 3.778 4.502l-26.4 33.384c-1.315 1.662-.538 4.127 1.492 4.735l40.774 12.204c3.122.934 2.725 5.476-.512 5.854l-42.273 4.938c-2.106.246-3.299 2.539-2.293 4.404l20.202 37.461c1.547 2.869-1.945 5.799-4.501 3.778l-33.385-26.401c-1.662-1.314-4.127-.537-4.734 1.493l-12.205 40.774c-.934 3.122-5.475 2.725-5.853-.512l-4.939-42.274c-.246-2.105-2.538-3.298-4.404-2.292l-37.461 20.202c-2.868 1.547-5.798-1.945-3.777-4.502l26.4-33.384c1.315-1.662.538-4.127-1.493-4.735l-40.774-12.204c-3.122-.934-2.725-5.475.512-5.854l42.274-4.938c2.105-.246 3.298-2.538 2.292-4.404l-20.201-37.461c-1.547-2.868 1.945-5.799 4.501-3.777l33.384 26.4c1.663 1.315 4.127.537 4.735-1.493z"/></svg>