<svg xmlns="http://www.w3.org/2000/svg" width="348" height="429" fill="none" viewBox="0 0 348 429"><path fill="#fff" d="M279.342 259.256c2.012 5.135 4.289 10.563 6.732 16.237 3.987 10.43 10.541 14.712 21.299 25.8.796 1.084 2.253 2.236 3.115 6.087.378 1.901.027 4.18-.575 5.612-.595 1.479-1.25 2.379-1.801 3.103-4.695 5.938-10.784 9.12-16.453 11.199-14.122 3.481-21.41-1.832-28.995-4.242-7.031-2.868-5.566-2.622-7.577-3.599-.744-.357-1.84-.844-3.5-1.851-13.093-9.97-15.612-19.601-22.467-28.759a12 12 0 0 0-.555-.785c-.129-.175-.232-.24.035-.046.245.184.898.494 1.464.587.571.106.968.067 1.151.029.374-.089.095-.162-.151-.257-.251-.098-.457-.207-.057-.256.191-.029.576-.062 1.005-.186.426-.114.792-.336.757-.329l-.016.008c-7.743 4.874-11.482 15.664-20.461 25.691-5.604 5.752-13.395 6.938-19.588 6.803-3.83-.075-7.736-.772-11.472-2.274-1.873-.756-3.696-1.702-5.464-2.948a20.3 20.3 0 0 1-2.627-2.194c-.873-.94-1.753-1.683-2.746-3.965q-.076-.197-.147-.396c-1.759-5.093.2-9.466 1.501-12.139 1.44-2.839 2.958-5.117 4.412-7.385 2.927-4.493 5.667-8.766 8.14-13.254 1.763-3.204 2.674-5.844 2.419-8.588.036.117-.093-.457-.384-.999a9.7 9.7 0 0 0-1.126-1.703c.014-.418-2.605-1.153-5.939-.645-8.846 1.069-17.429 6.537-30.147 8.154-11.553.381-21.372-4.917-29.046-11.84-2.598-2.447-4.48-5.181-5.715-8.708-1.43-3.568-.27-8.655 1.773-11.233 11.292-13.563 26.584-16.562 35.309-24.718 2.762-.412-2.319-7.675-8.118-12.352-5.813-5.054-12.291-9.791-18.672-14.81-9.197-7.711-18.438-12.044-28.553-23.282-1.788-2.511-1.774-6.722-.747-8.948 3.091-6.073 6.528-6.76 9.218-8.884 13.241-6.973 23.69.335 32.404 2.318 5.431 1.493 10.396 3.479 14.893 4.245 2.07.392 4.463-.637 6.68-2.878 4.62-4.454 3.797-8.631 4.223-18.438q.063-.407.152-.827c1.307-6.933 5.376-13.841 10.275-18.943 5.177-5.715 13.149-7.703 19.917-7.619 3.982.141 6.006 2.211 7.588 3.688 1.56 1.58 2.728 3.192 3.806 4.803 2.13 3.223 3.845 6.483 5.493 9.731 3.283 6.446 6.156 13.204 9.531 18.784a1.66 1.66 0 0 0-.549-.511c-.219-.12-.344-.127-.325-.124.038.019.513.008 1.048-.117 1.116-.245 2.488-.776 3.848-1.388 2.742-1.242 5.532-2.8 8.294-4.393 5.526-3.207 10.968-6.6 16.399-9.835 2.866-1.699 5.879-3.308 9.329-4.394 5.492-1.415 2.121-1.142 3.174-1.44a25 25 0 0 1 3.511-.484c6.273-.299 8.388.69 10.093 1.287 1.701.778 3.091 1.138 7.611 3.864.53.347 1.061.727 1.594 1.162 5.629 4.745 9.092 11.186 9.558 19.13-.387 4.48-2.669 5.811-4.167 7.341-1.652 1.43-3.282 2.52-4.933 3.56-3.303 2.057-6.617 3.791-9.94 5.497-6.609 3.396-13.358 6.522-19.321 10.157-.347.21-.646.487-.784.675-.07.088-.092.153-.068.09.016-.058.107-.293.018-.754-.153-.671-.383-.899-.455-1-.076-.088-.071-.07-.023-.033.103.086.34.245.625.407.564.323 1.263.652 1.996.969 1.462.63 3.059 1.217 4.646 1.773 3.197 1.115 6.466 2.14 9.721 3.145 6.517 2.005 12.981 3.919 19.285 5.855 1.43.439 2.837.905 4.229 1.396 14.606 5.86.661-1.664 14.711 5.908.948.566-2.864-.796.897 1.336 4.39 2.567 10.727 6.473 15.946 11.814 3.264 3.791 2.713 7.471 2.631 10.143-.369 4.292-2.424 7.242-3.725 9.025-2.665 3.456-4.967 5.463-6.876 7.274-5.82 5.094-11.169 7.044-21.333 6.802-2.428-.057-5.247-.263-6.503.06-.841.214-1.925.755-2.63 1.319-.241.178-.221.279-.097-.031.054-.146.077-.364.061-.493-.014-.133-.042-.173-.028-.138 3.745 6.732 17.498 10.035 27.323 15.291 3.091 1.549 6.094 3.17 8.991 4.964 3.695 2.41-.808-1.523 5.088 2.567 2.586 1.792 7.938 6.768 9.961 12.541 2.144 5.551-.286 9.579-1.707 12.345-1.626 2.821-3.311 4.814-4.431 6.098-4.33 4.661-2.925 2.229-3.759 2.979q-.37.304-.77.641c-11.985 7.789-30.277-1.472-32.791-1.514-6.06-2.128-11.849-4.508-17.474-6.885-6.741-2.739-13.537-6.853-18.012-5.893-10.15 2.305-15.69 15.972-19.978 27.32-3.597 9.034-8.545 16.617-14.07 24.104-2.67 3.632-6.895 4.775-9.556 5.716-8.766 1.95-14.282-1.577-20.369-3.861-4.014-1.758-7.907-3.728-11.757-5.773-6.773-3.96-8.881-10.711-10.359-16.64-4.05-20.671 12.247-34.972 18.165-48.91.193-.423.182-.694.181-.607-.001.097.137.306.172.311-2.354-1.74-8.133-.653-12.95.705-6.066 1.672-12.117 3.876-18.635 5.071-13.86 2.337-27.102 4.357-41.23 2.891-6.224-1.013-12.798-2.661-17.613-9.064-1.885-2.982-3.567-6.103-4.717-9.744-.876-3.513.343-5.646 1.155-7.568.912-1.893 1.975-3.548 3.074-5.146 2.207-3.18 4.592-6.11 7.025-9.043 2.573-3.07-1.032.029 2.122-3.704 1.189-1.401 2.379-2.79 3.563-4.177 9.853-11.635 25.283-13.624 37.135-16.157 4.616-1.105 9.701-2.395 12.457-4.332.011-.003-.102.057-.291.355-.192.284-.368.883-.329 1.317.028.425.139.615.154.649.02.033-.029-.053-.123-.167-.421-.519-1.378-1.309-2.374-2.014-2.038-1.443-4.394-2.826-6.766-4.218-4.76-2.83-9.725-5.451-14.523-9.475-7.741-6.827-16.646-12.353-24.77-20.339-7.214-7.433-12.977-16.295-16.258-26.299-1.545-5.289 1.054 1.324-.306-3.967-.466-2.073-.82-4.262-.869-6.634.986-12.647 13.66-16.098 22.235-20.22 10.638-3.6 19.341 1.767 27.595 3.861 11.901 3.855 22.176 7.463 30.03 6.076 1.94-.223 3.718-.734 5.217-1.31 6.847-1.397 14.378-4.565 20.576-9.001 5.767-3.924 7.956-10.09 14.761-16.69 8.152-5.165 15.722-2.11 21.387-.313l.353.13c6.059 2.437 5.877 3.089 6.233 3.4.227.546 1.358.293 7.475 5.655 2.539 2.668-.117-1.451 3.467 2.889 2.572 3.4 4.289 7.371 5.699 11.102 4.518 19.354-7.066 33.901-10.163 49.173-.449 1.477-.452 3.036-.315 2.932l.032.049c-.061-.094.286.179.536.239.268.09.474.103.627.09.294-.037.376-.172.802-.052 8.273 2.092 26.019 4.053 29.56 4.519 5.287.495 10.327.903 15.209 1.28 5.394.42 10.865 1.199 15.863 3.33 10.91 7.934 11.768 17.986 14.924 27.904 1.379 5.151-1.128 10.232-3.315 13.741-.682 1.144-1.492 2.056-2.33 2.866-5.389 4.43 1.558.047-3.81 3.917-7.895 4.924-16.186 7.791-24.416 10.742-8.523 3.131-17.711 1.35-23.978 2.491-2.732.534-5.329 2.577-6.517 4.938-.806 1.549-.762 4.172-.087 6.737-.419-.074 1.595 1.656 3.428 2.733 1.902 1.188 3.912 2.32 5.945 3.445a451 451 0 0 0 6.657 3.583c5.894 3.111.142.89 2.95 2.407 12.401 6.669 15.773 6.876 27.688 13.465.826.463 1.204.752 1.336.927.291.369-.385.3-.087.508 6.816 4.684 13.404 8.128 15.06 10.238 1.178 1.333 2.343 3.005 2.849 5.106.954 5.412-1.904 8.512-3.689 11.109-2.015 2.604-4.119 4.758-6.205 6.82-4.187 4.095-8.321 7.713-12.477 11.42-7.59 6.444-17.101 10.116-28.775 10.054-2.879-.21 2.26.774-2.183.493a13.3 13.3 0 0 1-3.414-.865c-8.983-4-12.094-12.59-15.767-19.098-.272-.504-.536-.932-.745-1.185-.216-.26-.314-.322-.458-.394-2.962-1.518-8.496 1.357-12.795 4.442-4.484 3.184-8.749 6.966-13.024 10.788-10.283 8.391-17.289 19.026-30.404 26.288-17.45 5.419-31.303-4.576-43.983-11.455-8.596-6.082-10.335-15.509-10.14-24.569.453-2.484 1.428-3.472 2.237-4.753 5.517-7.268 2.038-1.725 2.432-2.169 4.132-4.23 6.718-7.848 8.458-10.599.976-1.526 1.645-2.724 2.231-3.547 6.948-9.815 13.523-21.232 11.741-30.772.01-.408-1.69-1.722-3.174-2.443-1.549-.806-3.196-1.496-4.828-2.135a115 115 0 0 0-9.501-3.192 85 85 0 0 0-2.276-.626c-11.414-4.369-23.021-8.172-34.833-11.169-7.1-1.711-13.276-6.158-18.096-10.984-8.339-8.318-15.042-18.293-18.158-30.036-2.373-9.322 2.755-18.428 8.985-24.107 8.791-8.267 20.828-10.319 31.285-12.231 8.927-1.7 17.92-4.475 24.593-9.959 1.11-.841 1.857-3.329 2.604-5.986-2.74-9.804-10.239-24.322-15.367-36.632-1.659-4.5-4.613-9.059-2.911-15.382 7.098-14.055 20.585-18.547 32.479-24.231 2.516-1.065 5.208-1.487 7.805-1.51 1.287.006-.984.667 1.533.724 23.401 4.294 23.469 7.484 32.424 10.383 2.802 1.299 5.073 3.675 7.607 6.845 2.898 3.574 7.997 14.639 9.584 17.798l.393.799c2.125 4.29-1.3.579-.537 1.987 6.292 11.425 7.735 8.767 17.073 22.868.304.405-1.464-.899-.688.214.359.505.73.97 1.093 1.342.342.371.777.632.737.597 2.777.815 5.698.602 8.827.366 9.424-.856 13.536-.393 26.49-2.388q1.566-.239 3.332-.481c2.01-.111-1.232-2.473 14.962-2.164 4.362.087 18.714 1.209 29.831 3.619 6.277 1.429 10.025 5.199 11.963 7.026 5.627 6.13 1.25 2.369 1.663 2.813a51 51 0 0 1 3.053 4.09c2.319 3.692 2.35 6.376 2.565 8.122.126 1.776.038 2.787-.063 3.615-.247 1.656-.471 2.657-1.29 7.415-2.146 10.331.761 7.786.444 12.143-.184 1.969-1.017 6.166-2.091 10.465-1.229 5.697-5.542 10.192-7.205 11.464-3.085 2.41.336-1.032-2.37 1.063-9.438 6.13-12.025 6.504-12.252 7.405-.339.696 1.151.813-2.219 2.464a92 92 0 0 1-2.361 1.101c-17.038 5.544-29.838.035-44.914-.486-3.859-.238-1.437.255-3.68.269-.256.002-.569-.001-.951-.008-8.512-.069-15.469.052-21.875 2.711-2.034.931-2.804 3.884-3.618 7.042-.695 2.447.18 5.447 2.085 8.106.199.28.521.695.969 1.196 1.821 2.682 8.802 4.526 15.4 6.595 2.062.676 4.054 1.356 5.824 2.045 1.196.455-2.453.04 3.756 1.789 7.792 2.19 21.177 4.894 31.401 5.497 1.978.119 3.828.314 5.492.528 7.686 1.209-.917-1.376 8.648.973 4.192 1.206-3.717-.384 4.103 1.929 4.573 1.445 13.366 4.401 20.599 8.77 5.149 3.626 6.469 9.356 7.368 12.369 1.622 7.774 1.325 3.442 1.532 4.051.334 1.529.816 4.885.732 8.504.128 5.685-2.811 11.616-3.352 12.248-5.168 8.061-13.327 11.963-19.709 17.097-4.016 3.234-9.343 4.738-14.095 5.043-18.532-2.139-32.339-11.553-47.493-18.506-2.336-1.163-4.978-1.857-7.151-1.283-6.599 2.718-6.759 13.85-10.074 21.752-4.345 10.29-6.712 20.85-13.467 30.99-11.6 6.774-23.34.919-34.137-2.19-.508-.183-1-.428-1.455-.739-1.342-.955-1.796-1.78-2.122-2.155-.303-.39-.415-.44-.464-.337-.105.198.175 1.016-.086.582-2.384-4.886-1.817-7.34-1.933-8.77.05-1.405.27-1.728.509-1.865.514-.277.996.059 1.367-6.018-1.416 1.752-1.096-5.521-.458-17.794l.015-.333c.274-5.503-.443-2.436-.464-2.971-.161-8.901 1.722-14.909 2.12-16.442 1.515-5.696 1.536-12.09 2.624-15.933 1.066-3.837.615 5.298 2.177-6.401-.118-3.324-2.371 5.129-1.625-3.667.103-1.701.179-3.487.023-5.155-.188-1.984-.511-4.471-1.245-5.182-7.769 1.308-23.661 8.291-36.488 13.786-15.219 6.824-30.781 14.143-44.15 19.227-8.297 3.272-16.207 4.561-22.317 4.619a64 64 0 0 1-6.498-.24c-1.182-.076-2.574-.623-3.412-1.64-.846-.994-1.143-2.102-1.369-2.958-1.828-9.942 1.719-16.433 3.939-22.023 2.562-5.571 5.275-10.313 9.3-15.744 1.103-1.449 2.166-2.77 3.31-3.893 9.014-7.596 13.252-7.436 15.773-8.83 2.718-1.032 4.724-2.015 12.941-3.77 4.668-.969 7.514-1.326 9.226-1.412 4.546-.291.852 1.799 2.736 1.812 2.581-.018 5.114-1.246 8.138-2.088 3.027-.912-3.182 2.032 3.732-.774 3.201-1.499 9.257-4.59 12.75-10.084.412-.734.095-1.458-.153-1.856-.271-.43-.577-.743-.886-1.037-.627-.584-1.271-1.044-1.918-1.48-1.279-.85-2.536-1.542-3.651-2.124-2.25-1.166-3.967-1.894-4.616-2.092-5.421-1.502 2.204 3.404-14.969-5.318-1-.493 2.537.466-1.292-1.383a489 489 0 0 0-6.373-3.001c-13.327-6.159-26.269-13.759-37.942-22.989-6.46-4.99-12.311-11.85-13.69-20.208-.236-10.696 10.035-15.549 17.058-20.45 3.993-2.415.81.367 3.141-1.007 5.568-3.213 9.527-5.243 12.326-6.79 4.753-2.338 6.788-2.384 8.75-3.03 2.006-.494 4.237-1.181 10.349-1.007-3.384 1.058 3.699 3.717 23.559 6.314.838-.027 1.724-.059 2.723-.357 1.029-.284 2.005-1.067 2.467-1.886.486-.817.672-1.574.81-2.25.249-1.344.259-2.41.258-3.331-.117-4.884-.604-5.341-1.326-11.384-.247-2.474-.79-11.571-1.433-13.151-2.044-5.19-1.645 3.455-5.186-18.27-.156-.962 1.041 1.967.457-1.342l-.34-1.957c-1.238-6.677.226-12.257 3.134-15.852 6.139-7.004 12.924-10.337 28.283-12.61a89 89 0 0 1 2.079-.237c10.169-1.037 22.604 3.105 33.828 9.112 4.022 2.001 5.067 6.883 4.81 10.175-.189 3.492-1.09 6.642-2.083 9.608-2.039 5.918-4.641 11.125-6.917 15.672-.546-.459-2.059 1.613-3.732 4.758-1.326 2.617-3.289 5.769-3.663 9.223-.485 4.072 1.715 7.74 3.427 9.671.879 1.465 1.931 2.872 3.088 4.227 2.717 3.097 9.687.143 15.08-1.066 5.692-1.494 11.518-2.63 17.166-2.92q.546-.03 1.077-.045c4.665-.011 1.593.603 2.181.65 8.791 1.05 14.633 2.717 17.288 4.518.666.463 1.316.975 1.914 1.597 1.976 2.02 3.26 4.641 3.994 7.174 1.64 7.47-2.863 12.923-5.668 18.089-3.157 5.154-6.459 10.015-9.707 14.908-.622.938-1.214 1.932-1.438 2.78-.109.426-.091.701.009.911.097.22.389.515.801.794 9.123 6.358 19.556 10.743 29.528 17.986.725.662 2.99.491 7.008 5.984.405.589.804 1.244 1.186 1.974.104.196-.824-.981-1.559-1.673-.641-.608-1.053-.904-.257.207.589.887 2.001 2.613 3.612 6.247 1.384 3.096 2.278 7.117 2.838 11.382.499 3.201-.944 6.19-2.172 8.836-6.494 6.683-14.797 8.528-22.012 13.001-.44.24-.822.562-.914.764-.045.1-.041.116-.026.188a1 1 0 0 0 .216.351c.54.601 1.565 1.118 2.526 1.475 2.627.969 5.51.919 8.155.511 3.629-.383 10.965-3.603 18.671-6.286 2.346-.756 4.696-1.007 6.88-1.027 1.337.007-.074.495 1.834.584 6.098.41 9.435-.658 16.459.81.687.143 1.453.286 2.286.42 4.731.689 11.578 3.699 16.544 10.835 2.442 3.885-1.254 10.194-3.487 16.462-.082.242-.282 1.15-.51 2.55-.228 1.802-1.251 4.671-3.992 6.715-.282.216-.59.43-.901.623-7.415 4.417-19.125 4.331-28.105 7.69-1.777.667-3.34 1.688-4.526 2.935-1.678 1.871-1.581 2.472-1.438 2.472.179.026.616-.354.404 0-4.179 7.813-1.86 16.588-3.255 24.744-3.078 12.746-5.988 25.183-14.586 36.1-5.169 3.899-11.991 4.567-18.737 4.282-3.201-.184-6.456-.873-9.641-2.026-1.878-.661-4.778-1.808-8.154-3.38-8.332-3.769-14.405-15.116-17.661-23.281-4.115-10.811 1.121-4.652-4.25-18.441-.317-.795-.645-1.646-1.275-2.739-.331-.545-.731-1.196-1.55-1.905-.798-.727-2.177-1.235-3.14-1.284-2.568-.225-5.404.052-8.413.724-7.981 1.817-15.465 6.678-25.666 10.091-7.177 2.372-15.286 4.768-24.85 6.036-3.355.757-6.718 1.496-10.054 1.295-6.513-.573-12.613-3.6-18.485-6.428-2.637-1.344-4.186-4.198-6.061-6.685-4.253-7.794.9-17.359 4.919-24.818 1.906-3.238 4.423-6.29 5.507-10.226.486-1.681-.193-3.554-1.304-4.734-8.504-6.885-19.228-5.799-28.65-9.555-6.107-2.028-11.561-6.038-16.534-10.453-1.068-.957-4.127-3.072-6.762-5.785a16.3 16.3 0 0 1-2.702-3.695c-3.226-6.616-3.08-10.832-3.264-15.884-.016-2.309.175-4.603.656-6.822 2.947-9.622 12.548-14.077 20.218-18.835 7.534-4.52 15.978-7.295 24.687-9.114 5.876-1.263 5.724-.85 9.477-1.56 1.133-.222 2.608-.649 4.595-1.512a38 38 0 0 0 6.093-3.372c4.992-4.22 4.28-11.038 3.73-20.038-.661-7.216-1.358-14.566-3.273-23.077a52 52 0 0 0-2.66-8.326c-1.365.079-4.618-6.602-11.645-17.688a142 142 0 0 1-1.702-3.234c-1.336-2.655-.449.455-1.106-.797-2.63-5.131-4.321-10.158-5.638-15.599-.223-1.406-.874-1.266-.663-2.958l.012-.05c1.324-5.766 7.683-9.519 12.11-12.227 4.462-2.72 8.614-3.658 9.837-3.961 3.215-.744 5.913-1.122 8.37-1.13 5.25.214 8.717 2.463 12.99 5.27 6.251 4.373-3.524-1.487 3.846 3.497 3.351 2.276 6.934 4.63 10.773 6.9 2.335 1.443 5.427 2.766 8.459 2.099 10.186-2.39 18.153-9.532 26.075-14.835a88 88 0 0 1 8.162-5.114c6.556-3.46 1.779-1.704 2.708-2.215 10.027-5.105 21.332-8.422 30.009-7.516 3.278.749 4.926 3.6 6.411 5.37 1.396 10.578 3.863 8.669 9.577 26.499.319 1.013.615 2.1.877 3.256.343 1.759-.631 4.11-2.628-2.051l-.203-.564c-2.314-6.238-4.672-15.903-8.622-23.739-.307-.58-1.139-1.987-2.319-3.427-1.133-1.45-2.867-2.716-3.69-2.53-1.985-.09-4.138.371-4.688.44-12.091 2.402-14.577 1.904-15.314 1.766-6.106.927-15.032 6.424-19.801 10.503-1.56 1.275-2.814 2.308-3.591 2.89-7.303 5.264-13.855 10.752-22.71 12.756-3.379.802-7.169-.76-9.515-2.2-4.755-2.713-9.246-5.6-13.695-8.333-7.233-4.373-9.778-4.256-13.068-4.116a47 47 0 0 0-2.532.306c-4.974.79-9.422 2.595-12.729 4.595-5.234 3.177-9.505 5.799-10.715 9.142.046-.193.016-.164.008-.1a2 2 0 0 0-.017.337 9 9 0 0 0 .083 1.014c.101.754.268 1.552.473 2.373.412 1.64.973 3.347 1.637 5.08 1.34 3.483 3.111 7.137 5.467 11.097.718 1.189 1.606 2.466 2.576 3.825 2.86 4.566 2.745-1.842 9.806 17.324.132.447.779 2.614 1.467 5.65 1.183 5.178 2.714 12.87 4.098 18.15.276 1.037.785.92 1.038 2.322.782 4.506 1.094 8.414.874 12.607-.567 4.022.085 9.355-6.508 14.583a56 56 0 0 1-1.183.755c-3.134 1.889-6.386 3.711-10.832 4.93-7.378 1.888-14.818 3.23-21.492 5.497-3.771 1.233-8.142 2.825-11.547 4.417-2.204 1.025-3.987 1.838-5.06 2.386-7.092 3.427-13.006 9.607-13.82 13.352-.193.659-.368 1.296-.545 1.89-.677 2.508-1.059 1.283-1.535 1.029-.328-.236-1.51.605-.893 8.026 1.409.349 2.981 1.287 4.477 1.74.818 3.618 2.269 7.074 4.318 9.621 5.55 6.692 12.98 13.167 20.418 15.831 4.641 1.547 9.27 2.795 14.119 3.917 4.642 1.377 10.573 1.266 16.08 6.88 1.68 1.712 3.025 5.193 2.142 8.15-1.434 5.056-4.164 8.174-5.886 11.206a52 52 0 0 0-4.351 9.455c-1.083 3.523.612.177-.304 3.853-.743 3.165-.443 6.161.214 6.815 2.055 2.902 3.636 5.102 4.393 5.372 5.62 2.818 11.693 5.726 16.735 6.186 3.203.257 7.515-.78 11.99-1.87 6.865-1.727 14.063-3.84 21.402-5.941 7.639-2.149 15.032-5.37 23.599-7.696 2.785-.22 6.669-.992 11.904-.422 1.023.086 2.617.543 3.774 1.418 1.166.859 1.782 1.749 2.224 2.439.85 1.393 1.219 2.401 1.635 3.423 3.89 9.844 8.756 21.807 14.092 29.744 3.066 4.292 2.595 4.24 5.095 6.684 1.077.949 2.041 1.568 2.87 1.991 8.554 4.115 4.259.896 7.584 2.05 3.499 1.053 6.078 1.444 8.502 1.688 5.879.382 10.794 1.089 15.79-1.724 1.464-.929 3.795-4.793 5.651-9.265.619-.972 3.612-14.612 3.85-16.477 2.226-11.238 1.219-2.617 2.673-8.175q.07-.28.138-.682c.691-4.839.264-10.421 1.093-16.046.632-5.348 3.446-13.343 11.199-16.187 2.711-1.077 5.529-1.848 8.481-2.578 3.992-1.169 14.134-2.985 18.967-6.019a11.3 11.3 0 0 0 1.961-1.623c.503-.562.738.081 1.092-.48a8.5 8.5 0 0 0 .708-1.57c2.463-6.498 4.09-9.557 4.504-12.174.524-2.504-.265-3.873-.568-3.5a33 33 0 0 0-3.227-2.929c-2.771-2.251-6.628-4.299-10.206-4.566-6.786-.546-12.295-1.272-14.039-1.425-8.101-.83 6.239-.359 6.813-.261 5.489-.628-6.412-1.672-14.488-.709-.507-.551-2.437-.668-4.252-.21-3.409.903-6.983 2.634-3.971 2.538.293-.009 2.325-.765 4.336-1.462 1.441-.507 3.146-.799 3.887-.866-1.179.456-2.468.955-3.65 1.564-6.404 2.439-16.077 9.53-30.516 4.767-1.306-.653-2.515-1.196-4.06-2.895-.656-.763-1.439-2.086-1.352-3.687a4.54 4.54 0 0 1 1.332-2.994c1.006-.954 1.601-1.092 2.125-1.302 1.914-.509 3.027-.633 16.511-7.94 3.126-1.746 4.246-3.339 3.782-3.212.218-.973.273-1.633.431-2.569.129-.904.459-2.194.286-3.465a4 4 0 0 0-.063-.328c-.99-5.588-2.355-10.704-5.723-14.885-7.983-9.783-22.944-15.973-34.292-23.924-.692-.49-1.637-1.164-2.4-2.565-.782-1.416-.773-3.151-.54-4.172.748-2.828 1.387-3.366 1.634-4.002.27-.537.277-.663.192-.668-.17-.007-.717.544-.222-.379.142-.269.389-.681.777-1.286 3.236-5.057 6.443-9.777 9.298-14.45 2.762-4.494 5.574-9.961 4.574-12.483-.317-1.047-.687-1.971-1.146-2.776-.214-.365-.214-.013-.341.107-.141.131-.319-.019-1.107-1.074a10 10 0 0 0-.57-.664c-3.368-3.173-11.003-4.979-17.323-4.46-5.376.329-10.632 1.375-16.085 2.779-2.755.688-5.511 1.494-8.768 2.1-1.634.279-3.439.562-5.718.352-2.219-.142-5.371-1.401-7.123-3.605-3.74-4.569-8.117-10.668-6.946-19.07.726-4.454 2.987-7.959 4.201-10.607.998-2.107 1.968-3.967 2.932-5.927 1.97-4.001 4.323-8.942 6.04-14.246.839-2.62 1.517-5.416 1.586-7.762.04-1.159-.115-2.173-.345-2.71-.253-.547-.337-.601-.759-.84-8.08-4.146-16.571-6.943-22.809-7.748-2.324-.315-4.668-.434-6.904-.236-9.584.884-20.835 3.149-26.294 9.232-2.405 2.686-2.938 6.507-2.209 10.848 2.033 11.55 4.122 22.896 5.005 32.725.84 9.63.781 12.48 1.047 14.576.069.804.137 1.524.111 2.574-.127 1.085.175 2.305-1.461 5.352-.893 1.635-3.105 3.273-4.788 3.744-1.704.542-2.908.586-3.956.652-16.22-1.272-31.728-6.002-34.35-4.968-.283-.395 12.411.127 5.645-.606-3.959-.88-5.534.615-5.645.606-.547.03-3.627.164-6.54 1.638-8.168 4.047-19.438 10.991-21.858 13.325-2.075 1.783-.483 1.284-1.525 2.214-3.37 2.908-5.669 6.887-5.052 7.973 1.228 6.407 5.702 11.668 11.688 16.197 11.279 8.653 23.694 15.819 36.82 21.729 8.242 3.737 16.445 7.533 24.619 12.17.598.355-.642.448.739 1.268 1.684 1.013 3.281 2.01 4.929 3.214.821.609 1.628 1.226 2.551 2.146.478.496.939.958 1.536 1.952.281.503.609 1.105.805 2.178.203.991.049 2.648-.709 3.847-9.539 11.62-19.103 14.029-29.617 16.603-3.878.77-7.791 1.559-11.814 2.481-10.026 2.254-17.951 5.035-22.31 9.123-2.776 2.689-5.851 6.933-8.202 10.044-3.99 7.111-9.005 18.026-7.494 24.929.167.803.293.822.007.527a1.5 1.5 0 0 0-.513-.319c-.144-.046-.182-.025-.111-.008a57 57 0 0 0 7.422.37c10.261-.532 11.231-3.056 12.083-3.153a73 73 0 0 0 6.157-2.316c16.455-6.965 28.536-12.838 43.771-19.495 6.829-2.888 14.087-5.978 22.691-9.287 2.205-.837 4.735-1.788 7.664-2.743 1.468-.474 3.011-.949 4.785-1.363.906-.206 1.849-.403 3.043-.521a11.6 11.6 0 0 1 2.221-.016c.907.186 2.36-.006 4.583 2.19 3.404 4.637 2.574 7.032 3.025 9.497-.167 15.49-3.373 28.219-4.042 37.903-.527 5.204-.913 9.529-1.199 13.654-.395 5.911-.817 11.433-.829 18.126.006 1.528.632-.01.65.455.301 6.316.426 7.564.119 7.955-.272.37-.798-.328-.788.819.018 1.384.161 2.575.343 3.279.088.354.164.555.179.653.02.098-.027.144.097.249 5.159 2.157 11.438 4.765 21.491 5.095.872-.006 2.213-.173 3.514-.604 1.291-.392 2.479-1.262 2.424-1.703-.212.056.201-.704.45-1.444.282-.764.578-1.635.871-2.513.585-1.759 1.163-3.546 1.755-5.094 3.152-8.461 2.603-5.015 5.853-14.12.269-.749-.199-.784 1.718-5.832q.084-.217.173-.46c1.23-3.301 2.127-7.337 3.512-11.798.721-2.244 1.521-4.629 3.047-7.281 1.445-2.539 4.309-5.985 8.726-7.147 5.403-1.324 9.506.231 12.856 1.799 14.361 6.958 32.002 16.375 43.132 17.575a45 45 0 0 0 2.021-.233c1.55-.241 1.253-.414 1.186-.585-.099-.195.073-.327 1.901-.901a13.9 13.9 0 0 0 4.18-2.278c10.851-8.195 19.996-13.035 19.808-22.558.613-7.055-2.421-16.655-4.809-17.987-2.474-1.561-5.517-3.034-8.482-4.315-5.521-2.282-1.857-1.389-3.014-2.005-7.259-3.892-18.824-4.685-20.539-4.708a64 64 0 0 0-3.263-.261c-15.743-1.088-29.66-4.151-43.106-8.338-5.504-2.148-12.442-2.382-19.127-10.071-2.86-3.825-5.942-9.301-4.061-16.39.966-2.208.744-7.71 7.614-11.715 9.778-4.047 17.802-3.652 26.488-3.527 7.927.293 15.96.95 24.098 1.249 1.737-.004 14.692.118 20.698-2.19 2.798-1.062 5.299-1.973 7.253-2.553.407-.126 9.252-2.569 12.177-7.783.092-.152-.63.436-.813.384-.241-.073.454-.606 1.973-3.396.45-.897.828-1.938 1.085-3.159 1.886-9.064 4.254-21.971 3.455-30.912-.113-1.231-.353-3.246-1.009-4.47-2.296-3.705-6.699-8.976-11.646-9.733a7 7 0 0 0-.619-.037c-4.062-.536-19.426-1.017-25.191-2.568-1.046-.19.072-2.415-14.368-1.17-2.714.344 2.216.331-4.882 1.142q-.534.07-1.076.146c-5.079.694-10.79 1.443-16.823 2.418-6.028.671-12.42 3.222-21.76 1.163-2.869-.894-3.769-1.98-4.689-2.738a24 24 0 0 1-2.026-2.135c-2.408-2.611-8.682-11.339-12.208-19.022-.561-1.212 1.213.663-1.011-3.195a333 333 0 0 0-2.982-5.049c-2.512-4.157-4.983-8.37-7.466-12.375-2.306-3.818-5.644-8.404-6.735-8.824-8.686-4.697-17.681-9.122-25.905-10.476-3.073-.434-3.682-.522-4.442-.777-.702-.173-1.643-.589-4.187.273l-.038.014c-7.189 2.694-21.446 10.237-25.59 15.931-1.701 2.224-1.307 2.625-1.124 2.939.119.153.254.278.305.526.059.234.013.631-.001 1.027-.045.3-.012.36.009.437.024.078.029.318.15.924.369 1.837 1.507 4.699 2.699 7.357 2.812 6.298 5.683 12.541 8.555 18.888 1.437 3.186 2.865 6.364 4.26 9.685.697 1.669 1.382 3.349 2.043 5.202.328.926.658 1.905.967 3.066.147.569.304 1.206.434 2.066.065.942.434 1.653-.22 4.404-.887 2.299-.897 6.271-5.768 10.83-9.118 7.368-19.359 10.126-29.178 12.007-10.818 1.849-20.298 3.753-26.559 9.622-4.85 4.408-7.565 10.029-6.308 14.827 1.22 5.08 3.888 10.508 7.105 15.351 4.317 5.915.798 1.041 7.968 8.982q.402.408.819.814c4.04 3.961 8.241 7.081 13.602 8.38 12.137 3.008 25.206 7.153 38.252 12.142 3.325 1.276 6.664 2.548 10.145 4.032 1.75.755 3.512 1.535 5.487 2.625.992.559 2.034 1.172 3.27 2.159 1.159 1.03 3.01 2.347 4.077 5.98 2.397 20.533-8.489 31.568-16.081 42.19-2.341 2.906-4.656 5.687-6.8 8.309-1.063 1.304-2.088 2.577-2.934 3.72-.419.565-.788 1.1-1.019 1.478-.113.181-.187.324-.191.32-.011-.014.087-.145.168-.84-.334 3.27.787 8.635 2.197 11.585 1.309 2.822 2.48 3.794 3.139 4.333 4.996 3.328 1.709 1.799-.482.818-.802-.306-1.426-.572-.229.389 1.002.656 2.681 1.725 5.332 3.225 9.564 5.656 21.014 7.127 23.029 7.049 3.327.38 6.165.043 7.905-.825 9.008-4.974 18.405-16.736 28.13-24.723 4.368-3.851 8.828-7.899 14.431-11.894 4.62-3.087-.435-.706 3.755-3.271 4.028-2.061 9.802-5.699 18.112-2.282 3.568 1.703 5.032 4.64 5.743 5.902 4.006 8.255 8.379 15.06 11.772 15.049.193.028.412.053.624.072 4.461.102 3.762-.443 8.265-1.258 5.483-1.243 10.476-3.625 14.011-6.755 4.704-4.247 9.45-8.372 13.91-12.709.795-.794-3.917 5.217 2.463-1.639 1.2-1.369 2.344-2.795 3.127-4.078.388-.631.663-1.217.775-1.575.118-.373.065-.371.113-.221.208-.281-2.01-2.95-4.573-4.75-2.599-1.94-5.636-3.769-8.782-5.485-5.896-3.197-12.09-6.27-18.151-9.15-5.019-2.388-5.735-1.363-16.056-7.607-1.601-.984-.079-1.092-4.537-3.366-1.572-.827-3.757-1.792-7.286-3.606-.343-.186-1.087-.567-2.285-1.34-.608-.404-1.323-.871-2.292-1.769a10.8 10.8 0 0 1-1.646-1.942c-.593-.87-1.09-2.101-1.304-2.868-.89-3.183-2.291-7.804.292-13.919 2.649-5.65 7.821-9.676 13.725-10.941 5.04-.97 8.407-.53 11.034-.353 2.497.213 7.8 1.138 12.166-.272a50 50 0 0 0 2.996-1.058c.821-.331-2.722.282 2.331-1.631 4.106-1.578 8.189-3.243 11.978-5.133 3.628-1.735 7.748-4.551 8.285-5.714 2.155-3.502 2.643-5.389 2.254-6.728-1.537-6.061-3.598-12.16-6.345-17.08-1.12-1.909-1.009-1.292-1.026-.997-.011.155-.054.256-.302-.01-.242-.243-.718-.95-1.489-1.858-.51-.646-1.167-.973-.58-.66-3.486-1.451-7.691-2.074-12.593-2.379-8.554-.535-17.34-1.069-26.09-1.868-4.368-.41-8.72-.872-13.124-1.625-2.201-.386-4.449-.835-6.855-1.578-2.409-1.051-5.227-.841-9.094-6.291a11 11 0 0 1-.439-.853c-1.269-2.882-1.01-4.828-.951-5.909.111-1.129.273-1.757.389-2.2.243-.863.349-.915.374-.697.039.407-.114 2.296-.011 1.866.256-1.204.56-2.13.854-2.99 2.822-7.745 3.492-12.653 4.344-15.368 3.794-11.608 7.772-22.147 5.644-27.691-1.868-5.228-3.743-9.019-7.243-12.003-2.869-2.262-1.226-.135-1.827-.541-3.202-1.903-3.777-2.085-3.766-2.39-.046-.258.373-.491-2.05-1.575a37 37 0 0 0-2.161-.849c-4.94-1.943-10.984-2.289-12.185-.992-2.245 1.901-7.448 11.86-14.692 16.927-3.527 2.614-7.143 4.643-10.812 6.366-6.706 2.919 1.198.432-4.955 2.891-4.884 1.765-9.911 3.233-16.056 3.379-12.305.624-23.644-4.793-33.033-7.616-8.225-2.752-18.312-5.801-20.651-4.256-4.717 2.107-8.669 3.831-11.918 6.024-1.587 1.064-2.907 2.22-3.652 3.185-.76 1.005-.871 1.486-.894 2.007a20.4 20.4 0 0 0 .312 3.032c1.1 5.131-.167 2.066-.027 3.177 1.116 8.2 9.535 18.052 11.513 19.878a80 80 0 0 0 3.491 3.573c6.651 6.061 11.486 9.406 20.127 16.248a155 155 0 0 1 4.114 3.364c3.159 2.635 7.949 5.296 12.758 8.065 2.441 1.413 4.948 2.833 7.676 4.717 1.386 1 2.77 1.918 4.576 3.956.807 1.067 2.211 2.412 2.638 5.949.18 1.764-.354 3.896-1.243 5.311-.87 1.423-1.776 2.215-2.618 2.854-6.571 4.346-11.433 4.893-16.544 6.284-13.33 2.708-24.747 4.783-31.198 12.521-3.468 4.043-6.925 8.012-10.01 11.95-1.526 1.953-2.976 3.929-4.059 5.733-.537.891-.977 1.762-1.182 2.323-.105.276-.141.467-.132.409 0-.049.073-.429-.148-1.163.675 2.202 2.013 4.822 3.53 7.195.113.319 1.965 1.868 3.796 2.617 1.902.85 4.119 1.43 6.444 1.748 12.044 1.27 25.885-.77 37.971-2.851a51 51 0 0 0 2.428-.499c4.945-1.134 10.078-2.922 15.653-4.432 5.554-1.042 11.847-4.392 21.265.912 2.159 1.43 3.899 4.154 4.201 6.844.328 2.677-.345 4.671-.985 6.152-8.774 17.564-21.027 29.977-17.932 42.579.935 4.759 3.372 9.293 5.294 10.16 4.501 2.426 9.024 4.721 13.508 6.547 2.234.905 4.477 1.693 6.543 2.188 1.986.534 4.162.516 4.202.401 3.365-1.101 4.623-1.757 5.018-2.378 4.965-6.698 9.781-14.364 12.615-21.659 3.796-9.687 7.101-20.647 17.853-29.508 5.071-3.337-.669-.762 4.157-3.383a22.7 22.7 0 0 1 5.167-1.68c12.551-1.29 17.886 4.445 24.326 6.578 7.506 3.209 14.957 6.321 22.348 8.686 3.676 1.166 7.364 2.15 10.733 2.599 1.667.223 3.266.287 4.418.154.578-.064 1.016-.176 1.247-.266.236-.091.215-.12.13-.033 2.274-2.254 4.373-4.669 5.851-6.986.733-1.144 1.292-2.285 1.526-3.07.12-.386.149-.662.148-.714-.001-.062-.002.153.122.423-2.268-6.863-10.103-11.088-18.486-15.442-7.341-3.813-15.318-5.977-24.497-11.582-2.212-1.513-1.846-1.107-1.794-.812.05.136-.258.743-3.969-3.152-1.029-1.195-2.045-2.671-2.81-4.421-.769-1.622-1.391-4.776-.356-7.581 1.002-2.768 2.587-4.151 3.645-5.043 2.171-1.701 4.067-2.698 6.819-3.489 4.957-1.048 6.881-.441 9.23-.477 2.204.071 4.099.054 5.797-.157 3.396-.421 5.833-1.537 8.028-3.507 1.493-1.361 2.86-2.661 3.991-3.865 3.392-3.933-.351 1.771 2.721-2.136.825-1.21 1.165-2.106 1.251-2.885.095-.947.088-1.799.02-2.272-.03-.234-.073-.36-.057-.333.013.021.11.214.322.426-6.722-6.846-17.11-12.479-27.035-16.076-6.013-2.055 2.537 1.605-4.677-.772l-.439-.136c-6.425-2.001-12.868-3.925-19.381-5.944-3.272-1.018-6.527-2.043-9.891-3.224-1.687-.597-3.397-1.225-5.227-2.02-.944-.416-1.891-.848-3.048-1.515a15 15 0 0 1-2.067-1.418c-.755-.817-2.219-1.288-3.354-5.338-.716-4.533.985-6.715 2.05-8.312 1.198-1.581 2.475-2.624 3.837-3.482 6.925-4.226 13.578-7.292 19.975-10.636 3.178-1.651 6.294-3.319 9.035-5.051 1.356-.858 2.62-1.748 3.5-2.521.422-.365.746-.728.78-.781.09-.06-.419.303-.475 1.984.004.086-.003-.113-.024-.294a11 11 0 0 0-.096-.652 15 15 0 0 0-.347-1.48 16.6 16.6 0 0 0-1.153-2.932c-.95-1.864-2.209-3.441-3.752-4.689-2.205-1.778-7.346-3.284-11.601-3.092-3.239.013-6.603 1.444-10.633 3.777-5.505 3.194-10.977 6.534-16.772 9.82-2.912 1.636-5.87 3.27-9.276 4.775-1.734.743-3.505 1.484-5.981 2.026-1.263.245-2.691.512-4.846.238-2.058-.165-5.484-1.846-6.931-4.409-.99-1.615-1.81-3.153-2.59-4.67-2.059-4.006-2.305-8.139-6.558-15.907-.664-.398-1.073-.147-1.591-.2-1.473-2.796-3.007-5.531-4.588-7.801-.784-1.126-1.607-2.141-2.258-2.753a3.7 3.7 0 0 0-.592-.482c-.023-.014.343.219 1.113.222-5.084.018-9.141 1.345-11.582 4.067-3.935 4.27-6.372 8.368-7.421 13.585-.402 1.25.316 5.966-.363 10.995-.605 5.181-3.514 10.571-7.054 14.002-3.537 3.702-9.842 7.397-16.765 6.168-6.407-1.141-11.366-3.24-16.047-4.483-9.959-3.216-19.853-6.393-22.945-3.856-1.417.942-2.755 1.819-3.75 2.585-.492.378-.89.731-1.091.944-.21.209-.155.26.021-.179-.076.199.021.014-.003-.367-.012-.382-.197-.826-.282-.937 4.719 5.183 17.026 13.179 25.879 20.319 6.209 4.889 12.704 9.611 19.124 15.168 3.192 2.83 6.41 5.715 9.394 9.965 1.435 2.163 3.009 4.752 3.419 8.661.513 3.971-1.639 8.485-4.037 10.684-9.887 8.782-19.474 11.806-27.4 17.387-2.699 1.925 2.233-.777-2.685 2.959-1.367 1.126-2.512 2.299-3.194 3.294-.246.352-.234.464-.205.317.038-.142-.023-.374.027-.195.327 1.025 1.348 2.585 2.329 3.451 5.691 5.229 13.443 8.807 19.893 8.445 6.922-.641 17.003-6.317 29.25-8.135 4.215-.313 11.161-1.515 17.245 5.09 1.991 2.629 3.74 4.728 4.43 9.822.584 5.896-1.692 11.698-3.988 15.703-2.735 4.892-5.826 9.606-8.8 14.048-1.164 1.756-1.734 1.986-2.766 3.066a13.7 13.7 0 0 0-1.837 2.442c-.692 1.067-1.326 2.915-1.102 3.237.011.035.025.083.07.18-.192-.465-.196-.37-.056-.231.139.155.411.419.772.704.722.578 1.791 1.235 3.028 1.772 2.478 1.106 5.623 1.64 8.234 1.588 2.05-.015 3.63-.26 4.504-.478.247-.063-.305-.146-.343-.311-.062-.185.532-.319 2.473-.914 1.568-.52 2.751-1.243 3.692-2.213 6.205-6.299 10.251-19.008 22.411-27.537.893-.563 2.295-1.505 4.761-1.742 2.51-.244 4.862.849 6.014 1.698 2.38 1.786 3.08 3.072 3.972 4.303 6.989 9.75 13.148 23.145 19.824 25.625 7.307 3.031 14.473 6.182 20.85 7.324 4.452.556-.314.808 2.81 1.057 1.272.043 2.397-.1 3.182-.377 4.27-1.511 8.179-3.84 10.522-6.873.089-.106.063-.128-.062.174-.128.274-.258 1.047-.139 1.592.107.552.255.72.227.685a5 5 0 0 0-.349-.447c-6.784-7.068-19.442-17.067-23.476-29.211-3.494-8.271-6.793-16.425-9.408-24.661-2.875-9.212-2.826-12.703-2.639-14.751.388-2.102.256-2.99 1.963-8.598.201-.529.839-2.65 2.441-4.608 1.774-2.414 5.468-4.695 8.078-4.304.878.078 1.629.307 1.749.474.466.593.091.993-.339 1.403-.446.41-.965.881-1.418 1.383-.599.822-.463 1.657-.088 2.415q.018.038.081.067c.248.035.625.083.66.118.019.013-.079.012-.283-.097a1.75 1.75 0 0 1-.579-.529c1.997 3.241 3.586 7.019.703 2.576-.097-.136-.605-.986-1.399-2.135.194.413.91.968 1.219 1.057.312.116.181.065-.324.099-.038.045-.4.182-.873.627a6.3 6.3 0 0 0-1.149 1.474q-.06.113-.097.203c-.185.467.126.417.351.497.242.078.347.256.163.998-.336 1.302-1.112 4.597.659 10.254 1.946 5.666 1.664 2.839 6.077 14.539m-138.278 18.285c9.56-3.74 9.905-6.548.123-1.344-.474.254-.613 1.536-.123 1.344m-6.891-17.344c2.238.952 4.487 2.365 5.985 4.149 1.467 1.569 2.203 4.162 1.646 6.101-1.004 3.776-2.266 5.779-2.273 6.532-.079.66.877.205 2.822-3.182.48-.894.896-1.866 1.197-2.901.945-3.021-.54-6.301-2.049-7.761-2.897-2.999-5.992-3.555-7.289-3.722-1.383-.124-1.559.146-.039.784m-2.875-73.846c-15.444 2.607-16.756 6.534-.929 2.118.945-.242 1.837-2.265.929-2.118m144.918 91.475c-.026-.11-3.21-7.805-3.308-8.004-2.411-3.811 3.944 11.6 3.308 8.004M143.105 73.668c-1.493.457-3.812 1.508-5.834 2.918-4.426 2.902-7.89 6.319-4.578 4.158a161 161 0 0 0 5.127-3.347c4.182-2.885 9.321-4.787 5.285-3.729m126.014 141.067c.161.033 6.097.414 5.99.212-.358-.691-8.653-.955-5.99-.212m31.122-71.014c1.785-12.849 4.529-24.667.062-30.348-3.211-2.711-5.693-3.559-5.739-3.953-.134-.216 2.136-.322 6.695 2.706 3.63 3.161 3.611 8.189 3.529 13.97-.199 3.495-.124-.274-.513-3.819-.387-3.561-1.458-6.763-.824-2.323.451 10.548-.69 18.647-1.728 27.487l-.006.033c-.391 2.444-.846 4.927-1.324 7.518-.433 2.366-.898 4.901-1.614 7.53-.391 1.443.06-2.876.37-7.743.213-2.657.527-5.484.765-7.64l-.003.019c.143-1.742.265-3.048.336-3.498zM147.627 277.649c.199-.062 7.665-3.514 7.838-3.613 3.728-2.571-11.34 4.367-7.838 3.613m3.493-194.064c-.208.092-4.543 2.48-8.551 5.498-4.078 2.92-7.423 6.932-7.532 7.272-2.287 4.814 1.569-1.855 7.64-6.092 5.861-4.483 12.516-8.158 8.443-6.678m64.334 17.417c-.664 1.689-1.438 3.473-2.119 5.148-1.387 3.312-2.971 6.089-3.409 8.837-.593 3.213.564 6.62 1.734 9.362-1.779-2.967-2.91-6.331-2.368-9.466.461-2.972 2.154-5.71 3.678-8.903.762-1.605 1.648-3.311 2.484-4.978"/></svg>