<svg xmlns="http://www.w3.org/2000/svg" width="629" height="629" fill="none" viewBox="0 0 629 629"><path fill="#671723" d="M305.867 29.289c2.537-8.608 14.729-8.608 17.266 0l42.375 143.769c1.621 5.5 7.903 8.102 12.938 5.359l131.624-71.696c7.881-4.292 16.501 4.328 12.209 12.209l-71.696 131.624c-2.743 5.035-.141 11.317 5.359 12.938l143.769 42.375c8.608 2.537 8.607 14.729 0 17.266l-143.769 42.375c-5.5 1.621-8.102 7.903-5.359 12.938l71.696 131.624c4.292 7.881-4.328 16.501-12.209 12.209l-131.624-71.696c-5.035-2.743-11.317-.141-12.938 5.359l-42.375 143.769c-2.537 8.608-14.729 8.607-17.266 0l-42.375-143.769c-1.621-5.5-7.903-8.102-12.938-5.359L118.93 522.279c-7.881 4.292-16.501-4.328-12.209-12.209l71.696-131.624c2.743-5.035.141-11.317-5.359-12.938l-143.77-42.375c-8.606-2.537-8.606-14.729 0-17.266l143.77-42.375c5.5-1.621 8.102-7.903 5.359-12.938L106.721 118.93c-4.292-7.881 4.328-16.501 12.209-12.209l131.624 71.696c5.035 2.743 11.317.141 12.938-5.359z"/><path fill="#ffe6d7" d="M309.69 51.24c1.375-4.848 8.245-4.848 9.62 0l40.869 144.051c.881 3.105 4.428 4.574 7.247 3.002l130.758-72.961c4.4-2.455 9.258 2.403 6.803 6.802l-72.961 130.759c-1.573 2.818-.103 6.366 3.001 7.246l144.052 40.87c4.847 1.375 4.847 8.245 0 9.62l-144.052 40.869c-3.104.881-4.574 4.428-3.001 7.246l72.961 130.759c2.455 4.4-2.403 9.258-6.803 6.803l-130.758-72.961c-2.819-1.573-6.366-.103-7.247 3.001L319.31 580.398c-1.375 4.847-8.245 4.847-9.62 0l-40.869-144.052c-.881-3.104-4.429-4.574-7.247-3.001l-130.759 72.961c-4.399 2.455-9.257-2.403-6.802-6.803l72.961-130.759c1.572-2.818.103-6.365-3.002-7.246L49.921 320.629c-4.847-1.375-4.847-8.245 0-9.62l144.051-40.87c3.105-.88 4.574-4.428 3.002-7.246l-72.961-130.759c-2.455-4.399 2.403-9.257 6.802-6.802l130.759 72.961c2.818 1.572 6.366.103 7.247-3.002z"/><g filter="url(#a)"><ellipse cx="313.841" cy="315.819" fill="#932737" rx="127.91" ry="127.251"/></g><defs><filter id="a" width="551.42" height="550.101" x="38.131" y="40.768" color-interpolation-filters="sRGB" filterUnits="userSpaceOnUse"><feFlood flood-opacity="0" result="BackgroundImageFix"/><feBlend in="SourceGraphic" in2="BackgroundImageFix" result="shape"/><feGaussianBlur result="effect1_foregroundBlur_77_121" stdDeviation="73.9"/></filter></defs></svg>